<?xml version="1.0" encoding="UTF-8" standalone="no"?>
<svg
   xmlns:dc="http://purl.org/dc/elements/1.1/"
   xmlns:cc="http://creativecommons.org/ns#"
   xmlns:rdf="http://www.w3.org/1999/02/22-rdf-syntax-ns#"
   xmlns:svg="http://www.w3.org/2000/svg"
   xmlns="http://www.w3.org/2000/svg"
   viewBox="0 0 192 192"
   height="192"
   width="192"
   xml:space="preserve"
   id="svg2"
   version="1.1"><metadata
     id="metadata8"><rdf:RDF><cc:Work
         rdf:about=""><dc:format>image/svg+xml</dc:format><dc:type
           rdf:resource="http://purl.org/dc/dcmitype/StillImage" /></cc:Work></rdf:RDF></metadata><defs
     id="defs6"><clipPath
       id="clipPath18"
       clipPathUnits="userSpaceOnUse"><path
         id="path16"
         d="M 0,144 H 144 V 0 H 0 Z" /></clipPath></defs><g
     transform="matrix(1.3333333,0,0,-1.3333333,0,192)"
     id="g10"><g
       id="g12"><g
         clip-path="url(#clipPath18)"
         id="g14"><path
           id="path20"
           style="fill:#000000;fill-opacity:1;fill-rule:nonzero;stroke:none"
           d="m 45.167,121.25 c 0,-0.966 -0.784,-1.75 -1.75,-1.75 -0.967,0 -1.75,0.784 -1.75,1.75 0,0.966 0.783,1.75 1.75,1.75 0.966,0 1.75,-0.784 1.75,-1.75" /><path
           id="path22"
           style="fill:none;stroke:#000000;stroke-width:1;stroke-linecap:butt;stroke-linejoin:miter;stroke-miterlimit:4;stroke-dasharray:none;stroke-opacity:1"
           d="m 45.167,121.25 c 0,-0.966 -0.784,-1.75 -1.75,-1.75 -0.967,0 -1.75,0.784 -1.75,1.75 0,0.966 0.783,1.75 1.75,1.75 0.966,0 1.75,-0.784 1.75,-1.75 z" /><path
           id="path24"
           style="fill:#000000;fill-opacity:1;fill-rule:nonzero;stroke:none"
           d="m 131.5,71.583 c 0,-0.966 -0.783,-1.749 -1.75,-1.749 -0.966,0 -1.75,0.783 -1.75,1.749 0,0.967 0.784,1.75 1.75,1.75 0.967,0 1.75,-0.783 1.75,-1.75" /><path
           id="path26"
           style="fill:none;stroke:#000000;stroke-width:1;stroke-linecap:butt;stroke-linejoin:miter;stroke-miterlimit:4;stroke-dasharray:none;stroke-opacity:1"
           d="m 131.5,71.583 c 0,-0.966 -0.783,-1.749 -1.75,-1.749 -0.966,0 -1.75,0.783 -1.75,1.749 0,0.967 0.784,1.75 1.75,1.75 0.967,0 1.75,-0.783 1.75,-1.75 z" /><path
           id="path28"
           style="fill:#000000;fill-opacity:1;fill-rule:nonzero;stroke:none"
           d="m 102.584,121.5 c 0,-0.966 -0.783,-1.75 -1.75,-1.75 -0.967,0 -1.75,0.784 -1.75,1.75 0,0.966 0.783,1.75 1.75,1.75 0.967,0 1.75,-0.784 1.75,-1.75" /><path
           id="path30"
           style="fill:none;stroke:#000000;stroke-width:1;stroke-linecap:butt;stroke-linejoin:miter;stroke-miterlimit:4;stroke-dasharray:none;stroke-opacity:1"
           d="m 102.584,121.5 c 0,-0.966 -0.783,-1.75 -1.75,-1.75 -0.967,0 -1.75,0.784 -1.75,1.75 0,0.966 0.783,1.75 1.75,1.75 0.967,0 1.75,-0.784 1.75,-1.75 z" /><path
           id="path32"
           style="fill:#000000;fill-opacity:1;fill-rule:nonzero;stroke:none"
           d="m 102.333,21.583 c 0,-0.966 -0.784,-1.75 -1.75,-1.75 -0.966,0 -1.75,0.784 -1.75,1.75 0,0.966 0.784,1.75 1.75,1.75 0.966,0 1.75,-0.784 1.75,-1.75" /><path
           id="path34"
           style="fill:none;stroke:#000000;stroke-width:1;stroke-linecap:butt;stroke-linejoin:miter;stroke-miterlimit:4;stroke-dasharray:none;stroke-opacity:1"
           d="m 102.333,21.583 c 0,-0.966 -0.784,-1.75 -1.75,-1.75 -0.966,0 -1.75,0.784 -1.75,1.75 0,0.966 0.784,1.75 1.75,1.75 0.966,0 1.75,-0.784 1.75,-1.75 z" /><path
           id="path36"
           style="fill:#000000;fill-opacity:1;fill-rule:nonzero;stroke:none"
           d="m 45,21.417 c 0,-0.966 -0.784,-1.75 -1.75,-1.75 -0.966,0 -1.75,0.784 -1.75,1.75 0,0.966 0.784,1.75 1.75,1.75 0.966,0 1.75,-0.784 1.75,-1.75" /><path
           id="path38"
           style="fill:none;stroke:#000000;stroke-width:1;stroke-linecap:butt;stroke-linejoin:miter;stroke-miterlimit:4;stroke-dasharray:none;stroke-opacity:1"
           d="m 45,21.417 c 0,-0.966 -0.784,-1.75 -1.75,-1.75 -0.966,0 -1.75,0.784 -1.75,1.75 0,0.966 0.784,1.75 1.75,1.75 0.966,0 1.75,-0.784 1.75,-1.75 z" /><path
           id="path40"
           style="fill:#000000;fill-opacity:1;fill-rule:nonzero;stroke:none"
           d="m 73.75,104.667 c 0,-0.967 -0.783,-1.75 -1.75,-1.75 -0.967,0 -1.75,0.783 -1.75,1.75 0,0.966 0.783,1.75 1.75,1.75 0.967,0 1.75,-0.784 1.75,-1.75" /><path
           id="path42"
           style="fill:none;stroke:#000000;stroke-width:1;stroke-linecap:butt;stroke-linejoin:miter;stroke-miterlimit:4;stroke-dasharray:none;stroke-opacity:1"
           d="m 73.75,104.667 c 0,-0.967 -0.783,-1.75 -1.75,-1.75 -0.967,0 -1.75,0.783 -1.75,1.75 0,0.966 0.783,1.75 1.75,1.75 0.967,0 1.75,-0.784 1.75,-1.75 z" /><path
           id="path44"
           style="fill:#000000;fill-opacity:1;fill-rule:nonzero;stroke:none"
           d="m 44.917,88 c 0,-0.966 -0.784,-1.75 -1.75,-1.75 -0.967,0 -1.75,0.784 -1.75,1.75 0,0.966 0.783,1.75 1.75,1.75 0.966,0 1.75,-0.784 1.75,-1.75" /><path
           id="path46"
           style="fill:none;stroke:#000000;stroke-width:1;stroke-linecap:butt;stroke-linejoin:miter;stroke-miterlimit:4;stroke-dasharray:none;stroke-opacity:1"
           d="m 44.917,88 c 0,-0.966 -0.784,-1.75 -1.75,-1.75 -0.967,0 -1.75,0.784 -1.75,1.75 0,0.966 0.783,1.75 1.75,1.75 0.966,0 1.75,-0.784 1.75,-1.75 z" /><path
           id="path48"
           style="fill:#000000;fill-opacity:1;fill-rule:nonzero;stroke:none"
           d="m 102.667,55.084 c 0,-0.967 -0.784,-1.75 -1.75,-1.75 -0.967,0 -1.75,0.783 -1.75,1.75 0,0.967 0.783,1.75 1.75,1.75 0.966,0 1.75,-0.783 1.75,-1.75" /><path
           id="path50"
           style="fill:none;stroke:#000000;stroke-width:1;stroke-linecap:butt;stroke-linejoin:miter;stroke-miterlimit:4;stroke-dasharray:none;stroke-opacity:1"
           d="m 102.667,55.084 c 0,-0.967 -0.784,-1.75 -1.75,-1.75 -0.967,0 -1.75,0.783 -1.75,1.75 0,0.967 0.783,1.75 1.75,1.75 0.966,0 1.75,-0.783 1.75,-1.75 z" /><path
           id="path52"
           style="fill:#000000;fill-opacity:1;fill-rule:nonzero;stroke:none"
           d="m 73.584,37.999 c 0,-0.967 -0.784,-1.75 -1.751,-1.75 -0.966,0 -1.75,0.783 -1.75,1.75 0,0.967 0.784,1.75 1.75,1.75 0.967,0 1.751,-0.783 1.751,-1.75" /><path
           id="path54"
           style="fill:none;stroke:#000000;stroke-width:1;stroke-linecap:butt;stroke-linejoin:miter;stroke-miterlimit:4;stroke-dasharray:none;stroke-opacity:1"
           d="m 73.584,37.999 c 0,-0.967 -0.784,-1.75 -1.751,-1.75 -0.966,0 -1.75,0.783 -1.75,1.75 0,0.967 0.784,1.75 1.75,1.75 0.967,0 1.751,-0.783 1.751,-1.75 z" /><path
           id="path56"
           style="fill:#000000;fill-opacity:1;fill-rule:nonzero;stroke:none"
           d="m 44.917,54.5 c 0,-0.967 -0.784,-1.75 -1.75,-1.75 -0.967,0 -1.75,0.783 -1.75,1.75 0,0.967 0.783,1.75 1.75,1.75 0.966,0 1.75,-0.783 1.75,-1.75" /><path
           id="path58"
           style="fill:none;stroke:#000000;stroke-width:1;stroke-linecap:butt;stroke-linejoin:miter;stroke-miterlimit:4;stroke-dasharray:none;stroke-opacity:1"
           d="m 44.917,54.5 c 0,-0.967 -0.784,-1.75 -1.75,-1.75 -0.967,0 -1.75,0.783 -1.75,1.75 0,0.967 0.783,1.75 1.75,1.75 0.966,0 1.75,-0.783 1.75,-1.75 z" /><text
           id="text62"
           style="font-variant:normal;font-weight:normal;font-stretch:normal;font-size:12px;font-family:Myriad;-inkscape-font-specification:Myriad-Roman;writing-mode:lr-tb;fill:#000000;fill-opacity:1;fill-rule:nonzero;stroke:none"
           transform="matrix(1,0,0,-1,39.5,124.834)"><tspan
             id="tspan60"
             y="0"
             x="0">A</tspan></text>
<text
           id="text66"
           style="font-variant:normal;font-weight:normal;font-stretch:normal;font-size:12px;font-family:Myriad;-inkscape-font-specification:Myriad-Roman;writing-mode:lr-tb;fill:#000000;fill-opacity:1;fill-rule:nonzero;stroke:none"
           transform="matrix(1,0,0,-1,4.4995,66.5005)"><tspan
             id="tspan64"
             y="0"
             x="0">B</tspan></text>
<text
           id="text70"
           style="font-variant:normal;font-weight:normal;font-stretch:normal;font-size:12px;font-family:Myriad;-inkscape-font-specification:Myriad-Roman;writing-mode:lr-tb;fill:#000000;fill-opacity:1;fill-rule:nonzero;stroke:none"
           transform="matrix(1,0,0,-1,31.6665,12.5)"><tspan
             id="tspan68"
             y="0"
             x="0">C</tspan></text>
<text
           id="text74"
           style="font-variant:normal;font-weight:normal;font-stretch:normal;font-size:12px;font-family:Myriad;-inkscape-font-specification:Myriad-Roman;writing-mode:lr-tb;fill:#000000;fill-opacity:1;fill-rule:nonzero;stroke:none"
           transform="matrix(1,0,0,-1,104.834,13.334)"><tspan
             id="tspan72"
             y="0"
             x="0">D</tspan></text>
<text
           id="text78"
           style="font-variant:normal;font-weight:normal;font-stretch:normal;font-size:12px;font-family:Myriad;-inkscape-font-specification:Myriad-Roman;writing-mode:lr-tb;fill:#000000;fill-opacity:1;fill-rule:nonzero;stroke:none"
           transform="matrix(1,0,0,-1,132.834,67.165)"><tspan
             id="tspan76"
             y="0"
             x="0">E</tspan></text>
<text
           id="text82"
           style="font-variant:normal;font-weight:normal;font-stretch:normal;font-size:12px;font-family:Myriad;-inkscape-font-specification:Myriad-Roman;writing-mode:lr-tb;fill:#000000;fill-opacity:1;fill-rule:nonzero;stroke:none"
           transform="matrix(1,0,0,-1,99.334,124.999)"><tspan
             id="tspan80"
             y="0"
             x="0">F</tspan></text>
<text
           id="text86"
           style="font-variant:normal;font-weight:normal;font-stretch:normal;font-size:12px;font-family:Myriad;-inkscape-font-specification:Myriad-Roman;writing-mode:lr-tb;fill:#000000;fill-opacity:1;fill-rule:nonzero;stroke:none"
           transform="matrix(1,0,0,-1,33,46.834)"><tspan
             id="tspan84"
             y="0"
             x="0">G</tspan></text>
<text
           id="text90"
           style="font-variant:normal;font-weight:normal;font-stretch:normal;font-size:12px;font-family:Myriad;-inkscape-font-specification:Myriad-Roman;writing-mode:lr-tb;fill:#000000;fill-opacity:1;fill-rule:nonzero;stroke:none"
           transform="matrix(1,0,0,-1,67.8335,26.999)"><tspan
             id="tspan88"
             y="0"
             x="0">H</tspan></text>
<text
           id="text94"
           style="font-variant:normal;font-weight:normal;font-stretch:normal;font-size:12px;font-family:Myriad;-inkscape-font-specification:Myriad-Roman;writing-mode:lr-tb;fill:#000000;fill-opacity:1;fill-rule:nonzero;stroke:none"
           transform="matrix(1,0,0,-1,103.333,46)"><tspan
             id="tspan92"
             y="0"
             x="0">I</tspan></text>
<text
           id="text98"
           style="font-variant:normal;font-weight:normal;font-stretch:normal;font-size:12px;font-family:Myriad;-inkscape-font-specification:Myriad-Roman;writing-mode:lr-tb;fill:#000000;fill-opacity:1;fill-rule:nonzero;stroke:none"
           transform="matrix(1,0,0,-1,105.499,87.333)"><tspan
             id="tspan96"
             y="0"
             x="0">J</tspan></text>
<path
           id="path100"
           style="fill:none;stroke:#000000;stroke-width:1;stroke-linecap:butt;stroke-linejoin:miter;stroke-miterlimit:4;stroke-dasharray:none;stroke-opacity:1"
           d="m 43.367,21.617 -28.8,49.883 28.8,49.883 h 57.601 L 129.767,71.5 100.968,21.617 Z" /><path
           id="path102"
           style="fill:#000000;fill-opacity:1;fill-rule:nonzero;stroke:none"
           d="m 16.75,71.333 c 0,-0.968 -0.784,-1.751 -1.75,-1.751 -0.966,0 -1.75,0.783 -1.75,1.751 0,0.966 0.784,1.75 1.75,1.75 0.966,0 1.75,-0.784 1.75,-1.75" /><path
           id="path104"
           style="fill:none;stroke:#000000;stroke-width:1;stroke-linecap:butt;stroke-linejoin:miter;stroke-miterlimit:4;stroke-dasharray:none;stroke-opacity:1"
           d="m 16.75,71.333 c 0,-0.968 -0.784,-1.751 -1.75,-1.751 -0.966,0 -1.75,0.783 -1.75,1.751 0,0.966 0.784,1.75 1.75,1.75 0.966,0 1.75,-0.784 1.75,-1.75 z" /><path
           id="path106"
           style="fill:#000000;fill-opacity:1;fill-rule:nonzero;stroke:none"
           d="m 102.25,88.167 c 0,-0.967 -0.783,-1.75 -1.75,-1.75 -0.966,0 -1.75,0.783 -1.75,1.75 0,0.966 0.784,1.75 1.75,1.75 0.967,0 1.75,-0.784 1.75,-1.75" /><path
           id="path108"
           style="fill:none;stroke:#000000;stroke-width:1;stroke-linecap:butt;stroke-linejoin:miter;stroke-miterlimit:4;stroke-dasharray:none;stroke-opacity:1"
           d="m 102.25,88.167 c 0,-0.967 -0.783,-1.75 -1.75,-1.75 -0.966,0 -1.75,0.783 -1.75,1.75 0,0.966 0.784,1.75 1.75,1.75 0.967,0 1.75,-0.784 1.75,-1.75 z" /><path
           id="path110"
           style="fill:none;stroke:#000000;stroke-width:1;stroke-linecap:butt;stroke-linejoin:miter;stroke-miterlimit:4;stroke-dasharray:none;stroke-opacity:1"
           d="M 43.367,121.383 129.767,71.5" /><path
           id="path112"
           style="fill:none;stroke:#000000;stroke-width:1;stroke-linecap:butt;stroke-linejoin:miter;stroke-miterlimit:4;stroke-dasharray:none;stroke-opacity:1"
           d="m 43.367,21.617 86.4,49.883" /><path
           id="path114"
           style="fill:none;stroke:#000000;stroke-width:1;stroke-linecap:butt;stroke-linejoin:miter;stroke-miterlimit:4;stroke-dasharray:none;stroke-opacity:1"
           d="m 100.333,121.5 h 0.501" /><path
           id="path116"
           style="fill:none;stroke:#000000;stroke-width:1;stroke-linecap:butt;stroke-linejoin:miter;stroke-miterlimit:4;stroke-dasharray:none;stroke-opacity:1"
           d="m 100.333,121.5 0.25,-99.917" /><path
           id="path118"
           style="fill:none;stroke:#000000;stroke-width:1;stroke-linecap:butt;stroke-linejoin:miter;stroke-miterlimit:4;stroke-dasharray:none;stroke-opacity:1"
           d="M 14.567,71.5 100.583,21.583" /><path
           id="path120"
           style="fill:none;stroke:#000000;stroke-width:1;stroke-linecap:butt;stroke-linejoin:miter;stroke-miterlimit:4;stroke-dasharray:none;stroke-opacity:1"
           d="M 100.834,121.5 14.567,71.5" /><path
           id="path122"
           style="fill:none;stroke:#000000;stroke-width:1;stroke-linecap:butt;stroke-linejoin:miter;stroke-miterlimit:4;stroke-dasharray:none;stroke-opacity:1"
           d="m 43.367,21.617 v 99.766" /><text
           id="text126"
           style="font-variant:normal;font-weight:normal;font-stretch:normal;font-size:12px;font-family:Myriad;-inkscape-font-specification:Myriad-Roman;writing-mode:lr-tb;fill:#000000;fill-opacity:1;fill-rule:nonzero;stroke:none"
           transform="matrix(1,0,0,-1,69.333,109)"><tspan
             id="tspan124"
             y="0"
             x="0">K</tspan></text>
<text
           id="text130"
           style="font-variant:normal;font-weight:normal;font-stretch:normal;font-size:12px;font-family:Myriad;-inkscape-font-specification:Myriad-Roman;writing-mode:lr-tb;fill:#000000;fill-opacity:1;fill-rule:nonzero;stroke:none"
           transform="matrix(1,0,0,-1,33.4995,88.4995)"><tspan
             id="tspan128"
             y="0"
             x="0">L</tspan></text>
</g></g></g></svg>