<?xml version="1.0" encoding="UTF-8" standalone="no"?>
<svg
   xmlns:dc="http://purl.org/dc/elements/1.1/"
   xmlns:cc="http://creativecommons.org/ns#"
   xmlns:rdf="http://www.w3.org/1999/02/22-rdf-syntax-ns#"
   xmlns:svg="http://www.w3.org/2000/svg"
   xmlns="http://www.w3.org/2000/svg"
   xmlns:sodipodi="http://sodipodi.sourceforge.net/DTD/sodipodi-0.dtd"
   xmlns:inkscape="http://www.inkscape.org/namespaces/inkscape"
   viewBox="0 0 192 192"
   height="192"
   width="192"
   xml:space="preserve"
   id="svg2"
   version="1.1"
   sodipodi:docname="Graph5b.svg"
   inkscape:version="0.92.3 (2405546, 2018-03-11)"><sodipodi:namedview
   pagecolor="#ffffff"
   bordercolor="#666666"
   borderopacity="1"
   objecttolerance="10"
   gridtolerance="10"
   guidetolerance="10"
   inkscape:pageopacity="0"
   inkscape:pageshadow="2"
   inkscape:window-width="1920"
   inkscape:window-height="1017"
   id="namedview36"
   showgrid="false"
   inkscape:snap-object-midpoints="true"
   inkscape:zoom="3.4766084"
   inkscape:cx="58.779661"
   inkscape:cy="96"
   inkscape:window-x="1672"
   inkscape:window-y="-8"
   inkscape:window-maximized="1"
   inkscape:current-layer="svg2" /><metadata
   id="metadata8"><rdf:RDF><cc:Work
       rdf:about=""><dc:format>image/svg+xml</dc:format><dc:type
         rdf:resource="http://purl.org/dc/dcmitype/StillImage" /></cc:Work></rdf:RDF></metadata><defs
   id="defs6">





</defs><path
   sodipodi:type="star"
   style="opacity:1;fill:none;fill-opacity:1;stroke:#000000;stroke-width:1;stroke-linejoin:miter;stroke-miterlimit:4;stroke-dasharray:none;stroke-dashoffset:0;stroke-opacity:1"
   id="path837"
   sodipodi:sides="12"
   sodipodi:cx="96.456007"
   sodipodi:cy="96.466111"
   sodipodi:r1="76.556725"
   sodipodi:r2="73.94812"
   sodipodi:arg1="-0.0043540859"
   sodipodi:arg2="0.2574453"
   inkscape:flatsided="true"
   inkscape:rounded="0"
   inkscape:randomized="0"
   d="M 173.01201,96.132777 162.92212,134.45543 135.02268,162.59888 96.789342,173.02211 58.466685,162.93222 30.323236,135.03278 19.90001,96.799444 29.989902,58.476786 57.889334,30.333337 96.122675,19.910111 134.44533,30.000004 162.58878,57.899436 Z" /><path
   inkscape:connector-curvature="0"
   d="m 164.92212,57.899441 c 0,1.288 -1.04534,2.33333 -2.33334,2.33333 -1.288,0 -2.33333,-1.04533 -2.33333,-2.33333 0,-1.288 1.04533,-2.33334 2.33333,-2.33334 1.288,0 2.33334,1.04534 2.33334,2.33334 z"
   style="fill:#000000;fill-opacity:1;stroke:#000000;stroke-width:1.33333325;stroke-linecap:butt;stroke-linejoin:miter;stroke-miterlimit:4;stroke-dasharray:none;stroke-opacity:1"
   id="path34" /><path
   inkscape:connector-curvature="0"
   d="m 98.456005,19.910111 c 0,1.288 -1.044,2.333333 -2.33333,2.333333 -1.28933,0 -2.33333,-1.045333 -2.33333,-2.333333 0,-1.288 1.044,-2.333333 2.33333,-2.333333 1.28933,0 2.33333,1.045333 2.33333,2.333333 z"
   style="fill:#000000;fill-opacity:1;stroke:#000000;stroke-width:1.33333325;stroke-linecap:butt;stroke-linejoin:miter;stroke-miterlimit:4;stroke-dasharray:none;stroke-opacity:1"
   id="path30" /><path
   inkscape:connector-curvature="0"
   d="m 136.77867,30.000004 c 0,1.288 -1.04534,2.33333 -2.33334,2.33333 -1.288,0 -2.33333,-1.04533 -2.33333,-2.33333 0,-1.288 1.04533,-2.33333 2.33333,-2.33333 1.288,0 2.33334,1.04533 2.33334,2.33333 z"
   style="fill:#000000;fill-opacity:1;stroke:#000000;stroke-width:1.33333325;stroke-linecap:butt;stroke-linejoin:miter;stroke-miterlimit:4;stroke-dasharray:none;stroke-opacity:1"
   id="path38" /><path
   inkscape:connector-curvature="0"
   d="m 60.222665,30.333337 c 0,1.288 -1.045333,2.333334 -2.333333,2.333334 -1.289333,0 -2.333333,-1.045334 -2.333333,-2.333334 0,-1.288 1.044,-2.333333 2.333333,-2.333333 1.288,0 2.333333,1.045333 2.333333,2.333333 z"
   style="fill:#000000;stroke:#000000;stroke-width:1.33333325;stroke-linecap:butt;stroke-linejoin:miter;stroke-miterlimit:4;stroke-dasharray:none;stroke-opacity:1;fill-opacity:1"
   id="path22" /><path
   inkscape:connector-curvature="0"
   d="m 137.35602,162.59955 c 0,1.288 -1.044,2.332 -2.33333,2.332 -1.288,0 -2.33334,-1.044 -2.33334,-2.332 0,-1.28934 1.04534,-2.33334 2.33334,-2.33334 1.28933,0 2.33333,1.044 2.33333,2.33334 z"
   style="fill:#000000;fill-opacity:1;stroke:#000000;stroke-width:1.33333325;stroke-linecap:butt;stroke-linejoin:miter;stroke-miterlimit:4;stroke-dasharray:none;stroke-opacity:1"
   id="path26" /><path
   inkscape:connector-curvature="0"
   d="m 165.25545,134.45477 c 0,1.29066 -1.04534,2.33466 -2.33333,2.33466 -1.288,0 -2.33334,-1.044 -2.33334,-2.33466 0,-1.288 1.04534,-2.33334 2.33334,-2.33334 1.28799,0 2.33333,1.04534 2.33333,2.33334 z"
   style="fill:#000000;fill-opacity:1;stroke:#000000;stroke-width:1.33333325;stroke-linecap:butt;stroke-linejoin:miter;stroke-miterlimit:4;stroke-dasharray:none;stroke-opacity:1"
   id="path64" /><text
   style="font-variant:normal;font-weight:normal;font-stretch:normal;font-size:16px;font-family:Myriad;-inkscape-font-specification:Myriad-Roman;writing-mode:lr-tb;fill:#000000;fill-opacity:1;fill-rule:nonzero;stroke:none;stroke-width:1.33333325"
   id="text42"
   x="53.110664"
   y="25.777336"><tspan
     x="53.110664"
     y="25.777336"
     id="tspan40"
     style="stroke-width:1.33333325">A</tspan></text>


<text
   style="font-variant:normal;font-weight:normal;font-stretch:normal;font-size:16px;font-family:Myriad;-inkscape-font-specification:Myriad-Roman;writing-mode:lr-tb;fill:#000000;fill-opacity:1;fill-rule:nonzero;stroke:none;stroke-width:1.33333325"
   id="text46"
   x="90.776566"
   y="15.042227"><tspan
     x="90.776566"
     y="15.042227"
     id="tspan44"
     style="stroke-width:1.33333325">B</tspan></text>


<text
   style="font-variant:normal;font-weight:normal;font-stretch:normal;font-size:16px;font-family:Myriad;-inkscape-font-specification:Myriad-Roman;writing-mode:lr-tb;fill:#000000;fill-opacity:1;fill-rule:nonzero;stroke:none;stroke-width:1.33333325"
   id="text50"
   x="133.30978"
   y="25.605425"><tspan
     x="133.30978"
     y="25.605425"
     id="tspan48"
     style="stroke-width:1.33333325">C</tspan></text>


<text
   style="font-variant:normal;font-weight:normal;font-stretch:normal;font-size:16px;font-family:Myriad;-inkscape-font-specification:Myriad-Roman;writing-mode:lr-tb;fill:#000000;fill-opacity:1;fill-rule:nonzero;stroke:none;stroke-width:1.33333325"
   id="text54"
   x="164.00742"
   y="55.558182"><tspan
     x="164.00742"
     y="55.558182"
     id="tspan52"
     style="stroke-width:1.33333325">D</tspan></text>


<text
   style="font-variant:normal;font-weight:normal;font-stretch:normal;font-size:16px;font-family:Myriad;-inkscape-font-specification:Myriad-Roman;writing-mode:lr-tb;fill:#000000;fill-opacity:1;fill-rule:nonzero;stroke:none;stroke-width:1.33333325"
   id="text58"
   x="176.8744"
   y="102.02222"><tspan
     x="176.8744"
     y="102.02222"
     id="tspan56"
     style="stroke-width:1.33333325">E</tspan></text>


<text
   style="font-variant:normal;font-weight:normal;font-stretch:normal;font-size:16px;font-family:Myriad;-inkscape-font-specification:Myriad-Roman;writing-mode:lr-tb;fill:#000000;fill-opacity:1;fill-rule:nonzero;stroke:none;stroke-width:1.33333325"
   id="text70"
   x="167.40549"
   y="144.33798"><tspan
     x="167.40549"
     y="144.33798"
     id="tspan68"
     style="stroke-width:1.33333325">F</tspan></text>


<path
   inkscape:connector-curvature="0"
   d="m 175.34534,96.132777 c 0,1.288 -1.044,2.333333 -2.33333,2.333333 -1.28933,0 -2.33333,-1.045333 -2.33333,-2.333333 0,-1.288 1.044,-2.333333 2.33333,-2.333333 1.28933,0 2.33333,1.045333 2.33333,2.333333 z"
   style="fill:#000000;fill-opacity:1;stroke:#000000;stroke-width:1.33333325;stroke-linecap:butt;stroke-linejoin:miter;stroke-miterlimit:4;stroke-dasharray:none;stroke-opacity:1"
   id="path30-2" /><path
   inkscape:connector-curvature="0"
   d="m 99.122673,173.02211 c 0,1.288 -1.044001,2.33333 -2.333331,2.33333 -1.28933,0 -2.33333,-1.04533 -2.33333,-2.33333 0,-1.288 1.044,-2.33333 2.33333,-2.33333 1.28933,0 2.333331,1.04533 2.333331,2.33333 z"
   style="fill:#000000;fill-opacity:1;stroke:#000000;stroke-width:1.33333325;stroke-linecap:butt;stroke-linejoin:miter;stroke-miterlimit:4;stroke-dasharray:none;stroke-opacity:1"
   id="path30-4" /><path
   inkscape:connector-curvature="0"
   d="m 60.800015,162.93222 c 0,1.288 -1.044,2.33333 -2.33333,2.33333 -1.28933,0 -2.33333,-1.04533 -2.33333,-2.33333 0,-1.288 1.044,-2.33334 2.33333,-2.33334 1.28933,0 2.33333,1.04534 2.33333,2.33334 z"
   style="fill:#000000;fill-opacity:1;stroke:#000000;stroke-width:1.33333325;stroke-linecap:butt;stroke-linejoin:miter;stroke-miterlimit:4;stroke-dasharray:none;stroke-opacity:1"
   id="path30-0" /><path
   inkscape:connector-curvature="0"
   d="m 32.656566,135.03279 c 0,1.288 -1.044,2.33333 -2.33333,2.33333 -1.28933,0 -2.33333,-1.04533 -2.33333,-2.33333 0,-1.288 1.044,-2.33334 2.33333,-2.33334 1.28933,0 2.33333,1.04534 2.33333,2.33334 z"
   style="fill:#000000;fill-opacity:1;stroke:#000000;stroke-width:1.33333325;stroke-linecap:butt;stroke-linejoin:miter;stroke-miterlimit:4;stroke-dasharray:none;stroke-opacity:1"
   id="path30-7" /><path
   inkscape:connector-curvature="0"
   d="m 22.23334,96.799439 c 0,1.288 -1.044,2.33334 -2.33333,2.33334 -1.28933,0 -2.33333,-1.04534 -2.33333,-2.33334 0,-1.288 1.044,-2.33333 2.33333,-2.33333 1.28933,0 2.33333,1.04533 2.33333,2.33333 z"
   style="fill:#000000;fill-opacity:1;stroke:#000000;stroke-width:1.33333325;stroke-linecap:butt;stroke-linejoin:miter;stroke-miterlimit:4;stroke-dasharray:none;stroke-opacity:1"
   id="path30-9" /><path
   inkscape:connector-curvature="0"
   d="m 32.323232,58.476786 c 0,1.288 -1.044,2.333333 -2.33333,2.333333 -1.28933,0 -2.33333,-1.045333 -2.33333,-2.333333 0,-1.288 1.044,-2.333333 2.33333,-2.333333 1.28933,0 2.33333,1.045333 2.33333,2.333333 z"
   style="fill:#000000;fill-opacity:1;stroke:#000000;stroke-width:1.33333325;stroke-linecap:butt;stroke-linejoin:miter;stroke-miterlimit:4;stroke-dasharray:none;stroke-opacity:1"
   id="path30-1" /><text
   style="font-variant:normal;font-weight:normal;font-stretch:normal;font-size:16px;font-family:Myriad;-inkscape-font-specification:Myriad-Roman;writing-mode:lr-tb;fill:#000000;fill-opacity:1;fill-rule:nonzero;stroke:none;stroke-width:1.33333325"
   id="text70-3"
   x="138.32118"
   y="176.83455"><tspan
     x="138.32118"
     y="176.83455"
     id="tspan68-6"
     style="stroke-width:1.33333325">G</tspan></text>
<text
   style="font-variant:normal;font-weight:normal;font-stretch:normal;font-size:16px;font-family:Myriad;-inkscape-font-specification:Myriad-Roman;writing-mode:lr-tb;fill:#000000;fill-opacity:1;fill-rule:nonzero;stroke:none;stroke-width:1.33333325"
   id="text70-5"
   x="92.299316"
   y="189.49057"><tspan
     x="92.299316"
     y="189.49057"
     id="tspan68-4"
     style="stroke-width:1.33333325">H</tspan></text>
<text
   style="font-variant:normal;font-weight:normal;font-stretch:normal;font-size:16px;font-family:Myriad;-inkscape-font-specification:Myriad-Roman;writing-mode:lr-tb;fill:#000000;fill-opacity:1;fill-rule:nonzero;stroke:none;stroke-width:1.33333325"
   id="text70-8"
   x="46.277451"
   y="179.99857"><tspan
     x="46.277451"
     y="179.99857"
     id="tspan68-5"
     style="stroke-width:1.33333325">I</tspan></text>
<text
   style="font-variant:normal;font-weight:normal;font-stretch:normal;font-size:16px;font-family:Myriad;-inkscape-font-specification:Myriad-Roman;writing-mode:lr-tb;fill:#000000;fill-opacity:1;fill-rule:nonzero;stroke:none;stroke-width:1.33333325"
   id="text70-35"
   x="16.0756"
   y="147.49562"><tspan
     x="16.0756"
     y="147.49562"
     id="tspan68-42"
     style="stroke-width:1.33333325">J</tspan></text>
<text
   style="font-variant:normal;font-weight:normal;font-stretch:normal;font-size:16px;font-family:Myriad;-inkscape-font-specification:Myriad-Roman;writing-mode:lr-tb;fill:#000000;fill-opacity:1;fill-rule:nonzero;stroke:none;stroke-width:1.33333325"
   id="text70-6"
   x="6.8712277"
   y="102.6243"><tspan
     x="6.8712277"
     y="102.6243"
     id="tspan68-1"
     style="stroke-width:1.33333325">K</tspan></text>
<text
   style="font-variant:normal;font-weight:normal;font-stretch:normal;font-size:16px;font-family:Myriad;-inkscape-font-specification:Myriad-Roman;writing-mode:lr-tb;fill:#000000;fill-opacity:1;fill-rule:nonzero;stroke:none;stroke-width:1.33333325"
   id="text70-87"
   x="17.226147"
   y="57.465343"><tspan
     x="17.226147"
     y="57.465343"
     id="tspan68-47"
     style="stroke-width:1.33333325">L</tspan></text>
<path
   style="fill:none;stroke:#000000;stroke-width:1px;stroke-linecap:butt;stroke-linejoin:miter;stroke-opacity:1"
   d="M 96.122675,19.910111 162.58879,57.899436 57.889332,30.333337 173.01201,96.132777 Z"
   id="path942"
   inkscape:connector-curvature="0" /><path
   style="fill:none;stroke:#000000;stroke-width:1px;stroke-linecap:butt;stroke-linejoin:miter;stroke-opacity:1"
   d="M 135.02268,162.59888 19.90001,96.799444 96.789342,173.02211 30.323236,135.03278 Z"
   id="path944"
   inkscape:connector-curvature="0" /><path
   style="fill:none;stroke:#000000;stroke-width:1px;stroke-linecap:butt;stroke-linejoin:miter;stroke-opacity:1"
   d="M 29.989902,58.476786 134.44534,30.000004 162.92212,134.45543 58.466685,162.93222 Z"
   id="path946"
   inkscape:connector-curvature="0" /><path
   style="fill:none;stroke:#000000;stroke-width:1px;stroke-linecap:butt;stroke-linejoin:miter;stroke-opacity:1"
   d="M 29.989902,58.476786 162.92212,134.45543"
   id="path948"
   inkscape:connector-curvature="0" /><path
   style="fill:none;stroke:#000000;stroke-width:1px;stroke-linecap:butt;stroke-linejoin:miter;stroke-opacity:1"
   d="M 134.44534,30.000004 58.466685,162.93222"
   id="path950"
   inkscape:connector-curvature="0" /></svg>