<?xml version="1.0" encoding="UTF-8" standalone="no"?>
<svg
   xmlns:dc="http://purl.org/dc/elements/1.1/"
   xmlns:cc="http://creativecommons.org/ns#"
   xmlns:rdf="http://www.w3.org/1999/02/22-rdf-syntax-ns#"
   xmlns:svg="http://www.w3.org/2000/svg"
   xmlns="http://www.w3.org/2000/svg"
   xmlns:sodipodi="http://sodipodi.sourceforge.net/DTD/sodipodi-0.dtd"
   xmlns:inkscape="http://www.inkscape.org/namespaces/inkscape"
   viewBox="0 0 130 100"
   height="100"
   width="130"
   xml:space="preserve"
   id="svg2"
   version="1.1"
   sodipodi:docname="graph_bowtie_complement.svg"
   inkscape:version="0.92.3 (2405546, 2018-03-11)"><sodipodi:namedview
   pagecolor="#ffffff"
   bordercolor="#666666"
   borderopacity="1"
   objecttolerance="10"
   gridtolerance="10"
   guidetolerance="10"
   inkscape:pageopacity="0"
   inkscape:pageshadow="2"
   inkscape:window-width="1920"
   inkscape:window-height="1017"
   id="namedview36"
   showgrid="false"
   inkscape:snap-object-midpoints="true"
   inkscape:zoom="3.4766084"
   inkscape:cx="6.1421537"
   inkscape:cy="96"
   inkscape:window-x="1672"
   inkscape:window-y="-8"
   inkscape:window-maximized="1"
   inkscape:current-layer="svg2" /><metadata
   id="metadata8"><rdf:RDF><cc:Work
       rdf:about=""><dc:format>image/svg+xml</dc:format><dc:type
         rdf:resource="http://purl.org/dc/dcmitype/StillImage" /><dc:title></dc:title></cc:Work></rdf:RDF></metadata><defs
   id="defs6">





</defs><path
   inkscape:connector-curvature="0"
   d="m 124.65299,23.426767 c 0,1.288 -1.04534,2.33333 -2.33334,2.33333 -1.288,0 -2.33333,-1.04533 -2.33333,-2.33333 0,-1.288 1.04533,-2.33334 2.33333,-2.33334 1.288,0 2.33334,1.04534 2.33334,2.33334 z"
   style="fill:#000000;fill-opacity:1;stroke:#000000;stroke-width:1.33333325;stroke-linecap:butt;stroke-linejoin:miter;stroke-miterlimit:4;stroke-dasharray:none;stroke-opacity:1"
   id="path34" /><path
   inkscape:connector-curvature="0"
   d="m 11.324435,75.754307 c 0,1.288 -1.044,2.33333 -2.3333304,2.33333 -1.28933,0 -2.33333,-1.04533 -2.33333,-2.33333 0,-1.288 1.044,-2.33334 2.33333,-2.33334 1.2893304,0 2.3333304,1.04534 2.3333304,2.33334 z"
   style="fill:#000000;fill-opacity:1;stroke:#000000;stroke-width:1.33333325;stroke-linecap:butt;stroke-linejoin:miter;stroke-miterlimit:4;stroke-dasharray:none;stroke-opacity:1"
   id="path30" /><path
   inkscape:connector-curvature="0"
   d="m 67.988714,49.590527 c 0,1.288 -1.04534,2.33334 -2.33334,2.33334 -1.288,0 -2.33333,-1.04534 -2.33333,-2.33334 0,-1.288 1.04533,-2.33333 2.33333,-2.33333 1.288,0 2.33334,1.04533 2.33334,2.33333 z"
   style="fill:#000000;fill-opacity:1;stroke:#000000;stroke-width:1.33333325;stroke-linecap:butt;stroke-linejoin:miter;stroke-miterlimit:4;stroke-dasharray:none;stroke-opacity:1"
   id="path38" /><path
   inkscape:connector-curvature="0"
   d="m 11.324435,23.426767 c 0,1.288 -1.045333,2.33333 -2.3333334,2.33333 -1.289333,0 -2.333333,-1.04533 -2.333333,-2.33333 0,-1.288 1.044,-2.33334 2.333333,-2.33334 1.2880004,0 2.3333334,1.04534 2.3333334,2.33334 z"
   style="fill:#000000;fill-opacity:1;stroke:#000000;stroke-width:1.33333325;stroke-linecap:butt;stroke-linejoin:miter;stroke-miterlimit:4;stroke-dasharray:none;stroke-opacity:1"
   id="path22" /><text
   style="font-variant:normal;font-weight:normal;font-stretch:normal;font-size:16px;font-family:Myriad;-inkscape-font-specification:Myriad-Roman;writing-mode:lr-tb;fill:#000000;fill-opacity:1;fill-rule:nonzero;stroke:none;stroke-width:1.33333325"
   id="text42"
   x="3.3495238"
   y="15.753785"><tspan
     x="3.3495238"
     y="15.753785"
     id="tspan40"
     style="stroke-width:1.33333325">A</tspan></text>



<text
   style="font-variant:normal;font-weight:normal;font-stretch:normal;font-size:16px;font-family:Myriad;-inkscape-font-specification:Myriad-Roman;writing-mode:lr-tb;fill:#000000;fill-opacity:1;fill-rule:nonzero;stroke:none;stroke-width:1.33333325"
   id="text46"
   x="3.6226599"
   y="94.587379"><tspan
     x="3.6226599"
     y="94.587379"
     id="tspan44"
     style="stroke-width:1.33333325">B</tspan></text>



<text
   style="font-variant:normal;font-weight:normal;font-stretch:normal;font-size:16px;font-family:Myriad;-inkscape-font-specification:Myriad-Roman;writing-mode:lr-tb;fill:#000000;fill-opacity:1;fill-rule:nonzero;stroke:none;stroke-width:1.33333325"
   id="text50"
   x="59.674801"
   y="37.442253"><tspan
     x="59.674801"
     y="37.442253"
     id="tspan48"
     style="stroke-width:1.33333325">C</tspan></text>



<text
   style="font-variant:normal;font-weight:normal;font-stretch:normal;font-size:16px;font-family:Myriad;-inkscape-font-specification:Myriad-Roman;writing-mode:lr-tb;fill:#000000;fill-opacity:1;fill-rule:nonzero;stroke:none;stroke-width:1.33333325"
   id="text54"
   x="115.9721"
   y="15.753785"><tspan
     x="115.9721"
     y="15.753785"
     id="tspan52"
     style="stroke-width:1.33333325">D</tspan></text>



<text
   style="font-variant:normal;font-weight:normal;font-stretch:normal;font-size:16px;font-family:Myriad;-inkscape-font-specification:Myriad-Roman;writing-mode:lr-tb;fill:#000000;fill-opacity:1;fill-rule:nonzero;stroke:none;stroke-width:1.33333325"
   id="text58"
   x="117.04599"
   y="94.587379"><tspan
     x="117.04599"
     y="94.587379"
     id="tspan56"
     style="stroke-width:1.33333325">E</tspan></text>






<path
   inkscape:connector-curvature="0"
   d="m 124.65298,75.754307 c 0,1.288 -1.044,2.33333 -2.33333,2.33333 -1.28933,0 -2.33333,-1.04533 -2.33333,-2.33333 0,-1.288 1.044,-2.33333 2.33333,-2.33333 1.28933,0 2.33333,1.04533 2.33333,2.33333 z"
   style="fill:#000000;fill-opacity:1;stroke:#000000;stroke-width:1.33333325;stroke-linecap:butt;stroke-linejoin:miter;stroke-miterlimit:4;stroke-dasharray:none;stroke-opacity:1"
   id="path30-2" />





<path
   style="fill:none;stroke:#000000;stroke-width:1px;stroke-linecap:butt;stroke-linejoin:miter;stroke-opacity:1"
   d="m 8.9911018,23.426757 113.3285582,5e-6"
   id="path855"
   inkscape:connector-curvature="0" /><path
   style="fill:none;stroke:#000000;stroke-width:1px;stroke-linecap:butt;stroke-linejoin:miter;stroke-opacity:1"
   d="m 8.9911048,75.754302 113.3285452,5e-6"
   id="path857"
   inkscape:connector-curvature="0" /><path
   style="fill:none;stroke:#000000;stroke-width:1px;stroke-linecap:butt;stroke-linejoin:miter;stroke-opacity:1"
   d="m 8.9911018,23.426757 c 0,0 79.7491332,15.713481 113.3285482,52.32755"
   id="path859"
   inkscape:connector-curvature="0" /><path
   style="fill:none;stroke:#000000;stroke-width:1px;stroke-linecap:butt;stroke-linejoin:miter;stroke-opacity:1"
   d="m 8.9911048,75.754297 c 0,0 83.7760432,-17.297762 113.3285452,-52.32754"
   id="path861"
   inkscape:connector-curvature="0" /></svg>