<?xml version="1.0" encoding="UTF-8" standalone="no"?>
<svg
   xmlns:dc="http://purl.org/dc/elements/1.1/"
   xmlns:cc="http://creativecommons.org/ns#"
   xmlns:rdf="http://www.w3.org/1999/02/22-rdf-syntax-ns#"
   xmlns:svg="http://www.w3.org/2000/svg"
   xmlns="http://www.w3.org/2000/svg"
   xmlns:sodipodi="http://sodipodi.sourceforge.net/DTD/sodipodi-0.dtd"
   xmlns:inkscape="http://www.inkscape.org/namespaces/inkscape"
   viewBox="0 0 192 192"
   height="192"
   width="192"
   xml:space="preserve"
   id="svg2"
   version="1.1"
   sodipodi:docname="Graph13.svg"
   inkscape:version="0.92.3 (2405546, 2018-03-11)"><sodipodi:namedview
   pagecolor="#ffffff"
   bordercolor="#666666"
   borderopacity="1"
   objecttolerance="10"
   gridtolerance="10"
   guidetolerance="10"
   inkscape:pageopacity="0"
   inkscape:pageshadow="2"
   inkscape:window-width="2560"
   inkscape:window-height="1346"
   id="namedview53"
   showgrid="false"
   inkscape:zoom="4.9166667"
   inkscape:cx="54.305085"
   inkscape:cy="96"
   inkscape:window-x="-11"
   inkscape:window-y="-11"
   inkscape:window-maximized="1"
   inkscape:current-layer="svg2" /><metadata
   id="metadata8"><rdf:RDF><cc:Work
       rdf:about=""><dc:format>image/svg+xml</dc:format><dc:type
         rdf:resource="http://purl.org/dc/dcmitype/StillImage" /><dc:title></dc:title></cc:Work></rdf:RDF></metadata><defs
   id="defs6">







</defs><path
   inkscape:connector-curvature="0"
   d="m 29.397333,27.210671 c 0,1.289333 -1.044,2.334666 -2.333334,2.334666 -1.286666,0 -2.333333,-1.045333 -2.333333,-2.334666 0,-1.288 1.046667,-2.333333 2.333333,-2.333333 1.289334,0 2.333334,1.045333 2.333334,2.333333"
   style="fill:#000000;fill-opacity:1;fill-rule:nonzero;stroke:none;stroke-width:1.33333325"
   id="path20" /><path
   inkscape:connector-curvature="0"
   d="m 29.397333,27.210671 c 0,1.289333 -1.044,2.334666 -2.333334,2.334666 -1.286666,0 -2.333333,-1.045333 -2.333333,-2.334666 0,-1.288 1.046667,-2.333333 2.333333,-2.333333 1.289334,0 2.333334,1.045333 2.333334,2.333333 z"
   style="fill:none;stroke:#000000;stroke-width:1.33333325;stroke-linecap:butt;stroke-linejoin:miter;stroke-miterlimit:4;stroke-dasharray:none;stroke-opacity:1"
   id="path22" /><path
   inkscape:connector-curvature="0"
   d="m 143.00266,161.38533 c 0,1.28934 -1.044,2.33334 -2.33333,2.33334 -1.288,0 -2.33333,-1.044 -2.33333,-2.33334 0,-1.28933 1.04533,-2.33333 2.33333,-2.33333 1.28933,0 2.33333,1.044 2.33333,2.33333"
   style="fill:#000000;fill-opacity:1;fill-rule:nonzero;stroke:none;stroke-width:1.33333325"
   id="path24" /><path
   inkscape:connector-curvature="0"
   d="m 143.00266,161.38533 c 0,1.28934 -1.044,2.33334 -2.33333,2.33334 -1.288,0 -2.33333,-1.044 -2.33333,-2.33334 0,-1.28933 1.04533,-2.33333 2.33333,-2.33333 1.28933,0 2.33333,1.044 2.33333,2.33333 z"
   style="fill:none;stroke:#000000;stroke-width:1.33333325;stroke-linecap:butt;stroke-linejoin:miter;stroke-miterlimit:4;stroke-dasharray:none;stroke-opacity:1"
   id="path26" /><path
   inkscape:connector-curvature="0"
   d="m 143.00266,72.012003 c 0,1.288 -1.044,2.333333 -2.33333,2.333333 -1.288,0 -2.33333,-1.045333 -2.33333,-2.333333 0,-1.289333 1.04533,-2.333333 2.33333,-2.333333 1.28933,0 2.33333,1.044 2.33333,2.333333"
   style="fill:#000000;fill-opacity:1;fill-rule:nonzero;stroke:none;stroke-width:1.33333325"
   id="path28" /><path
   inkscape:connector-curvature="0"
   d="m 143.00266,72.012003 c 0,1.288 -1.044,2.333333 -2.33333,2.333333 -1.288,0 -2.33333,-1.045333 -2.33333,-2.333333 0,-1.289333 1.04533,-2.333333 2.33333,-2.333333 1.28933,0 2.33333,1.044 2.33333,2.333333 z"
   style="fill:none;stroke:#000000;stroke-width:1.33333325;stroke-linecap:butt;stroke-linejoin:miter;stroke-miterlimit:4;stroke-dasharray:none;stroke-opacity:1"
   id="path30" /><path
   inkscape:connector-curvature="0"
   d="m 143.00266,27.210671 c 0,1.289333 -1.044,2.334666 -2.33333,2.334666 -1.288,0 -2.33333,-1.045333 -2.33333,-2.334666 0,-1.288 1.04533,-2.333333 2.33333,-2.333333 1.28933,0 2.33333,1.045333 2.33333,2.333333"
   style="fill:#000000;fill-opacity:1;fill-rule:nonzero;stroke:none;stroke-width:1.33333325"
   id="path32" /><path
   inkscape:connector-curvature="0"
   d="m 143.00266,27.210671 c 0,1.289333 -1.044,2.334666 -2.33333,2.334666 -1.288,0 -2.33333,-1.045333 -2.33333,-2.334666 0,-1.288 1.04533,-2.333333 2.33333,-2.333333 1.28933,0 2.33333,1.045333 2.33333,2.333333 z"
   style="fill:none;stroke:#000000;stroke-width:1.33333325;stroke-linecap:butt;stroke-linejoin:miter;stroke-miterlimit:4;stroke-dasharray:none;stroke-opacity:1"
   id="path34" /><path
   inkscape:connector-curvature="0"
   d="m 29.397333,161.38533 c 0,1.28934 -1.044,2.33334 -2.333334,2.33334 -1.286666,0 -2.333333,-1.044 -2.333333,-2.33334 0,-1.28933 1.046667,-2.33333 2.333333,-2.33333 1.289334,0 2.333334,1.044 2.333334,2.33333"
   style="fill:#000000;fill-opacity:1;fill-rule:nonzero;stroke:none;stroke-width:1.33333325"
   id="path36" /><path
   inkscape:connector-curvature="0"
   d="m 29.397333,161.38533 c 0,1.28934 -1.044,2.33334 -2.333334,2.33334 -1.286666,0 -2.333333,-1.044 -2.333333,-2.33334 0,-1.28933 1.046667,-2.33333 2.333333,-2.33333 1.289334,0 2.333334,1.044 2.333334,2.33333 z"
   style="fill:none;stroke:#000000;stroke-width:1.33333325;stroke-linecap:butt;stroke-linejoin:miter;stroke-miterlimit:4;stroke-dasharray:none;stroke-opacity:1"
   id="path38" /><path
   inkscape:connector-curvature="0"
   d="m 29.397333,72.012003 c 0,1.288 -1.044,2.333333 -2.333334,2.333333 -1.286666,0 -2.333333,-1.045333 -2.333333,-2.333333 0,-1.289333 1.046667,-2.333333 2.333333,-2.333333 1.289334,0 2.333334,1.044 2.333334,2.333333"
   style="fill:#000000;fill-opacity:1;fill-rule:nonzero;stroke:none;stroke-width:1.33333325"
   id="path40" /><path
   inkscape:connector-curvature="0"
   d="m 29.397333,72.012003 c 0,1.288 -1.044,2.333333 -2.333334,2.333333 -1.286666,0 -2.333333,-1.045333 -2.333333,-2.333333 0,-1.289333 1.046667,-2.333333 2.333333,-2.333333 1.289334,0 2.333334,1.044 2.333334,2.333333 z"
   style="fill:none;stroke:#000000;stroke-width:1.33333325;stroke-linecap:butt;stroke-linejoin:miter;stroke-miterlimit:4;stroke-dasharray:none;stroke-opacity:1"
   id="path42" /><path
   inkscape:connector-curvature="0"
   d="m 143.00266,116.78934 c 0,1.28933 -1.044,2.33466 -2.33333,2.33466 -1.28667,0 -2.33333,-1.04533 -2.33333,-2.33466 0,-1.288 1.04666,-2.33334 2.33333,-2.33334 1.28933,0 2.33333,1.04534 2.33333,2.33334"
   style="fill:#000000;fill-opacity:1;fill-rule:nonzero;stroke:none;stroke-width:1.33333325"
   id="path44" /><path
   inkscape:connector-curvature="0"
   d="m 143.00266,116.78934 c 0,1.28933 -1.044,2.33466 -2.33333,2.33466 -1.28667,0 -2.33333,-1.04533 -2.33333,-2.33466 0,-1.288 1.04666,-2.33334 2.33333,-2.33334 1.28933,0 2.33333,1.04534 2.33333,2.33334 z"
   style="fill:none;stroke:#000000;stroke-width:1.33333325;stroke-linecap:butt;stroke-linejoin:miter;stroke-miterlimit:4;stroke-dasharray:none;stroke-opacity:1"
   id="path46" /><path
   inkscape:connector-curvature="0"
   d="m 29.397333,116.78934 c 0,1.288 -1.044,2.33466 -2.333334,2.33466 -1.286666,0 -2.333333,-1.04666 -2.333333,-2.33466 0,-1.288 1.046667,-2.33334 2.333333,-2.33334 1.289334,0 2.333334,1.04534 2.333334,2.33334"
   style="fill:#000000;fill-opacity:1;fill-rule:nonzero;stroke:none;stroke-width:1.33333325"
   id="path48" /><path
   inkscape:connector-curvature="0"
   d="m 29.397333,116.78934 c 0,1.288 -1.044,2.33466 -2.333334,2.33466 -1.286666,0 -2.333333,-1.04666 -2.333333,-2.33466 0,-1.288 1.046667,-2.33334 2.333333,-2.33334 1.289334,0 2.333334,1.04534 2.333334,2.33334 z"
   style="fill:none;stroke:#000000;stroke-width:1.33333325;stroke-linecap:butt;stroke-linejoin:miter;stroke-miterlimit:4;stroke-dasharray:none;stroke-opacity:1"
   id="path50" /><path
   inkscape:connector-curvature="0"
   d="M 26.494666,26.984004 140.66933,27.210671"
   style="fill:none;stroke:#000000;stroke-width:1.33333325;stroke-linecap:butt;stroke-linejoin:miter;stroke-miterlimit:4;stroke-dasharray:none;stroke-opacity:1"
   id="path52" /><path
   inkscape:connector-curvature="0"
   d="M 140.66933,72.012003 26.494666,72.33467"
   style="fill:none;stroke:#000000;stroke-width:1.33333325;stroke-linecap:butt;stroke-linejoin:miter;stroke-miterlimit:4;stroke-dasharray:none;stroke-opacity:1"
   id="path56" /><path
   inkscape:connector-curvature="0"
   d="M 27.063999,116.78934 139.64533,26.530671"
   style="fill:none;stroke:#000000;stroke-width:1.33333325;stroke-linecap:butt;stroke-linejoin:miter;stroke-miterlimit:4;stroke-dasharray:none;stroke-opacity:1"
   id="path58" /><path
   inkscape:connector-curvature="0"
   d="M 140.66933,72.012003 26.494666,116.55334"
   style="fill:none;stroke:#000000;stroke-width:1.33333325;stroke-linecap:butt;stroke-linejoin:miter;stroke-miterlimit:4;stroke-dasharray:none;stroke-opacity:1"
   id="path60" /><path
   inkscape:connector-curvature="0"
   d="m 140.66933,116.78934 -114.174664,-0.236"
   style="fill:none;stroke:#000000;stroke-width:1.33333325;stroke-linecap:butt;stroke-linejoin:miter;stroke-miterlimit:4;stroke-dasharray:none;stroke-opacity:1"
   id="path62" /><path
   inkscape:connector-curvature="0"
   d="M 26.041333,161.224 139.64533,26.530671"
   style="fill:none;stroke:#000000;stroke-width:1.33333325;stroke-linecap:butt;stroke-linejoin:miter;stroke-miterlimit:4;stroke-dasharray:none;stroke-opacity:1"
   id="path64" /><path
   inkscape:connector-curvature="0"
   d="M 140.66933,72.012003 27.063999,161.38533"
   style="fill:none;stroke:#000000;stroke-width:1.33333325;stroke-linecap:butt;stroke-linejoin:miter;stroke-miterlimit:4;stroke-dasharray:none;stroke-opacity:1"
   id="path66" /><path
   inkscape:connector-curvature="0"
   d="m 140.66933,161.38533 v 0"
   style="fill:none;stroke:#000000;stroke-width:1.33333325;stroke-linecap:butt;stroke-linejoin:miter;stroke-miterlimit:4;stroke-dasharray:none;stroke-opacity:1"
   id="path70" /><path
   inkscape:connector-curvature="0"
   d="M 140.66933,161.38533 26.494666,161.67867"
   style="fill:none;stroke:#000000;stroke-width:1.33333325;stroke-linecap:butt;stroke-linejoin:miter;stroke-miterlimit:4;stroke-dasharray:none;stroke-opacity:1"
   id="path72" /><text
   style="font-variant:normal;font-weight:normal;font-stretch:normal;font-size:16px;font-family:Myriad;-inkscape-font-specification:Myriad-Roman;writing-mode:lr-tb;fill:#000000;fill-opacity:1;fill-rule:nonzero;stroke:none;stroke-width:1.33333325"
   id="text76"
   x="10.118533"
   y="32.266937"><tspan
     x="10.118533"
     y="32.266937"
     id="tspan74"
     style="stroke-width:1.33333325">A</tspan></text>

<text
   style="font-variant:normal;font-weight:normal;font-stretch:normal;font-size:16px;font-family:Myriad;-inkscape-font-specification:Myriad-Roman;writing-mode:lr-tb;fill:#000000;fill-opacity:1;fill-rule:nonzero;stroke:none;stroke-width:1.33333325"
   id="text80"
   x="10.6784"
   y="77.423866"><tspan
     x="10.6784"
     y="77.423866"
     id="tspan78"
     style="stroke-width:1.33333325">B</tspan></text>

<text
   style="font-variant:normal;font-weight:normal;font-stretch:normal;font-size:16px;font-family:Myriad;-inkscape-font-specification:Myriad-Roman;writing-mode:lr-tb;fill:#000000;fill-opacity:1;fill-rule:nonzero;stroke:none;stroke-width:1.33333325"
   id="text84"
   x="10.374933"
   y="122.22787"><tspan
     x="10.374933"
     y="122.22787"
     id="tspan82"
     style="stroke-width:1.33333325">C</tspan></text>

<text
   style="font-variant:normal;font-weight:normal;font-stretch:normal;font-size:16px;font-family:Myriad;-inkscape-font-specification:Myriad-Roman;writing-mode:lr-tb;fill:#000000;fill-opacity:1;fill-rule:nonzero;stroke:none;stroke-width:1.33333325"
   id="text88"
   x="9.6861334"
   y="167.02733"><tspan
     x="9.6861334"
     y="167.02733"
     id="tspan86"
     style="stroke-width:1.33333325">D</tspan></text>

<text
   style="font-variant:normal;font-weight:normal;font-stretch:normal;font-size:16px;font-family:Myriad;-inkscape-font-specification:Myriad-Roman;writing-mode:lr-tb;fill:#000000;fill-opacity:1;fill-rule:nonzero;stroke:none;stroke-width:1.33333325"
   id="text92"
   x="147.02013"
   y="167.02667"><tspan
     x="147.02013"
     y="167.02667"
     id="tspan90"
     style="stroke-width:1.33333325">E</tspan></text>

<text
   style="font-variant:normal;font-weight:normal;font-stretch:normal;font-size:16px;font-family:Myriad;-inkscape-font-specification:Myriad-Roman;writing-mode:lr-tb;fill:#000000;fill-opacity:1;fill-rule:nonzero;stroke:none;stroke-width:1.33333325"
   id="text96"
   x="147.06053"
   y="122.22787"><tspan
     x="147.06053"
     y="122.22787"
     id="tspan94"
     style="stroke-width:1.33333325">F</tspan></text>

<text
   style="font-variant:normal;font-weight:normal;font-stretch:normal;font-size:16px;font-family:Myriad;-inkscape-font-specification:Myriad-Roman;writing-mode:lr-tb;fill:#000000;fill-opacity:1;fill-rule:nonzero;stroke:none;stroke-width:1.33333325"
   id="text100"
   x="145.78841"
   y="77.424538"><tspan
     x="145.78841"
     y="77.424538"
     id="tspan98"
     style="stroke-width:1.33333325">G</tspan></text>

<text
   style="font-variant:normal;font-weight:normal;font-stretch:normal;font-size:16px;font-family:Myriad;-inkscape-font-specification:Myriad-Roman;writing-mode:lr-tb;fill:#000000;fill-opacity:1;fill-rule:nonzero;stroke:none;stroke-width:1.33333325"
   id="text104"
   x="145.74026"
   y="32.266937"><tspan
     x="145.74026"
     y="32.266937"
     id="tspan102"
     style="stroke-width:1.33333325">H</tspan></text>

</svg>