<?xml version="1.0" encoding="UTF-8" standalone="no"?>
<svg
   xmlns:dc="http://purl.org/dc/elements/1.1/"
   xmlns:cc="http://creativecommons.org/ns#"
   xmlns:rdf="http://www.w3.org/1999/02/22-rdf-syntax-ns#"
   xmlns:svg="http://www.w3.org/2000/svg"
   xmlns="http://www.w3.org/2000/svg"
   xmlns:sodipodi="http://sodipodi.sourceforge.net/DTD/sodipodi-0.dtd"
   xmlns:inkscape="http://www.inkscape.org/namespaces/inkscape"
   viewBox="0 0 192 192"
   height="192"
   width="192"
   xml:space="preserve"
   id="svg2"
   version="1.1"
   sodipodi:docname="Graph3b.svg"
   inkscape:version="0.92.3 (2405546, 2018-03-11)"><sodipodi:namedview
     pagecolor="#ffffff"
     bordercolor="#666666"
     borderopacity="1"
     objecttolerance="10"
     gridtolerance="10"
     guidetolerance="10"
     inkscape:pageopacity="0"
     inkscape:pageshadow="2"
     inkscape:window-width="2560"
     inkscape:window-height="1346"
     id="namedview36"
     showgrid="false"
     inkscape:snap-object-midpoints="true"
     inkscape:zoom="4.9166667"
     inkscape:cx="96"
     inkscape:cy="96"
     inkscape:window-x="-11"
     inkscape:window-y="-11"
     inkscape:window-maximized="1"
     inkscape:current-layer="svg2" /><metadata
     id="metadata8"><rdf:RDF><cc:Work
         rdf:about=""><dc:format>image/svg+xml</dc:format><dc:type
           rdf:resource="http://purl.org/dc/dcmitype/StillImage" /><dc:title></dc:title></cc:Work></rdf:RDF></metadata><defs
     id="defs6">





</defs><path
     inkscape:connector-curvature="0"
     d="m 57.643995,30.000004 h 76.801335 m 0,133.021326 H 57.643995"
     style="fill:none;stroke:#000000;stroke-width:1;stroke-linecap:butt;stroke-linejoin:miter;stroke-miterlimit:4;stroke-dasharray:none;stroke-opacity:1"
     id="path60"
     sodipodi:nodetypes="cccc" /><path
     style="fill:none;stroke:#000000;stroke-width:1px;stroke-linecap:butt;stroke-linejoin:miter;stroke-opacity:1"
     d="M 57.822665,30.156004 57.666665,163.444"
     id="path4629"
     inkscape:connector-curvature="0"
     sodipodi:nodetypes="cc" /><path
     inkscape:connector-curvature="0"
     d="m 60.222665,30.333337 c 0,1.288 -1.045333,2.333334 -2.333333,2.333334 -1.289333,0 -2.333333,-1.045334 -2.333333,-2.333334 0,-1.288 1.044,-2.333333 2.333333,-2.333333 1.288,0 2.333333,1.045333 2.333333,2.333333"
     style="fill:#000000;fill-opacity:1;fill-rule:nonzero;stroke:none;stroke-width:1.33333325"
     id="path20" /><path
     inkscape:connector-curvature="0"
     d="m 60.222665,30.333337 c 0,1.288 -1.045333,2.333334 -2.333333,2.333334 -1.289333,0 -2.333333,-1.045334 -2.333333,-2.333334 0,-1.288 1.044,-2.333333 2.333333,-2.333333 1.288,0 2.333333,1.045333 2.333333,2.333333 z"
     style="fill:none;stroke:#000000;stroke-width:1.33333325;stroke-linecap:butt;stroke-linejoin:miter;stroke-miterlimit:4;stroke-dasharray:none;stroke-opacity:1"
     id="path22" /><path
     inkscape:connector-curvature="0"
     d="m 99.167332,119.07445 c 0,1.288 -1.044,2.332 -2.33333,2.332 -1.288,0 -2.33334,-1.044 -2.33334,-2.332 0,-1.28934 1.04534,-2.33334 2.33334,-2.33334 1.28933,0 2.33333,1.044 2.33333,2.33334"
     style="fill:#000000;fill-opacity:1;fill-rule:nonzero;stroke:none;stroke-width:1.33333325"
     id="path24" /><path
     inkscape:connector-curvature="0"
     d="m 98.500665,119.07445 c 0,1.288 -1.044,2.332 -2.33333,2.332 -1.288,0 -2.33334,-1.044 -2.33334,-2.332 0,-1.28934 1.04534,-2.33334 2.33334,-2.33334 1.28933,0 2.33333,1.044 2.33333,2.33334 z"
     style="fill:none;stroke:#000000;stroke-width:1.33333325;stroke-linecap:butt;stroke-linejoin:miter;stroke-miterlimit:4;stroke-dasharray:none;stroke-opacity:1"
     id="path26" /><path
     inkscape:connector-curvature="0"
     d="m 136.77866,30.000004 c 0,1.288 -1.044,2.333333 -2.33333,2.333333 -1.28933,0 -2.33333,-1.045333 -2.33333,-2.333333 0,-1.288 1.044,-2.333333 2.33333,-2.333333 1.28933,0 2.33333,1.045333 2.33333,2.333333"
     style="fill:#000000;fill-opacity:1;fill-rule:nonzero;stroke:none;stroke-width:1.33333325"
     id="path28" /><path
     inkscape:connector-curvature="0"
     d="m 136.77866,30.000004 c 0,1.288 -1.044,2.333333 -2.33333,2.333333 -1.28933,0 -2.33333,-1.045333 -2.33333,-2.333333 0,-1.288 1.044,-2.333333 2.33333,-2.333333 1.28933,0 2.33333,1.045333 2.33333,2.333333 z"
     style="fill:none;stroke:#000000;stroke-width:1.33333325;stroke-linecap:butt;stroke-linejoin:miter;stroke-miterlimit:4;stroke-dasharray:none;stroke-opacity:1"
     id="path30" /><path
     inkscape:connector-curvature="0"
     d="m 136.444,163.22267 c 0,1.288 -1.04534,2.33333 -2.33334,2.33333 -1.288,0 -2.33333,-1.04533 -2.33333,-2.33333 0,-1.288 1.04533,-2.33334 2.33333,-2.33334 1.288,0 2.33334,1.04534 2.33334,2.33334"
     style="fill:#000000;fill-opacity:1;fill-rule:nonzero;stroke:none;stroke-width:1.33333325"
     id="path32" /><path
     inkscape:connector-curvature="0"
     d="m 136.444,163.22267 c 0,1.288 -1.04534,2.33333 -2.33334,2.33333 -1.288,0 -2.33333,-1.04533 -2.33333,-2.33333 0,-1.288 1.04533,-2.33334 2.33333,-2.33334 1.288,0 2.33334,1.04534 2.33334,2.33334 z"
     style="fill:none;stroke:#000000;stroke-width:1.33333325;stroke-linecap:butt;stroke-linejoin:miter;stroke-miterlimit:4;stroke-dasharray:none;stroke-opacity:1"
     id="path34" /><path
     inkscape:connector-curvature="0"
     d="m 59.999999,163.444 c 0,1.288 -1.045334,2.33333 -2.333334,2.33333 -1.288,0 -2.333333,-1.04533 -2.333333,-2.33333 0,-1.288 1.045333,-2.33333 2.333333,-2.33333 1.288,0 2.333334,1.04533 2.333334,2.33333"
     style="fill:#000000;fill-opacity:1;fill-rule:nonzero;stroke:none;stroke-width:1.33333325"
     id="path36" /><path
     inkscape:connector-curvature="0"
     d="m 59.999999,163.444 c 0,1.288 -1.045334,2.33333 -2.333334,2.33333 -1.288,0 -2.333333,-1.04533 -2.333333,-2.33333 0,-1.288 1.045333,-2.33333 2.333333,-2.33333 1.288,0 2.333334,1.04533 2.333334,2.33333 z"
     style="fill:none;stroke:#000000;stroke-width:1.33333325;stroke-linecap:butt;stroke-linejoin:miter;stroke-miterlimit:4;stroke-dasharray:none;stroke-opacity:1"
     id="path38" /><text
     style="font-variant:normal;font-weight:normal;font-stretch:normal;font-size:16px;font-family:Myriad;-inkscape-font-specification:Myriad-Roman;writing-mode:lr-tb;fill:#000000;fill-opacity:1;fill-rule:nonzero;stroke:none;stroke-width:1.33333325"
     id="text42"
     x="43.958122"
     y="27.607845"><tspan
       x="43.958122"
       y="27.607845"
       id="tspan40"
       style="stroke-width:1.33333325">A</tspan></text>
<text
     style="font-variant:normal;font-weight:normal;font-stretch:normal;font-size:16px;font-family:Myriad;-inkscape-font-specification:Myriad-Roman;writing-mode:lr-tb;fill:#000000;fill-opacity:1;fill-rule:nonzero;stroke:none;stroke-width:1.33333325"
     id="text46"
     x="42.184788"
     y="175.09206"><tspan
       x="42.184788"
       y="175.09206"
       id="tspan44"
       style="stroke-width:1.33333325">B</tspan></text>
<text
     style="font-variant:normal;font-weight:normal;font-stretch:normal;font-size:16px;font-family:Myriad;-inkscape-font-specification:Myriad-Roman;writing-mode:lr-tb;fill:#000000;fill-opacity:1;fill-rule:nonzero;stroke:none;stroke-width:1.33333325"
     id="text50"
     x="136.55368"
     y="175.71089"><tspan
       x="136.55368"
       y="175.71089"
       id="tspan48"
       style="stroke-width:1.33333325">C</tspan></text>
<text
     style="font-variant:normal;font-weight:normal;font-stretch:normal;font-size:16px;font-family:Myriad;-inkscape-font-specification:Myriad-Roman;writing-mode:lr-tb;fill:#000000;fill-opacity:1;fill-rule:nonzero;stroke:none;stroke-width:1.33333325"
     id="text54"
     x="137.10069"
     y="28.361584"><tspan
       x="137.10069"
       y="28.361584"
       id="tspan52"
       style="stroke-width:1.33333325">D</tspan></text>
<text
     style="font-variant:normal;font-weight:normal;font-stretch:normal;font-size:16px;font-family:Myriad;-inkscape-font-specification:Myriad-Roman;writing-mode:lr-tb;fill:#000000;fill-opacity:1;fill-rule:nonzero;stroke:none;stroke-width:1.33333325"
     id="text58"
     x="90.836136"
     y="66.796959"><tspan
       x="90.836136"
       y="66.796959"
       id="tspan56"
       style="stroke-width:1.33333325">E</tspan></text>
<path
     inkscape:connector-curvature="0"
     d="m 99.167332,74.702897 c 0,1.290666 -1.045334,2.334666 -2.333333,2.334666 -1.288,0 -2.333334,-1.044 -2.333334,-2.334666 0,-1.288 1.045334,-2.333334 2.333334,-2.333334 1.287999,0 2.333333,1.045334 2.333333,2.333334"
     style="fill:#000000;fill-opacity:1;fill-rule:nonzero;stroke:none;stroke-width:1.33333325"
     id="path62" /><path
     inkscape:connector-curvature="0"
     d="m 98.500665,74.702897 c 0,1.290666 -1.045334,2.334666 -2.333333,2.334666 -1.288,0 -2.333334,-1.044 -2.333334,-2.334666 0,-1.288 1.045334,-2.333334 2.333334,-2.333334 1.287999,0 2.333333,1.045334 2.333333,2.333334 z"
     style="fill:none;stroke:#000000;stroke-width:1.33333325;stroke-linecap:butt;stroke-linejoin:miter;stroke-miterlimit:4;stroke-dasharray:none;stroke-opacity:1"
     id="path64" /><path
     inkscape:connector-curvature="0"
     d="m 133.77733,30.000004 h 0.668"
     style="fill:none;stroke:#000000;stroke-width:1.33333325;stroke-linecap:butt;stroke-linejoin:miter;stroke-miterlimit:4;stroke-dasharray:none;stroke-opacity:1"
     id="path66" /><text
     style="font-variant:normal;font-weight:normal;font-stretch:normal;font-size:16px;font-family:Myriad;-inkscape-font-specification:Myriad-Roman;writing-mode:lr-tb;fill:#000000;fill-opacity:1;fill-rule:nonzero;stroke:none;stroke-width:1.33333325"
     id="text70"
     x="90.164833"
     y="137.7368"><tspan
       x="90.164833"
       y="137.7368"
       id="tspan68"
       style="stroke-width:1.33333325">F</tspan></text>
<path
     style="fill:none;stroke:#000000;stroke-width:1px;stroke-linecap:butt;stroke-linejoin:miter;stroke-opacity:1"
     d="M 134.11066,163.22266 134.44533,30.000004"
     id="path4635"
     inkscape:connector-curvature="0" /><path
     style="fill:none;stroke:#000000;stroke-width:1px;stroke-linecap:butt;stroke-linejoin:miter;stroke-opacity:1"
     d="m 57.889332,30.333337 38.278,44.370226 37.943328,88.519097 -37.94333,-44.14888 z"
     id="path4641"
     inkscape:connector-curvature="0" /><path
     style="fill:none;stroke:#000000;stroke-width:1px;stroke-linecap:butt;stroke-linejoin:miter;stroke-opacity:1"
     d="M 134.11133,30.000004 96.167332,74.703563 57.666665,163.444 96.16733,119.07378 Z"
     id="path4643"
     inkscape:connector-curvature="0" /></svg>