<?xml version="1.0" encoding="UTF-8" standalone="no"?>
<svg
   xmlns:dc="http://purl.org/dc/elements/1.1/"
   xmlns:cc="http://creativecommons.org/ns#"
   xmlns:rdf="http://www.w3.org/1999/02/22-rdf-syntax-ns#"
   xmlns:svg="http://www.w3.org/2000/svg"
   xmlns="http://www.w3.org/2000/svg"
   xmlns:sodipodi="http://sodipodi.sourceforge.net/DTD/sodipodi-0.dtd"
   xmlns:inkscape="http://www.inkscape.org/namespaces/inkscape"
   viewBox="0 0 192 192"
   height="192"
   width="192"
   xml:space="preserve"
   id="svg2"
   version="1.1"
   sodipodi:docname="Graph5.svg"
   inkscape:version="0.92.3 (2405546, 2018-03-11)"><sodipodi:namedview
     pagecolor="#ffffff"
     bordercolor="#666666"
     borderopacity="1"
     objecttolerance="10"
     gridtolerance="10"
     guidetolerance="10"
     inkscape:pageopacity="0"
     inkscape:pageshadow="2"
     inkscape:window-width="2560"
     inkscape:window-height="1346"
     id="namedview36"
     showgrid="false"
     inkscape:snap-object-midpoints="true"
     inkscape:zoom="4.9166667"
     inkscape:cx="96"
     inkscape:cy="96"
     inkscape:window-x="-11"
     inkscape:window-y="-11"
     inkscape:window-maximized="1"
     inkscape:current-layer="svg2" /><metadata
     id="metadata8"><rdf:RDF><cc:Work
         rdf:about=""><dc:format>image/svg+xml</dc:format><dc:type
           rdf:resource="http://purl.org/dc/dcmitype/StillImage" /></cc:Work></rdf:RDF></metadata><defs
     id="defs6">





</defs><path
     inkscape:connector-curvature="0"
     d="m 60.222665,30.333337 c 0,1.288 -1.045333,2.333334 -2.333333,2.333334 -1.289333,0 -2.333333,-1.045334 -2.333333,-2.333334 0,-1.288 1.044,-2.333333 2.333333,-2.333333 1.288,0 2.333333,1.045333 2.333333,2.333333"
     style="fill:#000000;fill-opacity:1;fill-rule:nonzero;stroke:none;stroke-width:1.33333325"
     id="path20" /><path
     inkscape:connector-curvature="0"
     d="m 60.222665,30.333337 c 0,1.288 -1.045333,2.333334 -2.333333,2.333334 -1.289333,0 -2.333333,-1.045334 -2.333333,-2.333334 0,-1.288 1.044,-2.333333 2.333333,-2.333333 1.288,0 2.333333,1.045333 2.333333,2.333333 z"
     style="fill:none;stroke:#000000;stroke-width:1.33333325;stroke-linecap:butt;stroke-linejoin:miter;stroke-miterlimit:4;stroke-dasharray:none;stroke-opacity:1"
     id="path22" /><path
     inkscape:connector-curvature="0"
     d="m 175.33333,96.556002 c 0,1.288 -1.044,2.332 -2.33333,2.332 -1.288,0 -2.33334,-1.044 -2.33334,-2.332 0,-1.289333 1.04534,-2.333333 2.33334,-2.333333 1.28933,0 2.33333,1.044 2.33333,2.333333"
     style="fill:#000000;fill-opacity:1;fill-rule:nonzero;stroke:none;stroke-width:1.33333325"
     id="path24" /><path
     inkscape:connector-curvature="0"
     d="m 175.33333,96.556002 c 0,1.288 -1.044,2.332 -2.33333,2.332 -1.288,0 -2.33334,-1.044 -2.33334,-2.332 0,-1.289333 1.04534,-2.333333 2.33334,-2.333333 1.28933,0 2.33333,1.044 2.33333,2.333333 z"
     style="fill:none;stroke:#000000;stroke-width:1.33333325;stroke-linecap:butt;stroke-linejoin:miter;stroke-miterlimit:4;stroke-dasharray:none;stroke-opacity:1"
     id="path26" /><path
     inkscape:connector-curvature="0"
     d="m 136.77866,30.000004 c 0,1.288 -1.044,2.333333 -2.33333,2.333333 -1.28933,0 -2.33333,-1.045333 -2.33333,-2.333333 0,-1.288 1.044,-2.333333 2.33333,-2.333333 1.28933,0 2.33333,1.045333 2.33333,2.333333"
     style="fill:#000000;fill-opacity:1;fill-rule:nonzero;stroke:none;stroke-width:1.33333325"
     id="path28" /><path
     inkscape:connector-curvature="0"
     d="m 136.77866,30.000004 c 0,1.288 -1.044,2.333333 -2.33333,2.333333 -1.28933,0 -2.33333,-1.045333 -2.33333,-2.333333 0,-1.288 1.044,-2.333333 2.33333,-2.333333 1.28933,0 2.33333,1.045333 2.33333,2.333333 z"
     style="fill:none;stroke:#000000;stroke-width:1.33333325;stroke-linecap:butt;stroke-linejoin:miter;stroke-miterlimit:4;stroke-dasharray:none;stroke-opacity:1"
     id="path30" /><path
     inkscape:connector-curvature="0"
     d="m 136.444,163.22267 c 0,1.288 -1.04534,2.33333 -2.33334,2.33333 -1.288,0 -2.33333,-1.04533 -2.33333,-2.33333 0,-1.288 1.04533,-2.33334 2.33333,-2.33334 1.288,0 2.33334,1.04534 2.33334,2.33334"
     style="fill:#000000;fill-opacity:1;fill-rule:nonzero;stroke:none;stroke-width:1.33333325"
     id="path32" /><path
     inkscape:connector-curvature="0"
     d="m 136.444,163.22267 c 0,1.288 -1.04534,2.33333 -2.33334,2.33333 -1.288,0 -2.33333,-1.04533 -2.33333,-2.33333 0,-1.288 1.04533,-2.33334 2.33333,-2.33334 1.288,0 2.33334,1.04534 2.33334,2.33334 z"
     style="fill:none;stroke:#000000;stroke-width:1.33333325;stroke-linecap:butt;stroke-linejoin:miter;stroke-miterlimit:4;stroke-dasharray:none;stroke-opacity:1"
     id="path34" /><path
     inkscape:connector-curvature="0"
     d="m 59.999999,163.444 c 0,1.288 -1.045334,2.33333 -2.333334,2.33333 -1.288,0 -2.333333,-1.04533 -2.333333,-2.33333 0,-1.288 1.045333,-2.33333 2.333333,-2.33333 1.288,0 2.333334,1.04533 2.333334,2.33333"
     style="fill:#000000;fill-opacity:1;fill-rule:nonzero;stroke:none;stroke-width:1.33333325"
     id="path36" /><path
     inkscape:connector-curvature="0"
     d="m 59.999999,163.444 c 0,1.288 -1.045334,2.33333 -2.333334,2.33333 -1.288,0 -2.333333,-1.04533 -2.333333,-2.33333 0,-1.288 1.045333,-2.33333 2.333333,-2.33333 1.288,0 2.333334,1.04533 2.333334,2.33333 z"
     style="fill:none;stroke:#000000;stroke-width:1.33333325;stroke-linecap:butt;stroke-linejoin:miter;stroke-miterlimit:4;stroke-dasharray:none;stroke-opacity:1"
     id="path38" /><text
     style="font-variant:normal;font-weight:normal;font-stretch:normal;font-size:16px;font-family:Myriad;-inkscape-font-specification:Myriad-Roman;writing-mode:lr-tb;fill:#000000;fill-opacity:1;fill-rule:nonzero;stroke:none;stroke-width:1.33333325"
     id="text42"
     x="53.110664"
     y="25.777336"><tspan
       x="53.110664"
       y="25.777336"
       id="tspan40"
       style="stroke-width:1.33333325">A</tspan></text>
<text
     style="font-variant:normal;font-weight:normal;font-stretch:normal;font-size:16px;font-family:Myriad;-inkscape-font-specification:Myriad-Roman;writing-mode:lr-tb;fill:#000000;fill-opacity:1;fill-rule:nonzero;stroke:none;stroke-width:1.33333325"
     id="text46"
     x="5.7779999"
     y="102.88867"><tspan
       x="5.7779999"
       y="102.88867"
       id="tspan44"
       style="stroke-width:1.33333325">B</tspan></text>
<text
     style="font-variant:normal;font-weight:normal;font-stretch:normal;font-size:16px;font-family:Myriad;-inkscape-font-specification:Myriad-Roman;writing-mode:lr-tb;fill:#000000;fill-opacity:1;fill-rule:nonzero;stroke:none;stroke-width:1.33333325"
     id="text50"
     x="51.333332"
     y="179.77867"><tspan
       x="51.333332"
       y="179.77867"
       id="tspan48"
       style="stroke-width:1.33333325">C</tspan></text>
<text
     style="font-variant:normal;font-weight:normal;font-stretch:normal;font-size:16px;font-family:Myriad;-inkscape-font-specification:Myriad-Roman;writing-mode:lr-tb;fill:#000000;fill-opacity:1;fill-rule:nonzero;stroke:none;stroke-width:1.33333325"
     id="text54"
     x="129.77866"
     y="178.66667"><tspan
       x="129.77866"
       y="178.66667"
       id="tspan52"
       style="stroke-width:1.33333325">D</tspan></text>
<text
     style="font-variant:normal;font-weight:normal;font-stretch:normal;font-size:16px;font-family:Myriad;-inkscape-font-specification:Myriad-Roman;writing-mode:lr-tb;fill:#000000;fill-opacity:1;fill-rule:nonzero;stroke:none;stroke-width:1.33333325"
     id="text58"
     x="176.66666"
     y="101.78"><tspan
       x="176.66666"
       y="101.78"
       id="tspan56"
       style="stroke-width:1.33333325">E</tspan></text>
<path
     inkscape:connector-curvature="0"
     d="M 57.643995,163.02133 19.243996,96.510669 57.643995,30.000004 h 76.801335 l 38.39866,66.510665 -38.39866,66.510661 z"
     style="fill:none;stroke:#000000;stroke-width:1;stroke-linecap:butt;stroke-linejoin:miter;stroke-miterlimit:4;stroke-dasharray:none;stroke-opacity:1"
     id="path60" /><path
     inkscape:connector-curvature="0"
     d="m 22.333333,96.889336 c 0,1.290666 -1.045334,2.334666 -2.333333,2.334666 -1.288,0 -2.333334,-1.044 -2.333334,-2.334666 0,-1.288 1.045334,-2.333334 2.333334,-2.333334 1.287999,0 2.333333,1.045334 2.333333,2.333334"
     style="fill:#000000;fill-opacity:1;fill-rule:nonzero;stroke:none;stroke-width:1.33333325"
     id="path62" /><path
     inkscape:connector-curvature="0"
     d="m 22.333333,96.889336 c 0,1.290666 -1.045334,2.334666 -2.333333,2.334666 -1.288,0 -2.333334,-1.044 -2.333334,-2.334666 0,-1.288 1.045334,-2.333334 2.333334,-2.333334 1.287999,0 2.333333,1.045334 2.333333,2.333334 z"
     style="fill:none;stroke:#000000;stroke-width:1.33333325;stroke-linecap:butt;stroke-linejoin:miter;stroke-miterlimit:4;stroke-dasharray:none;stroke-opacity:1"
     id="path64" /><path
     inkscape:connector-curvature="0"
     d="m 133.77733,30.000004 h 0.668"
     style="fill:none;stroke:#000000;stroke-width:1.33333325;stroke-linecap:butt;stroke-linejoin:miter;stroke-miterlimit:4;stroke-dasharray:none;stroke-opacity:1"
     id="path66" /><text
     style="font-variant:normal;font-weight:normal;font-stretch:normal;font-size:16px;font-family:Myriad;-inkscape-font-specification:Myriad-Roman;writing-mode:lr-tb;fill:#000000;fill-opacity:1;fill-rule:nonzero;stroke:none;stroke-width:1.33333325"
     id="text70"
     x="137.55466"
     y="26.889338"><tspan
       x="137.55466"
       y="26.889338"
       id="tspan68"
       style="stroke-width:1.33333325">F</tspan></text>
<path
     style="fill:none;stroke:#000000;stroke-width:1px;stroke-linecap:butt;stroke-linejoin:miter;stroke-opacity:1"
     d="M 57.822665,30.156004 57.666665,163.444"
     id="path4629"
     inkscape:connector-curvature="0"
     sodipodi:nodetypes="cc" /><path
     style="fill:none;stroke:#000000;stroke-width:1px;stroke-linecap:butt;stroke-linejoin:miter;stroke-opacity:1"
     d="M 20,96.890002 134.624,163.17733"
     id="path4631"
     inkscape:connector-curvature="0"
     sodipodi:nodetypes="cc" /><path
     style="fill:none;stroke:#000000;stroke-width:1px;stroke-linecap:butt;stroke-linejoin:miter;stroke-opacity:1"
     d="M 57.666665,163.444 173.02266,96.666669"
     id="path4633"
     inkscape:connector-curvature="0"
     sodipodi:nodetypes="cc" /><path
     style="fill:none;stroke:#000000;stroke-width:1px;stroke-linecap:butt;stroke-linejoin:miter;stroke-opacity:1"
     d="M 134.11066,163.22266 134.44533,30.000004"
     id="path4635"
     inkscape:connector-curvature="0" /><path
     style="fill:none;stroke:#000000;stroke-width:1px;stroke-linecap:butt;stroke-linejoin:miter;stroke-opacity:1"
     d="M 173.02266,96.666669 57.889332,30.333337"
     id="path4637"
     inkscape:connector-curvature="0" /><path
     style="fill:none;stroke:#000000;stroke-width:1px;stroke-linecap:butt;stroke-linejoin:miter;stroke-opacity:1"
     d="M 134.44533,30.000004 20,96.890002"
     id="path4639"
     inkscape:connector-curvature="0"
     sodipodi:nodetypes="cc" /></svg>