<?xml version="1.0" encoding="UTF-8" standalone="no"?>
<svg
   xmlns:dc="http://purl.org/dc/elements/1.1/"
   xmlns:cc="http://creativecommons.org/ns#"
   xmlns:rdf="http://www.w3.org/1999/02/22-rdf-syntax-ns#"
   xmlns:svg="http://www.w3.org/2000/svg"
   xmlns="http://www.w3.org/2000/svg"
   xmlns:sodipodi="http://sodipodi.sourceforge.net/DTD/sodipodi-0.dtd"
   xmlns:inkscape="http://www.inkscape.org/namespaces/inkscape"
   viewBox="0 0 160 80"
   height="80"
   width="160"
   xml:space="preserve"
   id="svg2"
   version="1.1"
   sodipodi:docname="graph_bowtie_dual.svg"
   inkscape:version="0.92.3 (2405546, 2018-03-11)"><sodipodi:namedview
   pagecolor="#ffffff"
   bordercolor="#666666"
   borderopacity="1"
   objecttolerance="10"
   gridtolerance="10"
   guidetolerance="10"
   inkscape:pageopacity="0"
   inkscape:pageshadow="2"
   inkscape:window-width="1920"
   inkscape:window-height="1017"
   id="namedview36"
   showgrid="false"
   inkscape:snap-object-midpoints="true"
   inkscape:zoom="3.4766084"
   inkscape:cx="-30.944473"
   inkscape:cy="51.962618"
   inkscape:window-x="1672"
   inkscape:window-y="-8"
   inkscape:window-maximized="1"
   inkscape:current-layer="svg2" /><metadata
   id="metadata8"><rdf:RDF><cc:Work
       rdf:about=""><dc:format>image/svg+xml</dc:format><dc:type
         rdf:resource="http://purl.org/dc/dcmitype/StillImage" /><dc:title></dc:title></cc:Work></rdf:RDF></metadata><defs
   id="defs6">





</defs><text
   style="font-variant:normal;font-weight:normal;font-stretch:normal;font-size:16px;font-family:Myriad;-inkscape-font-specification:Myriad-Roman;writing-mode:lr-tb;fill:#000000;fill-opacity:1;fill-rule:nonzero;stroke:none;stroke-width:1.33333325"
   id="text42"
   x="7.0888004"
   y="36.310551"><tspan
     x="7.0888004"
     y="36.310551"
     id="tspan40"
     style="stroke-width:1.33333325">AB</tspan></text>




<text
   style="font-variant:normal;font-weight:normal;font-stretch:normal;font-size:16px;font-family:Myriad;-inkscape-font-specification:Myriad-Roman;writing-mode:lr-tb;fill:#000000;fill-opacity:1;fill-rule:nonzero;stroke:none;stroke-width:1.33333325"
   id="text46"
   x="41.303059"
   y="73.436836"><tspan
     x="41.303059"
     y="73.436836"
     id="tspan44"
     style="stroke-width:1.33333325">BC</tspan></text>




<text
   style="font-variant:normal;font-weight:normal;font-stretch:normal;font-size:16px;font-family:Myriad;-inkscape-font-specification:Myriad-Roman;writing-mode:lr-tb;fill:#000000;fill-opacity:1;fill-rule:nonzero;stroke:none;stroke-width:1.33333325"
   id="text50"
   x="40.690781"
   y="21.469164"><tspan
     x="40.690781"
     y="21.469164"
     id="tspan48"
     style="stroke-width:1.33333325">AC</tspan></text>




<text
   style="font-variant:normal;font-weight:normal;font-stretch:normal;font-size:16px;font-family:Myriad;-inkscape-font-specification:Myriad-Roman;writing-mode:lr-tb;fill:#000000;fill-opacity:1;fill-rule:nonzero;stroke:none;stroke-width:1.33333325"
   id="text54"
   x="99.289177"
   y="21.641081"><tspan
     x="99.289177"
     y="21.641081"
     id="tspan52"
     style="stroke-width:1.33333325">CD</tspan></text>




<text
   style="font-variant:normal;font-weight:normal;font-stretch:normal;font-size:16px;font-family:Myriad;-inkscape-font-specification:Myriad-Roman;writing-mode:lr-tb;fill:#000000;fill-opacity:1;fill-rule:nonzero;stroke:none;stroke-width:1.33333325"
   id="text58"
   x="101.5136"
   y="72.286285"><tspan
     x="101.5136"
     y="72.286285"
     id="tspan56"
     style="stroke-width:1.33333325">CE</tspan></text>













<path
   inkscape:connector-curvature="0"
   d="m 52.669745,28.184153 c 0,1.288 -1.04533,2.33333 -2.33333,2.33333 -1.28933,0 -2.33333,-1.04533 -2.33333,-2.33333 0,-1.288 1.044,-2.33334 2.33333,-2.33334 1.288,0 2.33333,1.04534 2.33333,2.33334 z"
   style="fill:#000000;fill-opacity:1;stroke:#000000;stroke-width:1.33333325;stroke-linecap:butt;stroke-linejoin:miter;stroke-miterlimit:4;stroke-dasharray:none;stroke-opacity:1"
   id="path22-9" /><path
   inkscape:connector-curvature="0"
   d="m 52.957381,54.68798 c 0,1.288 -1.04533,2.33333 -2.33333,2.33333 -1.28933,0 -2.33333,-1.04533 -2.33333,-2.33333 0,-1.288 1.044,-2.33334 2.33333,-2.33334 1.288,0 2.33333,1.04534 2.33333,2.33334 z"
   style="fill:#000000;fill-opacity:1;stroke:#000000;stroke-width:1.33333325;stroke-linecap:butt;stroke-linejoin:miter;stroke-miterlimit:4;stroke-dasharray:none;stroke-opacity:1"
   id="path22-7" /><path
   inkscape:connector-curvature="0"
   d="m 114.22399,54.177892 c 0,1.288 -1.04534,2.33333 -2.33334,2.33333 -1.28933,0 -2.33333,-1.04533 -2.33333,-2.33333 0,-1.288 1.044,-2.33334 2.33333,-2.33334 1.288,0 2.33334,1.04534 2.33334,2.33334 z"
   style="fill:#000000;fill-opacity:1;stroke:#000000;stroke-width:1.33333325;stroke-linecap:butt;stroke-linejoin:miter;stroke-miterlimit:4;stroke-dasharray:none;stroke-opacity:1"
   id="path22-4" /><path
   inkscape:connector-curvature="0"
   d="m 113.07344,28.014121 c 0,1.288 -1.04533,2.33333 -2.33333,2.33333 -1.28934,0 -2.33334,-1.04533 -2.33334,-2.33333 0,-1.288 1.044,-2.33334 2.33334,-2.33334 1.288,0 2.33333,1.04534 2.33333,2.33334 z"
   style="fill:#000000;fill-opacity:1;stroke:#000000;stroke-width:1.33333325;stroke-linecap:butt;stroke-linejoin:miter;stroke-miterlimit:4;stroke-dasharray:none;stroke-opacity:1"
   id="path22-5" /><path
   inkscape:connector-curvature="0"
   d="m 26.281544,41.436067 c 0,1.288 -1.045329,2.33333 -2.33333,2.33333 -1.28934,0 -2.33334,-1.04533 -2.33334,-2.33333 0,-1.288 1.044,-2.33334 2.33334,-2.33334 1.288001,0 2.33333,1.04534 2.33333,2.33334 z"
   style="fill:#000000;fill-opacity:1;stroke:#000000;stroke-width:1.33333325;stroke-linecap:butt;stroke-linejoin:miter;stroke-miterlimit:4;stroke-dasharray:none;stroke-opacity:1"
   id="path22-55" /><path
   inkscape:connector-curvature="0"
   d="m 139.61009,41.096007 c 0,1.288 -1.04533,2.33333 -2.33333,2.33333 -1.28933,0 -2.33333,-1.04533 -2.33333,-2.33333 0,-1.288 1.044,-2.33334 2.33333,-2.33334 1.288,0 2.33333,1.04534 2.33333,2.33334 z"
   style="fill:#000000;fill-opacity:1;stroke:#000000;stroke-width:1.33333325;stroke-linecap:butt;stroke-linejoin:miter;stroke-miterlimit:4;stroke-dasharray:none;stroke-opacity:1"
   id="path22-53" /><path
   style="fill:none;stroke:#000000;stroke-width:1px;stroke-linecap:butt;stroke-linejoin:miter;stroke-opacity:1"
   d="M 50.336415,28.184148 23.948209,41.436062 50.624051,54.687975"
   id="path1471"
   inkscape:connector-curvature="0" /><path
   style="fill:none;stroke:#000000;stroke-width:1px;stroke-linecap:butt;stroke-linejoin:miter;stroke-opacity:1"
   d="m 110.74011,28.014116 26.53665,13.081886 -25.38611,13.081885"
   id="path1473"
   inkscape:connector-curvature="0" /><path
   style="fill:none;stroke:#000000;stroke-width:1px;stroke-linecap:butt;stroke-linejoin:miter;stroke-opacity:1"
   d="m 50.336415,28.184148 0.287636,26.503827"
   id="path1475"
   inkscape:connector-curvature="0" /><path
   style="fill:none;stroke:#000000;stroke-width:1px;stroke-linecap:butt;stroke-linejoin:miter;stroke-opacity:1"
   d="m 110.74011,28.014116 1.15054,26.163771"
   id="path1477"
   inkscape:connector-curvature="0" /><path
   style="fill:none;stroke:#000000;stroke-width:1px;stroke-linecap:butt;stroke-linejoin:miter;stroke-opacity:1"
   d="M 50.336415,28.184148 110.74011,28.014116"
   id="path1479"
   inkscape:connector-curvature="0" /><path
   style="fill:none;stroke:#000000;stroke-width:1px;stroke-linecap:butt;stroke-linejoin:miter;stroke-opacity:1"
   d="M 50.624051,54.687975 111.89065,54.177887 50.336415,28.184148"
   id="path1481"
   inkscape:connector-curvature="0" /><path
   style="fill:none;stroke:#000000;stroke-width:1px;stroke-linecap:butt;stroke-linejoin:miter;stroke-opacity:1"
   d="M 110.74011,28.014116 50.624051,54.687975"
   id="path1483"
   inkscape:connector-curvature="0" /><text
   style="font-variant:normal;font-weight:normal;font-stretch:normal;font-size:16px;font-family:Myriad;-inkscape-font-specification:Myriad-Roman;writing-mode:lr-tb;fill:#000000;fill-opacity:1;fill-rule:nonzero;stroke:none;stroke-width:1.33333325"
   id="text58-7"
   x="132.36948"
   y="35.775444"><tspan
     x="132.36948"
     y="35.775444"
     id="tspan56-6"
     style="stroke-width:1.33333325">DE</tspan></text>
</svg>