<?xml version="1.0" encoding="UTF-8" standalone="no"?>
<svg
   xmlns:dc="http://purl.org/dc/elements/1.1/"
   xmlns:cc="http://creativecommons.org/ns#"
   xmlns:rdf="http://www.w3.org/1999/02/22-rdf-syntax-ns#"
   xmlns:svg="http://www.w3.org/2000/svg"
   xmlns="http://www.w3.org/2000/svg"
   viewBox="0 0 192 192"
   height="192"
   width="192"
   xml:space="preserve"
   id="svg2"
   version="1.1"><metadata
     id="metadata8"><rdf:RDF><cc:Work
         rdf:about=""><dc:format>image/svg+xml</dc:format><dc:type
           rdf:resource="http://purl.org/dc/dcmitype/StillImage" /></cc:Work></rdf:RDF></metadata><defs
     id="defs6"><clipPath
       id="clipPath18"
       clipPathUnits="userSpaceOnUse"><path
         id="path16"
         d="M 0,144 H 144 V 0 H 0 Z" /></clipPath></defs><g
     transform="matrix(1.3333333,0,0,-1.3333333,0,192)"
     id="g10"><g
       id="g12"><g
         clip-path="url(#clipPath18)"
         id="g14"><path
           id="path20"
           style="fill:#000000;fill-opacity:1;fill-rule:nonzero;stroke:none"
           d="m 72.5,121.75 c 0,-0.966 -0.784,-1.75 -1.75,-1.75 -0.966,0 -1.75,0.784 -1.75,1.75 0,0.966 0.784,1.75 1.75,1.75 0.966,0 1.75,-0.784 1.75,-1.75" /><path
           id="path22"
           style="fill:none;stroke:#000000;stroke-width:1;stroke-linecap:butt;stroke-linejoin:miter;stroke-miterlimit:4;stroke-dasharray:none;stroke-opacity:1"
           d="m 72.5,121.75 c 0,-0.966 -0.784,-1.75 -1.75,-1.75 -0.966,0 -1.75,0.784 -1.75,1.75 0,0.966 0.784,1.75 1.75,1.75 0.966,0 1.75,-0.784 1.75,-1.75 z" /><path
           id="path24"
           style="fill:none;stroke:#000000;stroke-width:1;stroke-linecap:butt;stroke-linejoin:miter;stroke-miterlimit:4;stroke-dasharray:none;stroke-opacity:1"
           d="M 36.644,17.9 15.719,82.299 70.5,122.1 125.281,82.299 104.356,17.9 Z" /><path
           id="path26"
           style="fill:#000000;fill-opacity:1;fill-rule:nonzero;stroke:none"
           d="m 127,82.417 c 0,-0.967 -0.783,-1.75 -1.75,-1.75 -0.966,0 -1.75,0.783 -1.75,1.75 0,0.966 0.784,1.75 1.75,1.75 0.967,0 1.75,-0.784 1.75,-1.75" /><path
           id="path28"
           style="fill:none;stroke:#000000;stroke-width:1;stroke-linecap:butt;stroke-linejoin:miter;stroke-miterlimit:4;stroke-dasharray:none;stroke-opacity:1"
           d="m 127,82.417 c 0,-0.967 -0.783,-1.75 -1.75,-1.75 -0.966,0 -1.75,0.783 -1.75,1.75 0,0.966 0.784,1.75 1.75,1.75 0.967,0 1.75,-0.784 1.75,-1.75 z" /><path
           id="path30"
           style="fill:#000000;fill-opacity:1;fill-rule:nonzero;stroke:none"
           d="m 17.083,82.167 c 0,-0.967 -0.783,-1.75 -1.75,-1.75 -0.966,0 -1.75,0.783 -1.75,1.75 0,0.966 0.784,1.75 1.75,1.75 0.967,0 1.75,-0.784 1.75,-1.75" /><path
           id="path32"
           style="fill:none;stroke:#000000;stroke-width:1;stroke-linecap:butt;stroke-linejoin:miter;stroke-miterlimit:4;stroke-dasharray:none;stroke-opacity:1"
           d="m 17.083,82.167 c 0,-0.967 -0.783,-1.75 -1.75,-1.75 -0.966,0 -1.75,0.783 -1.75,1.75 0,0.966 0.784,1.75 1.75,1.75 0.967,0 1.75,-0.784 1.75,-1.75 z" /><path
           id="path34"
           style="fill:#000000;fill-opacity:1;fill-rule:nonzero;stroke:none"
           d="m 105.833,17.583 c 0,-0.966 -0.784,-1.75 -1.75,-1.75 -0.966,0 -1.75,0.784 -1.75,1.75 0,0.966 0.784,1.75 1.75,1.75 0.966,0 1.75,-0.784 1.75,-1.75" /><path
           id="path36"
           style="fill:none;stroke:#000000;stroke-width:1;stroke-linecap:butt;stroke-linejoin:miter;stroke-miterlimit:4;stroke-dasharray:none;stroke-opacity:1"
           d="m 105.833,17.583 c 0,-0.966 -0.784,-1.75 -1.75,-1.75 -0.966,0 -1.75,0.784 -1.75,1.75 0,0.966 0.784,1.75 1.75,1.75 0.966,0 1.75,-0.784 1.75,-1.75 z" /><path
           id="path38"
           style="fill:#000000;fill-opacity:1;fill-rule:nonzero;stroke:none"
           d="m 38.333,17.917 c 0,-0.966 -0.783,-1.75 -1.75,-1.75 -0.966,0 -1.75,0.784 -1.75,1.75 0,0.966 0.784,1.75 1.75,1.75 0.967,0 1.75,-0.784 1.75,-1.75" /><path
           id="path40"
           style="fill:none;stroke:#000000;stroke-width:1;stroke-linecap:butt;stroke-linejoin:miter;stroke-miterlimit:4;stroke-dasharray:none;stroke-opacity:1"
           d="m 38.333,17.917 c 0,-0.966 -0.783,-1.75 -1.75,-1.75 -0.966,0 -1.75,0.784 -1.75,1.75 0,0.966 0.784,1.75 1.75,1.75 0.967,0 1.75,-0.784 1.75,-1.75 z" /><path
           id="path42"
           style="fill:none;stroke:#000000;stroke-width:1;stroke-linecap:butt;stroke-linejoin:miter;stroke-miterlimit:4;stroke-dasharray:none;stroke-opacity:1"
           d="m 15.333,82.167 88.75,-64.584" /><path
           id="path44"
           style="fill:none;stroke:#000000;stroke-width:1;stroke-linecap:butt;stroke-linejoin:miter;stroke-miterlimit:4;stroke-dasharray:none;stroke-opacity:1"
           d="M 125.25,82.417 36.583,17.917" /><path
           id="path46"
           style="fill:none;stroke:#000000;stroke-width:1;stroke-linecap:butt;stroke-linejoin:miter;stroke-miterlimit:4;stroke-dasharray:none;stroke-opacity:1"
           d="M 70.5,122.1 104.083,17.583" /><path
           id="path48"
           style="fill:none;stroke:#000000;stroke-width:1;stroke-linecap:butt;stroke-linejoin:miter;stroke-miterlimit:4;stroke-dasharray:none;stroke-opacity:1"
           d="M 36.583,17.917 70.5,122.1" /><path
           id="path50"
           style="fill:none;stroke:#000000;stroke-width:1;stroke-linecap:butt;stroke-linejoin:miter;stroke-miterlimit:4;stroke-dasharray:none;stroke-opacity:1"
           d="M 125.25,82.417 15.333,82.667" /><path
           id="path52"
           style="fill:#000000;fill-opacity:1;fill-rule:nonzero;stroke:none"
           d="m 84.75,82.667 c 0,-0.967 -0.783,-1.75 -1.75,-1.75 -0.967,0 -1.75,0.783 -1.75,1.75 0,0.966 0.783,1.75 1.75,1.75 0.967,0 1.75,-0.784 1.75,-1.75" /><path
           id="path54"
           style="fill:none;stroke:#000000;stroke-width:1;stroke-linecap:butt;stroke-linejoin:miter;stroke-miterlimit:4;stroke-dasharray:none;stroke-opacity:1"
           d="m 84.75,82.667 c 0,-0.967 -0.783,-1.75 -1.75,-1.75 -0.967,0 -1.75,0.783 -1.75,1.75 0,0.966 0.783,1.75 1.75,1.75 0.967,0 1.75,-0.784 1.75,-1.75 z" /><path
           id="path56"
           style="fill:#000000;fill-opacity:1;fill-rule:nonzero;stroke:none"
           d="m 59.167,82.417 c 0,-0.966 -0.784,-1.75 -1.75,-1.75 -0.966,0 -1.75,0.784 -1.75,1.75 0,0.966 0.784,1.75 1.75,1.75 0.966,0 1.75,-0.784 1.75,-1.75" /><path
           id="path58"
           style="fill:none;stroke:#000000;stroke-width:1;stroke-linecap:butt;stroke-linejoin:miter;stroke-miterlimit:4;stroke-dasharray:none;stroke-opacity:1"
           d="m 59.167,82.417 c 0,-0.966 -0.784,-1.75 -1.75,-1.75 -0.966,0 -1.75,0.784 -1.75,1.75 0,0.966 0.784,1.75 1.75,1.75 0.966,0 1.75,-0.784 1.75,-1.75 z" /><path
           id="path60"
           style="fill:#000000;fill-opacity:1;fill-rule:nonzero;stroke:none"
           d="m 93.334,57.75 c 0,-0.967 -0.784,-1.75 -1.75,-1.75 -0.967,0 -1.75,0.783 -1.75,1.75 0,0.967 0.783,1.75 1.75,1.75 0.966,0 1.75,-0.783 1.75,-1.75" /><path
           id="path62"
           style="fill:none;stroke:#000000;stroke-width:1;stroke-linecap:butt;stroke-linejoin:miter;stroke-miterlimit:4;stroke-dasharray:none;stroke-opacity:1"
           d="m 93.334,57.75 c 0,-0.967 -0.784,-1.75 -1.75,-1.75 -0.967,0 -1.75,0.783 -1.75,1.75 0,0.967 0.783,1.75 1.75,1.75 0.966,0 1.75,-0.783 1.75,-1.75 z" /><path
           id="path64"
           style="fill:#000000;fill-opacity:1;fill-rule:nonzero;stroke:none"
           d="m 71.917,42.166 c 0,-0.967 -0.784,-1.75 -1.75,-1.75 -0.967,0 -1.75,0.783 -1.75,1.75 0,0.967 0.783,1.75 1.75,1.75 0.966,0 1.75,-0.783 1.75,-1.75" /><path
           id="path66"
           style="fill:none;stroke:#000000;stroke-width:1;stroke-linecap:butt;stroke-linejoin:miter;stroke-miterlimit:4;stroke-dasharray:none;stroke-opacity:1"
           d="m 71.917,42.166 c 0,-0.967 -0.784,-1.75 -1.75,-1.75 -0.967,0 -1.75,0.783 -1.75,1.75 0,0.967 0.783,1.75 1.75,1.75 0.966,0 1.75,-0.783 1.75,-1.75 z" /><path
           id="path68"
           style="fill:#000000;fill-opacity:1;fill-rule:nonzero;stroke:none"
           d="m 51.25,57.5 c 0,-0.967 -0.784,-1.75 -1.75,-1.75 -0.966,0 -1.75,0.783 -1.75,1.75 0,0.967 0.784,1.75 1.75,1.75 0.966,0 1.75,-0.783 1.75,-1.75" /><path
           id="path70"
           style="fill:none;stroke:#000000;stroke-width:1;stroke-linecap:butt;stroke-linejoin:miter;stroke-miterlimit:4;stroke-dasharray:none;stroke-opacity:1"
           d="m 51.25,57.5 c 0,-0.967 -0.784,-1.75 -1.75,-1.75 -0.966,0 -1.75,0.783 -1.75,1.75 0,0.967 0.784,1.75 1.75,1.75 0.966,0 1.75,-0.783 1.75,-1.75 z" /><text
           id="text74"
           style="font-variant:normal;font-weight:normal;font-stretch:normal;font-size:12px;font-family:Myriad;-inkscape-font-specification:Myriad-Roman;writing-mode:lr-tb;fill:#000000;fill-opacity:1;fill-rule:nonzero;stroke:none"
           transform="matrix(1,0,0,-1,67.1665,126)"><tspan
             id="tspan72"
             y="0"
             x="0">A</tspan></text>
<text
           id="text78"
           style="font-variant:normal;font-weight:normal;font-stretch:normal;font-size:12px;font-family:Myriad;-inkscape-font-specification:Myriad-Roman;writing-mode:lr-tb;fill:#000000;fill-opacity:1;fill-rule:nonzero;stroke:none"
           transform="matrix(1,0,0,-1,3.6665,81.0005)"><tspan
             id="tspan76"
             y="0"
             x="0">B</tspan></text>
<text
           id="text82"
           style="font-variant:normal;font-weight:normal;font-stretch:normal;font-size:12px;font-family:Myriad;-inkscape-font-specification:Myriad-Roman;writing-mode:lr-tb;fill:#000000;fill-opacity:1;fill-rule:nonzero;stroke:none"
           transform="matrix(1,0,0,-1,25.1665,10)"><tspan
             id="tspan80"
             y="0"
             x="0">C</tspan></text>
<text
           id="text86"
           style="font-variant:normal;font-weight:normal;font-stretch:normal;font-size:12px;font-family:Myriad;-inkscape-font-specification:Myriad-Roman;writing-mode:lr-tb;fill:#000000;fill-opacity:1;fill-rule:nonzero;stroke:none"
           transform="matrix(1,0,0,-1,108.834,10.5)"><tspan
             id="tspan84"
             y="0"
             x="0">D</tspan></text>
<text
           id="text90"
           style="font-variant:normal;font-weight:normal;font-stretch:normal;font-size:12px;font-family:Myriad;-inkscape-font-specification:Myriad-Roman;writing-mode:lr-tb;fill:#000000;fill-opacity:1;fill-rule:nonzero;stroke:none"
           transform="matrix(1,0,0,-1,130,82.499)"><tspan
             id="tspan88"
             y="0"
             x="0">E</tspan></text>
<text
           id="text94"
           style="font-variant:normal;font-weight:normal;font-stretch:normal;font-size:12px;font-family:Myriad;-inkscape-font-specification:Myriad-Roman;writing-mode:lr-tb;fill:#000000;fill-opacity:1;fill-rule:nonzero;stroke:none"
           transform="matrix(1,0,0,-1,49.1665,85.666)"><tspan
             id="tspan92"
             y="0"
             x="0">F</tspan></text>
<text
           id="text98"
           style="font-variant:normal;font-weight:normal;font-stretch:normal;font-size:12px;font-family:Myriad;-inkscape-font-specification:Myriad-Roman;writing-mode:lr-tb;fill:#000000;fill-opacity:1;fill-rule:nonzero;stroke:none"
           transform="matrix(1,0,0,-1,36.5,51.167)"><tspan
             id="tspan96"
             y="0"
             x="0">G</tspan></text>
<text
           id="text102"
           style="font-variant:normal;font-weight:normal;font-stretch:normal;font-size:12px;font-family:Myriad;-inkscape-font-specification:Myriad-Roman;writing-mode:lr-tb;fill:#000000;fill-opacity:1;fill-rule:nonzero;stroke:none"
           transform="matrix(1,0,0,-1,65.667,29.999)"><tspan
             id="tspan100"
             y="0"
             x="0">H</tspan></text>
<text
           id="text106"
           style="font-variant:normal;font-weight:normal;font-stretch:normal;font-size:12px;font-family:Myriad;-inkscape-font-specification:Myriad-Roman;writing-mode:lr-tb;fill:#000000;fill-opacity:1;fill-rule:nonzero;stroke:none"
           transform="matrix(1,0,0,-1,97,51.5)"><tspan
             id="tspan104"
             y="0"
             x="0">I</tspan></text>
<text
           id="text110"
           style="font-variant:normal;font-weight:normal;font-stretch:normal;font-size:12px;font-family:Myriad;-inkscape-font-specification:Myriad-Roman;writing-mode:lr-tb;fill:#000000;fill-opacity:1;fill-rule:nonzero;stroke:none"
           transform="matrix(1,0,0,-1,88.166,85.333)"><tspan
             id="tspan108"
             y="0"
             x="0">J</tspan></text>
</g></g></g></svg>