<?xml version="1.0" encoding="UTF-8" standalone="no"?>
<svg
   xmlns:dc="http://purl.org/dc/elements/1.1/"
   xmlns:cc="http://creativecommons.org/ns#"
   xmlns:rdf="http://www.w3.org/1999/02/22-rdf-syntax-ns#"
   xmlns:svg="http://www.w3.org/2000/svg"
   xmlns="http://www.w3.org/2000/svg"
   viewBox="0 0 192 192"
   height="192"
   width="192"
   xml:space="preserve"
   id="svg2"
   version="1.1"><metadata
     id="metadata8"><rdf:RDF><cc:Work
         rdf:about=""><dc:format>image/svg+xml</dc:format><dc:type
           rdf:resource="http://purl.org/dc/dcmitype/StillImage" /></cc:Work></rdf:RDF></metadata><defs
     id="defs6"><clipPath
       id="clipPath18"
       clipPathUnits="userSpaceOnUse"><path
         id="path16"
         d="M 0,144 H 144 V 0 H 0 Z" /></clipPath></defs><g
     transform="matrix(1.3333333,0,0,-1.3333333,0,192)"
     id="g10"><g
       id="g12"><g
         clip-path="url(#clipPath18)"
         id="g14"><path
           id="path20"
           style="fill:#000000;fill-opacity:1;fill-rule:nonzero;stroke:none"
           d="m 45.167,121.25 c 0,-0.966 -0.784,-1.75 -1.75,-1.75 -0.967,0 -1.75,0.784 -1.75,1.75 0,0.966 0.783,1.75 1.75,1.75 0.966,0 1.75,-0.784 1.75,-1.75" /><path
           id="path22"
           style="fill:none;stroke:#000000;stroke-width:1;stroke-linecap:butt;stroke-linejoin:miter;stroke-miterlimit:4;stroke-dasharray:none;stroke-opacity:1"
           d="m 45.167,121.25 c 0,-0.966 -0.784,-1.75 -1.75,-1.75 -0.967,0 -1.75,0.784 -1.75,1.75 0,0.966 0.783,1.75 1.75,1.75 0.966,0 1.75,-0.784 1.75,-1.75 z" /><path
           id="path24"
           style="fill:#000000;fill-opacity:1;fill-rule:nonzero;stroke:none"
           d="m 131.5,71.583 c 0,-0.966 -0.783,-1.749 -1.75,-1.749 -0.966,0 -1.75,0.783 -1.75,1.749 0,0.967 0.784,1.75 1.75,1.75 0.967,0 1.75,-0.783 1.75,-1.75" /><path
           id="path26"
           style="fill:none;stroke:#000000;stroke-width:1;stroke-linecap:butt;stroke-linejoin:miter;stroke-miterlimit:4;stroke-dasharray:none;stroke-opacity:1"
           d="m 131.5,71.583 c 0,-0.966 -0.783,-1.749 -1.75,-1.749 -0.966,0 -1.75,0.783 -1.75,1.749 0,0.967 0.784,1.75 1.75,1.75 0.967,0 1.75,-0.783 1.75,-1.75 z" /><path
           id="path28"
           style="fill:#000000;fill-opacity:1;fill-rule:nonzero;stroke:none"
           d="m 102.584,121.5 c 0,-0.966 -0.783,-1.75 -1.75,-1.75 -0.967,0 -1.75,0.784 -1.75,1.75 0,0.966 0.783,1.75 1.75,1.75 0.967,0 1.75,-0.784 1.75,-1.75" /><path
           id="path30"
           style="fill:none;stroke:#000000;stroke-width:1;stroke-linecap:butt;stroke-linejoin:miter;stroke-miterlimit:4;stroke-dasharray:none;stroke-opacity:1"
           d="m 102.584,121.5 c 0,-0.966 -0.783,-1.75 -1.75,-1.75 -0.967,0 -1.75,0.784 -1.75,1.75 0,0.966 0.783,1.75 1.75,1.75 0.967,0 1.75,-0.784 1.75,-1.75 z" /><path
           id="path32"
           style="fill:#000000;fill-opacity:1;fill-rule:nonzero;stroke:none"
           d="m 102.333,21.583 c 0,-0.966 -0.784,-1.75 -1.75,-1.75 -0.966,0 -1.75,0.784 -1.75,1.75 0,0.966 0.784,1.75 1.75,1.75 0.966,0 1.75,-0.784 1.75,-1.75" /><path
           id="path34"
           style="fill:none;stroke:#000000;stroke-width:1;stroke-linecap:butt;stroke-linejoin:miter;stroke-miterlimit:4;stroke-dasharray:none;stroke-opacity:1"
           d="m 102.333,21.583 c 0,-0.966 -0.784,-1.75 -1.75,-1.75 -0.966,0 -1.75,0.784 -1.75,1.75 0,0.966 0.784,1.75 1.75,1.75 0.966,0 1.75,-0.784 1.75,-1.75 z" /><path
           id="path36"
           style="fill:#000000;fill-opacity:1;fill-rule:nonzero;stroke:none"
           d="m 45,21.417 c 0,-0.966 -0.784,-1.75 -1.75,-1.75 -0.966,0 -1.75,0.784 -1.75,1.75 0,0.966 0.784,1.75 1.75,1.75 0.966,0 1.75,-0.784 1.75,-1.75" /><path
           id="path38"
           style="fill:none;stroke:#000000;stroke-width:1;stroke-linecap:butt;stroke-linejoin:miter;stroke-miterlimit:4;stroke-dasharray:none;stroke-opacity:1"
           d="m 45,21.417 c 0,-0.966 -0.784,-1.75 -1.75,-1.75 -0.966,0 -1.75,0.784 -1.75,1.75 0,0.966 0.784,1.75 1.75,1.75 0.966,0 1.75,-0.784 1.75,-1.75 z" /><text
           id="text42"
           style="font-variant:normal;font-weight:normal;font-stretch:normal;font-size:12px;font-family:Myriad;-inkscape-font-specification:Myriad-Roman;writing-mode:lr-tb;fill:#000000;fill-opacity:1;fill-rule:nonzero;stroke:none"
           transform="matrix(1,0,0,-1,39.833,124.667)"><tspan
             id="tspan40"
             y="0"
             x="0">A</tspan></text>
<text
           id="text46"
           style="font-variant:normal;font-weight:normal;font-stretch:normal;font-size:12px;font-family:Myriad;-inkscape-font-specification:Myriad-Roman;writing-mode:lr-tb;fill:#000000;fill-opacity:1;fill-rule:nonzero;stroke:none"
           transform="matrix(1,0,0,-1,4.3335,66.8335)"><tspan
             id="tspan44"
             y="0"
             x="0">B</tspan></text>
<text
           id="text50"
           style="font-variant:normal;font-weight:normal;font-stretch:normal;font-size:12px;font-family:Myriad;-inkscape-font-specification:Myriad-Roman;writing-mode:lr-tb;fill:#000000;fill-opacity:1;fill-rule:nonzero;stroke:none"
           transform="matrix(1,0,0,-1,38.5,9.166)"><tspan
             id="tspan48"
             y="0"
             x="0">C</tspan></text>
<text
           id="text54"
           style="font-variant:normal;font-weight:normal;font-stretch:normal;font-size:12px;font-family:Myriad;-inkscape-font-specification:Myriad-Roman;writing-mode:lr-tb;fill:#000000;fill-opacity:1;fill-rule:nonzero;stroke:none"
           transform="matrix(1,0,0,-1,97.334,10)"><tspan
             id="tspan52"
             y="0"
             x="0">D</tspan></text>
<text
           id="text58"
           style="font-variant:normal;font-weight:normal;font-stretch:normal;font-size:12px;font-family:Myriad;-inkscape-font-specification:Myriad-Roman;writing-mode:lr-tb;fill:#000000;fill-opacity:1;fill-rule:nonzero;stroke:none"
           transform="matrix(1,0,0,-1,132.5,67.665)"><tspan
             id="tspan56"
             y="0"
             x="0">E</tspan></text>
<path
           id="path60"
           style="fill:#000000;fill-opacity:1;fill-rule:nonzero;stroke:none"
           d="m 16.75,71.333 c 0,-0.968 -0.784,-1.751 -1.75,-1.751 -0.966,0 -1.75,0.783 -1.75,1.751 0,0.966 0.784,1.75 1.75,1.75 0.966,0 1.75,-0.784 1.75,-1.75" /><path
           id="path62"
           style="fill:none;stroke:#000000;stroke-width:1;stroke-linecap:butt;stroke-linejoin:miter;stroke-miterlimit:4;stroke-dasharray:none;stroke-opacity:1"
           d="m 16.75,71.333 c 0,-0.968 -0.784,-1.751 -1.75,-1.751 -0.966,0 -1.75,0.783 -1.75,1.751 0,0.966 0.784,1.75 1.75,1.75 0.966,0 1.75,-0.784 1.75,-1.75 z" /><path
           id="path64"
           style="fill:none;stroke:#000000;stroke-width:1;stroke-linecap:butt;stroke-linejoin:miter;stroke-miterlimit:4;stroke-dasharray:none;stroke-opacity:1"
           d="m 100.333,121.5 h 0.501" /><text
           id="text68"
           style="font-variant:normal;font-weight:normal;font-stretch:normal;font-size:12px;font-family:Myriad;-inkscape-font-specification:Myriad-Roman;writing-mode:lr-tb;fill:#000000;fill-opacity:1;fill-rule:nonzero;stroke:none"
           transform="matrix(1,0,0,-1,103.166,123.833)"><tspan
             id="tspan66"
             y="0"
             x="0">F</tspan></text>
<path
           id="path70"
           style="fill:none;stroke:#000000;stroke-width:1;stroke-linecap:butt;stroke-linejoin:miter;stroke-miterlimit:4;stroke-dasharray:none;stroke-opacity:1"
           d="M 43.367,121.383 42.833,21.166 c 0.534,0.451 86.934,50.334 86.934,50.334 z" /><path
           id="path72"
           style="fill:none;stroke:#000000;stroke-width:1;stroke-linecap:butt;stroke-linejoin:miter;stroke-miterlimit:4;stroke-dasharray:none;stroke-opacity:1"
           d="m 14.567,71.5 85.6,-49.834 0.166,99.834 z" /></g></g></g></svg>