<?xml version="1.0" encoding="UTF-8" standalone="no"?>
<svg
   xmlns:dc="http://purl.org/dc/elements/1.1/"
   xmlns:cc="http://creativecommons.org/ns#"
   xmlns:rdf="http://www.w3.org/1999/02/22-rdf-syntax-ns#"
   xmlns:svg="http://www.w3.org/2000/svg"
   xmlns="http://www.w3.org/2000/svg"
   xmlns:sodipodi="http://sodipodi.sourceforge.net/DTD/sodipodi-0.dtd"
   xmlns:inkscape="http://www.inkscape.org/namespaces/inkscape"
   version="1.1"
   width="200"
   height="250"
   id="svg117"
   sodipodi:docname="graph_iso1.svg"
   inkscape:version="0.92.3 (2405546, 2018-03-11)">
  <metadata
     id="metadata121">
    <rdf:RDF>
      <cc:Work
         rdf:about="">
        <dc:format>image/svg+xml</dc:format>
        <dc:type
           rdf:resource="http://purl.org/dc/dcmitype/StillImage" />
        <dc:title></dc:title>
      </cc:Work>
    </rdf:RDF>
  </metadata>
  <sodipodi:namedview
     pagecolor="#ffffff"
     bordercolor="#666666"
     borderopacity="1"
     objecttolerance="10"
     gridtolerance="10"
     guidetolerance="10"
     inkscape:pageopacity="0"
     inkscape:pageshadow="2"
     inkscape:window-width="2560"
     inkscape:window-height="1346"
     id="namedview119"
     showgrid="false"
     inkscape:snap-object-midpoints="true"
     inkscape:zoom="3.7206155"
     inkscape:cx="155.96556"
     inkscape:cy="135.80357"
     inkscape:window-x="-11"
     inkscape:window-y="-11"
     inkscape:window-maximized="1"
     inkscape:current-layer="svg117" />
  <defs
     id="defs5" />
  <path
     d="M 163.58163,14.423472 26.081633,86.15591"
     stroke-miterlimit="10"
     id="path11"
     inkscape:connector-curvature="0"
     style="fill:none;stroke:#000000;stroke-width:2.5;stroke-linecap:round;stroke-linejoin:round;stroke-miterlimit:10;stroke-opacity:0.69803922;paint-order:fill stroke markers"
     sodipodi:nodetypes="cc" />
  <path
     d="M 164.08163,86.15591 26.581633,14.423472"
     stroke-miterlimit="10"
     id="path15"
     inkscape:connector-curvature="0"
     style="fill:none;stroke:#000000;stroke-width:2.5;stroke-linecap:round;stroke-linejoin:round;stroke-miterlimit:10;stroke-opacity:0.69803922;paint-order:fill stroke markers"
     sodipodi:nodetypes="cc" />
  <path
     d="M 29.581633,159.05102 163.58163,229.62078"
     stroke-miterlimit="10"
     id="path19"
     inkscape:connector-curvature="0"
     style="fill:none;stroke:#000000;stroke-width:2.5;stroke-linecap:round;stroke-linejoin:round;stroke-miterlimit:10;stroke-opacity:0.69803922;paint-order:fill stroke markers"
     sodipodi:nodetypes="cc" />
  <path
     d="M 26.581633,229.62078 163.58163,157.88835"
     stroke-miterlimit="10"
     id="path23"
     inkscape:connector-curvature="0"
     style="fill:none;stroke:#000000;stroke-width:2.5;stroke-linecap:round;stroke-linejoin:round;stroke-miterlimit:10;stroke-opacity:0.69803922;paint-order:fill stroke markers"
     sodipodi:nodetypes="cc" />
  <path
     d="M 163.58163,157.88835 26.081633,14.423472"
     stroke-miterlimit="10"
     id="path25"
     inkscape:connector-curvature="0"
     style="fill:none;stroke:#000000;stroke-width:2.5;stroke-linecap:round;stroke-linejoin:round;stroke-miterlimit:10;stroke-opacity:0.69803922;paint-order:fill stroke markers"
     sodipodi:nodetypes="cc" />
  <path
     d="M 163.58163,86.15591 26.581633,229.62078"
     stroke-miterlimit="10"
     id="path27"
     inkscape:connector-curvature="0"
     style="fill:none;stroke:#000000;stroke-width:2.5;stroke-linecap:round;stroke-linejoin:round;stroke-miterlimit:10;stroke-opacity:0.69803922;paint-order:fill stroke markers"
     sodipodi:nodetypes="cc" />
  <path
     d="M 26.581633,86.15591 164.08163,229.62078"
     stroke-miterlimit="10"
     id="path29"
     inkscape:connector-curvature="0"
     style="fill:none;stroke:#000000;stroke-width:2.5;stroke-linecap:round;stroke-linejoin:round;stroke-miterlimit:10;stroke-opacity:0.69803922;paint-order:fill stroke markers"
     sodipodi:nodetypes="cc" />
  <path
     d="M 163.58163,14.423472 26.581633,157.88835"
     stroke-miterlimit="10"
     id="path31"
     inkscape:connector-curvature="0"
     style="fill:none;stroke:#000000;stroke-width:2.5;stroke-linecap:round;stroke-linejoin:round;stroke-miterlimit:10;stroke-opacity:0.69803922;paint-order:fill stroke markers"
     sodipodi:nodetypes="cc" />
  <path
     d="M 26.081633,14.423472 H 163.58163"
     stroke-miterlimit="10"
     id="path9"
     inkscape:connector-curvature="0"
     style="fill:none;stroke:#000000;stroke-width:2.5;stroke-linecap:round;stroke-linejoin:round;stroke-miterlimit:10;stroke-opacity:0.69803922;paint-order:fill stroke markers"
     sodipodi:nodetypes="cc" />
  <path
     d="m 31.081633,14.423472 c 0,2.76142 -2.23858,5 -5,5 -2.76142,0 -5,-2.23858 -5,-5 0,-2.76142 2.23858,-5.0000004 5,-5.0000004 2.76142,0 5,2.2385804 5,5.0000004 z"
     id="path33"
     inkscape:connector-curvature="0"
     style="fill:#4d4dff;fill-opacity:1;stroke:none;paint-order:stroke fill markers" />
  <path
     d="m 31.581633,14.423472 c 0,2.76142 -2.23858,5 -5,5 -2.76142,0 -5,-2.23858 -5,-5 0,-2.76142 2.23858,-5.0000004 5,-5.0000004 2.76142,0 5,2.2385804 5,5.0000004 z"
     stroke-miterlimit="10"
     id="path35"
     inkscape:connector-curvature="0"
     style="fill:none;stroke:#000000;stroke-linecap:round;stroke-linejoin:round;stroke-miterlimit:10;stroke-opacity:1;paint-order:fill stroke markers" />
  <text
     font-size="16px"
     font-style="normal"
     font-weight="normal"
     text-decoration="normal"
     x="3.8698959"
     y="20.255503"
     dominant-baseline="alphabetic"
     id="text41"
     style="font-style:normal;font-weight:normal;font-size:16px;font-family:geogebra-sans-serif, sans-serif;dominant-baseline:alphabetic;text-anchor:start;fill:#4d4dff;fill-opacity:1;stroke:none">A</text>
  <path
     d="m 169.08163,14.423472 c 0,2.76142 -2.23858,5 -5,5 -2.76142,0 -5,-2.23858 -5,-5 0,-2.76142 2.23858,-5.0000004 5,-5.0000004 2.76142,0 5,2.2385804 5,5.0000004 z"
     id="path43"
     inkscape:connector-curvature="0"
     style="fill:#4d4dff;fill-opacity:1;stroke:none;paint-order:stroke fill markers" />
  <path
     d="m 168.58163,14.423472 c 0,2.76142 -2.23858,5 -5,5 -2.76142,0 -5,-2.23858 -5,-5 0,-2.76142 2.23858,-5.0000004 5,-5.0000004 2.76142,0 5,2.2385804 5,5.0000004 z"
     stroke-miterlimit="10"
     id="path45"
     inkscape:connector-curvature="0"
     style="fill:none;stroke:#000000;stroke-linecap:round;stroke-linejoin:round;stroke-miterlimit:10;stroke-opacity:1;paint-order:fill stroke markers" />
  <text
     font-size="16px"
     font-style="normal"
     font-weight="normal"
     text-decoration="normal"
     x="174.98709"
     y="20.255503"
     dominant-baseline="alphabetic"
     id="text51"
     style="font-style:normal;font-weight:normal;font-size:16px;font-family:geogebra-sans-serif, sans-serif;dominant-baseline:alphabetic;text-anchor:start;fill:#4d4dff;fill-opacity:1;stroke:none">B</text>
  <path
     d="m 26.581633,86.15591 136.999997,-0.5"
     stroke-miterlimit="10"
     id="path13"
     inkscape:connector-curvature="0"
     style="fill:none;stroke:#000000;stroke-width:2.5;stroke-linecap:round;stroke-linejoin:round;stroke-miterlimit:10;stroke-opacity:0.69803922;paint-order:fill stroke markers"
     sodipodi:nodetypes="cc" />
  <path
     d="m 31.081633,86.15591 c 0,2.76142 -2.23858,5 -5,5 -2.76142,0 -5,-2.23858 -5,-5 0,-2.76142 2.23858,-5 5,-5 2.76142,0 5,2.23858 5,5 z"
     id="path53"
     inkscape:connector-curvature="0"
     style="fill:#4d4dff;fill-opacity:1;stroke:none;paint-order:stroke fill markers" />
  <path
     d="m 31.581633,86.15591 c 0,2.76142 -2.23858,5 -5,5 -2.76142,0 -5,-2.23858 -5,-5 0,-2.76142 2.23858,-5 5,-5 2.76142,0 5,2.23858 5,5 z"
     stroke-miterlimit="10"
     id="path55"
     inkscape:connector-curvature="0"
     style="fill:none;stroke:#000000;stroke-linecap:round;stroke-linejoin:round;stroke-miterlimit:10;stroke-opacity:1;paint-order:fill stroke markers" />
  <text
     font-size="16px"
     font-style="normal"
     font-weight="normal"
     text-decoration="normal"
     x="3.0964584"
     y="91.980133"
     dominant-baseline="alphabetic"
     id="text61"
     style="font-style:normal;font-weight:normal;font-size:16px;font-family:geogebra-sans-serif, sans-serif;dominant-baseline:alphabetic;text-anchor:start;fill:#4d4dff;fill-opacity:1;stroke:none">C</text>
  <path
     d="m 169.08163,86.15591 c 0,2.76142 -2.23858,5 -5,5 -2.76142,0 -5,-2.23858 -5,-5 0,-2.76142 2.23858,-5 5,-5 2.76142,0 5,2.23858 5,5 z"
     id="path63"
     inkscape:connector-curvature="0"
     style="fill:#4d4dff;fill-opacity:1;stroke:none;paint-order:stroke fill markers" />
  <path
     d="m 168.58163,86.15591 c 0,2.76142 -2.23858,5 -5,5 -2.76142,0 -5,-2.23858 -5,-5 0,-2.76142 2.23858,-5 5,-5 2.76142,0 5,2.23858 5,5 z"
     stroke-miterlimit="10"
     id="path65"
     inkscape:connector-curvature="0"
     style="fill:none;stroke:#000000;stroke-linecap:round;stroke-linejoin:round;stroke-miterlimit:10;stroke-opacity:1;paint-order:fill stroke markers" />
  <text
     font-size="16px"
     font-style="normal"
     font-weight="normal"
     text-decoration="normal"
     x="173.45584"
     y="91.987946"
     dominant-baseline="alphabetic"
     id="text71"
     style="font-style:normal;font-weight:normal;font-size:16px;font-family:geogebra-sans-serif, sans-serif;dominant-baseline:alphabetic;text-anchor:start;fill:#4d4dff;fill-opacity:1;stroke:none">D</text>
  <path
     d="m 163.58163,157.88835 -133.999997,1.5"
     stroke-miterlimit="10"
     id="path17"
     inkscape:connector-curvature="0"
     style="fill:none;stroke:#000000;stroke-width:2.5;stroke-linecap:round;stroke-linejoin:round;stroke-miterlimit:10;stroke-opacity:0.69803922;paint-order:fill stroke markers"
     sodipodi:nodetypes="cc" />
  <path
     d="m 169.08163,157.88835 c 0,2.76142 -2.23858,5 -5,5 -2.76142,0 -5,-2.23858 -5,-5 0,-2.76142 2.23858,-5 5,-5 2.76142,0 5,2.23858 5,5 z"
     id="path73"
     inkscape:connector-curvature="0"
     style="fill:#4d4dff;fill-opacity:1;stroke:none;paint-order:stroke fill markers" />
  <path
     d="m 168.58163,157.88835 c 0,2.76142 -2.23858,5 -5,5 -2.76142,0 -5,-2.23858 -5,-5 0,-2.76142 2.23858,-5 5,-5 2.76142,0 5,2.23858 5,5 z"
     stroke-miterlimit="10"
     id="path75"
     inkscape:connector-curvature="0"
     style="fill:none;stroke:#000000;stroke-linecap:round;stroke-linejoin:round;stroke-miterlimit:10;stroke-opacity:1;paint-order:fill stroke markers" />
  <text
     font-size="16px"
     font-style="normal"
     font-weight="normal"
     text-decoration="normal"
     x="175.7449"
     y="163.72037"
     dominant-baseline="alphabetic"
     id="text81"
     style="font-style:normal;font-weight:normal;font-size:16px;font-family:geogebra-sans-serif, sans-serif;dominant-baseline:alphabetic;text-anchor:start;fill:#4d4dff;fill-opacity:1;stroke:none">E</text>
  <path
     d="m 31.081633,157.88835 c 0,2.76142 -2.23858,5 -5,5 -2.761424,0 -5,-2.23858 -5,-5 0,-2.76142 2.238576,-5 5,-5 2.76142,0 5,2.23858 5,5 z"
     id="path83"
     inkscape:connector-curvature="0"
     style="fill:#4d4dff;fill-opacity:1;stroke:none;paint-order:stroke fill markers" />
  <path
     d="m 31.581633,157.88835 c 0,2.76142 -2.23858,5 -5,5 -2.761424,0 -5,-2.23858 -5,-5 0,-2.76142 2.238576,-5 5,-5 2.76142,0 5,2.23858 5,5 z"
     stroke-miterlimit="10"
     id="path85"
     inkscape:connector-curvature="0"
     style="fill:none;stroke:#000000;stroke-linecap:round;stroke-linejoin:round;stroke-miterlimit:10;stroke-opacity:1;paint-order:fill stroke markers" />
  <text
     font-size="16px"
     font-style="normal"
     font-weight="normal"
     text-decoration="normal"
     x="2.4245834"
     y="163.72037"
     dominant-baseline="alphabetic"
     id="text91"
     style="font-style:normal;font-weight:normal;font-size:16px;font-family:geogebra-sans-serif, sans-serif;dominant-baseline:alphabetic;text-anchor:start;fill:#4d4dff;fill-opacity:1;stroke:none">F</text>
  <path
     d="M 163.58163,229.62078 H 26.581633"
     stroke-miterlimit="10"
     id="path21"
     inkscape:connector-curvature="0"
     style="fill:none;stroke:#000000;stroke-width:2.5;stroke-linecap:round;stroke-linejoin:round;stroke-miterlimit:10;stroke-opacity:0.69803922;paint-order:fill stroke markers"
     sodipodi:nodetypes="cc" />
  <path
     d="m 169.08163,229.62078 c 0,2.76142 -2.23858,5 -5,5 -2.76142,0 -5,-2.23858 -5,-5 0,-2.76142 2.23858,-5 5,-5 2.76142,0 5,2.23858 5,5 z"
     id="path93"
     inkscape:connector-curvature="0"
     style="fill:#4d4dff;fill-opacity:1;stroke:none;paint-order:stroke fill markers" />
  <path
     d="m 168.58163,229.62078 c 0,2.76142 -2.23858,5 -5,5 -2.76142,0 -5,-2.23858 -5,-5 0,-2.76142 2.23858,-5 5,-5 2.76142,0 5,2.23858 5,5 z"
     stroke-miterlimit="10"
     id="path95"
     inkscape:connector-curvature="0"
     style="fill:none;stroke:#000000;stroke-linecap:round;stroke-linejoin:round;stroke-miterlimit:10;stroke-opacity:1;paint-order:fill stroke markers" />
  <text
     font-size="16px"
     font-style="normal"
     font-weight="normal"
     text-decoration="normal"
     x="173.7449"
     y="235.44499"
     dominant-baseline="alphabetic"
     id="text101"
     style="font-style:normal;font-weight:normal;font-size:16px;font-family:geogebra-sans-serif, sans-serif;dominant-baseline:alphabetic;text-anchor:start;fill:#4d4dff;fill-opacity:1;stroke:none">G</text>
  <path
     d="m 31.081633,229.62078 c 0,2.76142 -2.238576,5 -5,5 -2.761424,0 -5,-2.23858 -5,-5 0,-2.76142 2.238576,-5 5,-5 2.761424,0 5,2.23858 5,5 z"
     id="path103"
     inkscape:connector-curvature="0"
     style="fill:#4d4dff;fill-opacity:1;stroke:none;paint-order:stroke fill markers" />
  <path
     d="m 31.581633,229.62078 c 0,2.76142 -2.238576,5 -5,5 -2.761424,0 -5,-2.23858 -5,-5 0,-2.76142 2.238576,-5 5,-5 2.761424,0 5,2.23858 5,5 z"
     stroke-miterlimit="10"
     id="path105"
     inkscape:connector-curvature="0"
     style="fill:none;stroke:#000000;stroke-linecap:round;stroke-linejoin:round;stroke-miterlimit:10;stroke-opacity:1;paint-order:fill stroke markers" />
  <text
     font-size="16px"
     font-style="normal"
     font-weight="normal"
     text-decoration="normal"
     x="2.4245834"
     y="235.4528"
     dominant-baseline="alphabetic"
     id="text111"
     style="font-style:normal;font-weight:normal;font-size:16px;font-family:geogebra-sans-serif, sans-serif;dominant-baseline:alphabetic;text-anchor:start;fill:#4d4dff;fill-opacity:1;stroke:none">H</text>
  <path
     id="path2"
     d="M 0,-464 H 1192 V 250 H 0 Z"
     inkscape:connector-curvature="0"
     style="fill:none;stroke:none" />
</svg>
