<?xml version="1.0" encoding="UTF-8" standalone="no"?>
<!-- Created with Inkscape (http://www.inkscape.org/) -->

<svg
   xmlns:dc="http://purl.org/dc/elements/1.1/"
   xmlns:cc="http://creativecommons.org/ns#"
   xmlns:rdf="http://www.w3.org/1999/02/22-rdf-syntax-ns#"
   xmlns:svg="http://www.w3.org/2000/svg"
   xmlns="http://www.w3.org/2000/svg"
   xmlns:sodipodi="http://sodipodi.sourceforge.net/DTD/sodipodi-0.dtd"
   xmlns:inkscape="http://www.inkscape.org/namespaces/inkscape"
   version="1.1"
   id="svg2"
   xml:space="preserve"
   width="144"
   height="144"
   viewBox="0 0 144 144"
   sodipodi:docname="isgraph7.svg"
   inkscape:version="0.92.3 (2405546, 2018-03-11)"><metadata
     id="metadata8"><rdf:RDF><cc:Work
         rdf:about=""><dc:format>image/svg+xml</dc:format><dc:type
           rdf:resource="http://purl.org/dc/dcmitype/StillImage" /><dc:title></dc:title></cc:Work></rdf:RDF></metadata><defs
     id="defs6"><clipPath
       clipPathUnits="userSpaceOnUse"
       id="clipPath18"><path
         d="M 0,108 H 108 V 0 H 0 Z"
         id="path16"
         inkscape:connector-curvature="0" /></clipPath></defs><sodipodi:namedview
     pagecolor="#ffffff"
     bordercolor="#666666"
     borderopacity="1"
     objecttolerance="10"
     gridtolerance="10"
     guidetolerance="10"
     inkscape:pageopacity="0"
     inkscape:pageshadow="2"
     inkscape:window-width="2560"
     inkscape:window-height="1346"
     id="namedview4"
     showgrid="false"
     inkscape:zoom="1.6388889"
     inkscape:cx="72"
     inkscape:cy="72"
     inkscape:window-x="-11"
     inkscape:window-y="-11"
     inkscape:window-maximized="1"
     inkscape:current-layer="g10" /><g
     id="g10"
     inkscape:groupmode="layer"
     inkscape:label="isgraph7"
     transform="matrix(1.3333333,0,0,-1.3333333,0,144)"><g
       id="g12"><g
         id="g14"
         clip-path="url(#clipPath18)"><path
           d="m 16.333,90.792 c 0,-1.013 -0.82,-1.834 -1.833,-1.834 -1.012,0 -1.833,0.821 -1.833,1.834 0,1.012 0.821,1.833 1.833,1.833 1.013,0 1.833,-0.821 1.833,-1.833"
           style="fill:#000000;fill-opacity:1;fill-rule:nonzero;stroke:none"
           id="path20"
           inkscape:connector-curvature="0" /><path
           d="m 16.333,90.792 c 0,-1.013 -0.82,-1.834 -1.833,-1.834 -1.012,0 -1.833,0.821 -1.833,1.834 0,1.012 0.821,1.833 1.833,1.833 1.013,0 1.833,-0.821 1.833,-1.833 z"
           style="fill:none;stroke:#000000;stroke-width:1;stroke-linecap:butt;stroke-linejoin:miter;stroke-miterlimit:4;stroke-dasharray:none;stroke-opacity:1"
           id="path22"
           inkscape:connector-curvature="0" /><path
           d="m 53.583,67.499 c 0,-1.012 -0.821,-1.832 -1.834,-1.832 -1.012,0 -1.832,0.82 -1.832,1.832 0,1.015 0.82,1.835 1.832,1.835 1.013,0 1.834,-0.82 1.834,-1.835"
           style="fill:#000000;fill-opacity:1;fill-rule:nonzero;stroke:none"
           id="path24"
           inkscape:connector-curvature="0" /><path
           d="m 53.583,67.499 c 0,-1.012 -0.821,-1.832 -1.834,-1.832 -1.012,0 -1.832,0.82 -1.832,1.832 0,1.015 0.82,1.835 1.832,1.835 1.013,0 1.834,-0.82 1.834,-1.835 z"
           style="fill:none;stroke:#000000;stroke-width:1;stroke-linecap:butt;stroke-linejoin:miter;stroke-miterlimit:4;stroke-dasharray:none;stroke-opacity:1"
           id="path26"
           inkscape:connector-curvature="0" /><path
           d="m 25.333,30.001 c 0,-1.012 -0.82,-1.834 -1.834,-1.834 -1.012,0 -1.832,0.822 -1.832,1.834 0,1.012 0.82,1.832 1.832,1.832 1.014,0 1.834,-0.82 1.834,-1.832"
           style="fill:#000000;fill-opacity:1;fill-rule:nonzero;stroke:none"
           id="path28"
           inkscape:connector-curvature="0" /><path
           d="m 25.333,30.001 c 0,-1.012 -0.82,-1.834 -1.834,-1.834 -1.012,0 -1.832,0.822 -1.832,1.834 0,1.012 0.82,1.832 1.832,1.832 1.014,0 1.834,-0.82 1.834,-1.832 z"
           style="fill:none;stroke:#000000;stroke-width:1;stroke-linecap:butt;stroke-linejoin:miter;stroke-miterlimit:4;stroke-dasharray:none;stroke-opacity:1"
           id="path30"
           inkscape:connector-curvature="0" /><path
           d="m 79.333,73.667 c 0,-1.012 -0.821,-1.834 -1.833,-1.834 -1.013,0 -1.834,0.822 -1.834,1.834 0,1.012 0.821,1.833 1.834,1.833 1.012,0 1.833,-0.821 1.833,-1.833"
           style="fill:#000000;fill-opacity:1;fill-rule:nonzero;stroke:none"
           id="path32"
           inkscape:connector-curvature="0" /><path
           d="m 79.333,73.667 c 0,-1.012 -0.821,-1.834 -1.833,-1.834 -1.013,0 -1.834,0.822 -1.834,1.834 0,1.012 0.821,1.833 1.834,1.833 1.012,0 1.833,-0.821 1.833,-1.833 z"
           style="fill:none;stroke:#000000;stroke-width:1;stroke-linecap:butt;stroke-linejoin:miter;stroke-miterlimit:4;stroke-dasharray:none;stroke-opacity:1"
           id="path34"
           inkscape:connector-curvature="0" /><path
           d="m 67.665,55.001 c 0,-1.012 -0.82,-1.834 -1.833,-1.834 -1.012,0 -1.832,0.822 -1.832,1.834 0,1.012 0.82,1.832 1.832,1.832 1.013,0 1.833,-0.82 1.833,-1.832"
           style="fill:#000000;fill-opacity:1;fill-rule:nonzero;stroke:none"
           id="path36"
           inkscape:connector-curvature="0" /><path
           d="m 67.665,55.001 c 0,-1.012 -0.82,-1.834 -1.833,-1.834 -1.012,0 -1.832,0.822 -1.832,1.834 0,1.012 0.82,1.832 1.832,1.832 1.013,0 1.833,-0.82 1.833,-1.832 z"
           style="fill:none;stroke:#000000;stroke-width:1;stroke-linecap:butt;stroke-linejoin:miter;stroke-miterlimit:4;stroke-dasharray:none;stroke-opacity:1"
           id="path38"
           inkscape:connector-curvature="0" /><path
           d="M 78.833,68.417 C 78.833,61.007 72.826,55 65.416,55 58.007,55 52,61.007 52,68.417 c 0,7.41 6.007,13.416 13.416,13.416 7.41,0 13.417,-6.006 13.417,-13.416 z"
           style="fill:none;stroke:#000000;stroke-width:1;stroke-linecap:butt;stroke-linejoin:miter;stroke-miterlimit:4;stroke-dasharray:none;stroke-opacity:1"
           id="path40"
           inkscape:connector-curvature="0" /><path
           d="M 14,91 51.75,67.5"
           style="fill:none;stroke:#000000;stroke-width:1;stroke-linecap:butt;stroke-linejoin:miter;stroke-miterlimit:4;stroke-dasharray:none;stroke-opacity:1"
           id="path42"
           inkscape:connector-curvature="0" /><path
           d="M 23,30.333 51.75,67.5"
           style="fill:none;stroke:#000000;stroke-width:1;stroke-linecap:butt;stroke-linejoin:miter;stroke-miterlimit:4;stroke-dasharray:none;stroke-opacity:1"
           id="path44"
           inkscape:connector-curvature="0" /><path
           d="M 14,91 23.5,30"
           style="fill:none;stroke:#000000;stroke-width:1;stroke-linecap:butt;stroke-linejoin:miter;stroke-miterlimit:4;stroke-dasharray:none;stroke-opacity:1"
           id="path46"
           inkscape:connector-curvature="0" /></g></g></g></svg>