<?xml version="1.0" encoding="UTF-8" standalone="no"?>
<!-- Created with Inkscape (http://www.inkscape.org/) -->

<svg
   xmlns:dc="http://purl.org/dc/elements/1.1/"
   xmlns:cc="http://creativecommons.org/ns#"
   xmlns:rdf="http://www.w3.org/1999/02/22-rdf-syntax-ns#"
   xmlns:svg="http://www.w3.org/2000/svg"
   xmlns="http://www.w3.org/2000/svg"
   xmlns:sodipodi="http://sodipodi.sourceforge.net/DTD/sodipodi-0.dtd"
   xmlns:inkscape="http://www.inkscape.org/namespaces/inkscape"
   version="1.1"
   id="svg2"
   xml:space="preserve"
   width="144"
   height="144"
   viewBox="0 0 144 144"
   sodipodi:docname="isgraph1.svg"
   inkscape:version="0.92.3 (2405546, 2018-03-11)"><metadata
     id="metadata8"><rdf:RDF><cc:Work
         rdf:about=""><dc:format>image/svg+xml</dc:format><dc:type
           rdf:resource="http://purl.org/dc/dcmitype/StillImage" /><dc:title></dc:title></cc:Work></rdf:RDF></metadata><defs
     id="defs6"><clipPath
       clipPathUnits="userSpaceOnUse"
       id="clipPath18"><path
         d="M 0,108 H 108 V 0 H 0 Z"
         id="path16"
         inkscape:connector-curvature="0" /></clipPath></defs><sodipodi:namedview
     pagecolor="#ffffff"
     bordercolor="#666666"
     borderopacity="1"
     objecttolerance="10"
     gridtolerance="10"
     guidetolerance="10"
     inkscape:pageopacity="0"
     inkscape:pageshadow="2"
     inkscape:window-width="2560"
     inkscape:window-height="1346"
     id="namedview4"
     showgrid="false"
     inkscape:zoom="1.6388889"
     inkscape:cx="72"
     inkscape:cy="72"
     inkscape:window-x="-11"
     inkscape:window-y="-11"
     inkscape:window-maximized="1"
     inkscape:current-layer="g10" /><g
     id="g10"
     inkscape:groupmode="layer"
     inkscape:label="isgraph1"
     transform="matrix(1.3333333,0,0,-1.3333333,0,144)"><g
       id="g12"><g
         id="g14"
         clip-path="url(#clipPath18)"><path
           d="m 12.667,95 c 0,-1.012 -0.821,-1.833 -1.834,-1.833 C 9.821,93.167 9,93.988 9,95 c 0,1.013 0.821,1.833 1.833,1.833 1.013,0 1.834,-0.82 1.834,-1.833"
           style="fill:#000000;fill-opacity:1;fill-rule:nonzero;stroke:none"
           id="path20"
           inkscape:connector-curvature="0" /><path
           d="m 12.667,95 c 0,-1.012 -0.821,-1.833 -1.834,-1.833 C 9.821,93.167 9,93.988 9,95 c 0,1.013 0.821,1.833 1.833,1.833 1.013,0 1.834,-0.82 1.834,-1.833 z"
           style="fill:none;stroke:#000000;stroke-width:1;stroke-linecap:butt;stroke-linejoin:miter;stroke-miterlimit:4;stroke-dasharray:none;stroke-opacity:1"
           id="path22"
           inkscape:connector-curvature="0" /><path
           d="m 100.333,44.666 c 0,-1.012 -0.82,-1.832 -1.833,-1.832 -1.012,0 -1.833,0.82 -1.833,1.832 0,1.014 0.821,1.834 1.833,1.834 1.013,0 1.833,-0.82 1.833,-1.834"
           style="fill:#000000;fill-opacity:1;fill-rule:nonzero;stroke:none"
           id="path24"
           inkscape:connector-curvature="0" /><path
           d="m 100.333,44.666 c 0,-1.012 -0.82,-1.832 -1.833,-1.832 -1.012,0 -1.833,0.82 -1.833,1.832 0,1.014 0.821,1.834 1.833,1.834 1.013,0 1.833,-0.82 1.833,-1.834 z"
           style="fill:none;stroke:#000000;stroke-width:1;stroke-linecap:butt;stroke-linejoin:miter;stroke-miterlimit:4;stroke-dasharray:none;stroke-opacity:1"
           id="path26"
           inkscape:connector-curvature="0" /><path
           d="m 60,33 c 0,-1.012 -0.82,-1.834 -1.834,-1.834 -1.012,0 -1.832,0.822 -1.832,1.834 0,1.012 0.82,1.833 1.832,1.833 C 59.18,34.833 60,34.012 60,33"
           style="fill:#000000;fill-opacity:1;fill-rule:nonzero;stroke:none"
           id="path28"
           inkscape:connector-curvature="0" /><path
           d="m 60,33 c 0,-1.012 -0.82,-1.834 -1.834,-1.834 -1.012,0 -1.832,0.822 -1.832,1.834 0,1.012 0.82,1.833 1.832,1.833 C 59.18,34.833 60,34.012 60,33 Z"
           style="fill:none;stroke:#000000;stroke-width:1;stroke-linecap:butt;stroke-linejoin:miter;stroke-miterlimit:4;stroke-dasharray:none;stroke-opacity:1"
           id="path30"
           inkscape:connector-curvature="0" /><path
           d="m 15,18.667 c 0,-1.012 -0.821,-1.833 -1.833,-1.833 -1.013,0 -1.834,0.821 -1.834,1.833 0,1.013 0.821,1.833 1.834,1.833 1.012,0 1.833,-0.82 1.833,-1.833"
           style="fill:#000000;fill-opacity:1;fill-rule:nonzero;stroke:none"
           id="path32"
           inkscape:connector-curvature="0" /><path
           d="m 15,18.667 c 0,-1.012 -0.821,-1.833 -1.833,-1.833 -1.013,0 -1.834,0.821 -1.834,1.833 0,1.013 0.821,1.833 1.834,1.833 1.012,0 1.833,-0.82 1.833,-1.833 z"
           style="fill:none;stroke:#000000;stroke-width:1;stroke-linecap:butt;stroke-linejoin:miter;stroke-miterlimit:4;stroke-dasharray:none;stroke-opacity:1"
           id="path34"
           inkscape:connector-curvature="0" /><path
           d="m 98.5,81 c 0,-1.012 -0.82,-1.833 -1.834,-1.833 -1.012,0 -1.832,0.821 -1.832,1.833 0,1.013 0.82,1.833 1.832,1.833 1.014,0 1.834,-0.82 1.834,-1.833"
           style="fill:#000000;fill-opacity:1;fill-rule:nonzero;stroke:none"
           id="path36"
           inkscape:connector-curvature="0" /><path
           d="m 98.5,81 c 0,-1.012 -0.82,-1.833 -1.834,-1.833 -1.012,0 -1.832,0.821 -1.832,1.833 0,1.013 0.82,1.833 1.832,1.833 1.014,0 1.834,-0.82 1.834,-1.833 z"
           style="fill:none;stroke:#000000;stroke-width:1;stroke-linecap:butt;stroke-linejoin:miter;stroke-miterlimit:4;stroke-dasharray:none;stroke-opacity:1"
           id="path38"
           inkscape:connector-curvature="0" /><path
           d="m 54,86.5 c 0,-1.012 -0.821,-1.833 -1.833,-1.833 -1.013,0 -1.834,0.821 -1.834,1.833 0,1.013 0.821,1.833 1.834,1.833 1.012,0 1.833,-0.82 1.833,-1.833"
           style="fill:#000000;fill-opacity:1;fill-rule:nonzero;stroke:none"
           id="path40"
           inkscape:connector-curvature="0" /><path
           d="m 54,86.5 c 0,-1.012 -0.821,-1.833 -1.833,-1.833 -1.013,0 -1.834,0.821 -1.834,1.833 0,1.013 0.821,1.833 1.834,1.833 1.012,0 1.833,-0.82 1.833,-1.833 z"
           style="fill:none;stroke:#000000;stroke-width:1;stroke-linecap:butt;stroke-linejoin:miter;stroke-miterlimit:4;stroke-dasharray:none;stroke-opacity:1"
           id="path42"
           inkscape:connector-curvature="0" /><path
           d="M 51.781,86.708 C 49.913,88.205 41.778,96.756 37.167,97.5 32,98.333 25,89 20.833,89.167 c -4.166,0.166 -10.666,5.5 -10.666,5.5"
           style="fill:none;stroke:#000000;stroke-width:1;stroke-linecap:butt;stroke-linejoin:miter;stroke-miterlimit:4;stroke-dasharray:none;stroke-opacity:1"
           id="path44"
           inkscape:connector-curvature="0" /><path
           d="m 96.333,80.833 c 0,0 -11.833,-1.166 -13.333,2.834 -1.5,4 -0.167,12.333 -4.667,12.333 -4.5,0 -20.999,0.333 -26.166,-9.5 -0.026,-0.05 -0.161,0.028 -0.386,0.208"
           style="fill:none;stroke:#000000;stroke-width:1;stroke-linecap:butt;stroke-linejoin:miter;stroke-miterlimit:4;stroke-dasharray:none;stroke-opacity:1"
           id="path46"
           inkscape:connector-curvature="0" /><path
           d="m 12.333,18.5 c 0.167,0.333 -12,6.334 -8.833,11.667 3.167,5.333 7.667,-1.334 11,1.166 3.333,2.5 15.833,41.834 22.333,43.834 6.5,2 10,8 14.334,11"
           style="fill:none;stroke:#000000;stroke-width:1;stroke-linecap:butt;stroke-linejoin:miter;stroke-miterlimit:4;stroke-dasharray:none;stroke-opacity:1"
           id="path48"
           inkscape:connector-curvature="0" /><path
           d="M 57.667,32.667 C 57.5,32.5 45.5,32.499 48.333,24.833 51.167,17.167 56.167,14.667 64.5,17 c 8.333,2.333 1.999,8.833 6.333,11 4.334,2.167 15.668,9.167 18.334,4.667 2.666,-4.5 5.666,-7.167 8.833,-5.167 3.167,2 -7.001,9.833 -5.167,12.833 1.834,3 5.5,-1.999 8.167,0.334 2.667,2.333 -0.833,4.167 -2,4.5"
           style="fill:none;stroke:#000000;stroke-width:1;stroke-linecap:butt;stroke-linejoin:miter;stroke-miterlimit:4;stroke-dasharray:none;stroke-opacity:1"
           id="path50"
           inkscape:connector-curvature="0" /><path
           d="m 51.833,85.167 c 0,0 7.001,-3 2.5,-6.334 -4.5,-3.333 -5.5,-7 -3.5,-9.666 2,-2.667 11.833,1.833 16,-0.834 C 71,65.667 78.167,65.667 76.5,58 c -1.675,-7.703 0.667,-8 1.833,-10.333 1.166,-2.333 8.334,0.832 12.334,0.166 4,-0.666 6.334,-3.333 6,-3.833"
           style="fill:none;stroke:#000000;stroke-width:1;stroke-linecap:butt;stroke-linejoin:miter;stroke-miterlimit:4;stroke-dasharray:none;stroke-opacity:1"
           id="path52"
           inkscape:connector-curvature="0" /><path
           d="m 57.833,34 c 0.5,0.333 22.667,16 21.667,23.667 -1,7.666 13.5,22 16.5,22"
           style="fill:none;stroke:#000000;stroke-width:1;stroke-linecap:butt;stroke-linejoin:miter;stroke-miterlimit:4;stroke-dasharray:none;stroke-opacity:1"
           id="path54"
           inkscape:connector-curvature="0" /></g></g></g></svg>