<?xml version="1.0" encoding="UTF-8" standalone="no"?>
<!-- Created with Inkscape (http://www.inkscape.org/) -->

<svg
   xmlns:dc="http://purl.org/dc/elements/1.1/"
   xmlns:cc="http://creativecommons.org/ns#"
   xmlns:rdf="http://www.w3.org/1999/02/22-rdf-syntax-ns#"
   xmlns:svg="http://www.w3.org/2000/svg"
   xmlns="http://www.w3.org/2000/svg"
   xmlns:sodipodi="http://sodipodi.sourceforge.net/DTD/sodipodi-0.dtd"
   xmlns:inkscape="http://www.inkscape.org/namespaces/inkscape"
   version="1.1"
   id="svg2"
   xml:space="preserve"
   width="144"
   height="144"
   viewBox="0 0 144 144"
   sodipodi:docname="isgraph3.svg"
   inkscape:version="0.92.3 (2405546, 2018-03-11)"><metadata
     id="metadata8"><rdf:RDF><cc:Work
         rdf:about=""><dc:format>image/svg+xml</dc:format><dc:type
           rdf:resource="http://purl.org/dc/dcmitype/StillImage" /><dc:title></dc:title></cc:Work></rdf:RDF></metadata><defs
     id="defs6"><clipPath
       clipPathUnits="userSpaceOnUse"
       id="clipPath18"><path
         d="M 0,108 H 108 V 0 H 0 Z"
         id="path16"
         inkscape:connector-curvature="0" /></clipPath></defs><sodipodi:namedview
     pagecolor="#ffffff"
     bordercolor="#666666"
     borderopacity="1"
     objecttolerance="10"
     gridtolerance="10"
     guidetolerance="10"
     inkscape:pageopacity="0"
     inkscape:pageshadow="2"
     inkscape:window-width="2560"
     inkscape:window-height="1346"
     id="namedview4"
     showgrid="false"
     inkscape:zoom="1.6388889"
     inkscape:cx="72"
     inkscape:cy="72"
     inkscape:window-x="-11"
     inkscape:window-y="-11"
     inkscape:window-maximized="1"
     inkscape:current-layer="g10" /><g
     id="g10"
     inkscape:groupmode="layer"
     inkscape:label="isgraph3"
     transform="matrix(1.3333333,0,0,-1.3333333,0,144)"><g
       id="g12"><g
         id="g14"
         clip-path="url(#clipPath18)"><path
           d="m 11.667,66.666 c 0,-1.012 -0.821,-1.833 -1.834,-1.833 C 8.821,64.833 8,65.654 8,66.666 8,67.679 8.821,68.5 9.833,68.5 c 1.013,0 1.834,-0.821 1.834,-1.834"
           style="fill:#000000;fill-opacity:1;fill-rule:nonzero;stroke:none"
           id="path20"
           inkscape:connector-curvature="0" /><path
           d="m 11.667,66.666 c 0,-1.012 -0.821,-1.833 -1.834,-1.833 C 8.821,64.833 8,65.654 8,66.666 8,67.679 8.821,68.5 9.833,68.5 c 1.013,0 1.834,-0.821 1.834,-1.834 z"
           style="fill:none;stroke:#000000;stroke-width:1;stroke-linecap:butt;stroke-linejoin:miter;stroke-miterlimit:4;stroke-dasharray:none;stroke-opacity:1"
           id="path22"
           inkscape:connector-curvature="0" /><path
           d="M 97.834,66.832 C 97.834,65.82 97.014,65 96,65 c -1.012,0 -1.832,0.82 -1.832,1.832 0,1.014 0.82,1.834 1.832,1.834 1.014,0 1.834,-0.82 1.834,-1.834"
           style="fill:#000000;fill-opacity:1;fill-rule:nonzero;stroke:none"
           id="path24"
           inkscape:connector-curvature="0" /><path
           d="M 97.834,66.832 C 97.834,65.82 97.014,65 96,65 c -1.012,0 -1.832,0.82 -1.832,1.832 0,1.014 0.82,1.834 1.832,1.834 1.014,0 1.834,-0.82 1.834,-1.834 z"
           style="fill:none;stroke:#000000;stroke-width:1;stroke-linecap:butt;stroke-linejoin:miter;stroke-miterlimit:4;stroke-dasharray:none;stroke-opacity:1"
           id="path26"
           inkscape:connector-curvature="0" /><path
           d="m 81.332,15.667 c 0,-1.012 -0.82,-1.834 -1.834,-1.834 -1.012,0 -1.832,0.822 -1.832,1.834 0,1.012 0.82,1.832 1.832,1.832 1.014,0 1.834,-0.82 1.834,-1.832"
           style="fill:#000000;fill-opacity:1;fill-rule:nonzero;stroke:none"
           id="path28"
           inkscape:connector-curvature="0" /><path
           d="m 81.332,15.667 c 0,-1.012 -0.82,-1.834 -1.834,-1.834 -1.012,0 -1.832,0.822 -1.832,1.834 0,1.012 0.82,1.832 1.832,1.832 1.014,0 1.834,-0.82 1.834,-1.832 z"
           style="fill:none;stroke:#000000;stroke-width:1;stroke-linecap:butt;stroke-linejoin:miter;stroke-miterlimit:4;stroke-dasharray:none;stroke-opacity:1"
           id="path30"
           inkscape:connector-curvature="0" /><path
           d="m 27.985,15.734 c 0,-1.011 -0.82,-1.833 -1.833,-1.833 -1.012,0 -1.833,0.822 -1.833,1.833 0,1.013 0.821,1.833 1.833,1.833 1.013,0 1.833,-0.82 1.833,-1.833"
           style="fill:#000000;fill-opacity:1;fill-rule:nonzero;stroke:none"
           id="path32"
           inkscape:connector-curvature="0" /><path
           d="m 27.985,15.734 c 0,-1.011 -0.82,-1.833 -1.833,-1.833 -1.012,0 -1.833,0.822 -1.833,1.833 0,1.013 0.821,1.833 1.833,1.833 1.013,0 1.833,-0.82 1.833,-1.833 z"
           style="fill:none;stroke:#000000;stroke-width:1;stroke-linecap:butt;stroke-linejoin:miter;stroke-miterlimit:4;stroke-dasharray:none;stroke-opacity:1"
           id="path34"
           inkscape:connector-curvature="0" /><path
           d="M 55,97.833 C 55,96.821 54.179,96 53.167,96 c -1.013,0 -1.834,0.821 -1.834,1.833 0,1.013 0.821,1.834 1.834,1.834 1.012,0 1.833,-0.821 1.833,-1.834"
           style="fill:#000000;fill-opacity:1;fill-rule:nonzero;stroke:none"
           id="path36"
           inkscape:connector-curvature="0" /><path
           d="M 55,97.833 C 55,96.821 54.179,96 53.167,96 c -1.013,0 -1.834,0.821 -1.834,1.833 0,1.013 0.821,1.834 1.834,1.834 1.012,0 1.833,-0.821 1.833,-1.834 z"
           style="fill:none;stroke:#000000;stroke-width:1;stroke-linecap:butt;stroke-linejoin:miter;stroke-miterlimit:4;stroke-dasharray:none;stroke-opacity:1"
           id="path38"
           inkscape:connector-curvature="0" /><path
           d="M 26.152,15.734 9.601,66.768 53.021,98.299 96.425,66.768 79.873,15.734 Z"
           style="fill:none;stroke:#000000;stroke-width:1;stroke-linecap:butt;stroke-linejoin:miter;stroke-miterlimit:4;stroke-dasharray:none;stroke-opacity:1"
           id="path40"
           inkscape:connector-curvature="0" /><path
           d="M 9.601,66.768 79.5,15.666"
           style="fill:none;stroke:#000000;stroke-width:1;stroke-linecap:butt;stroke-linejoin:miter;stroke-miterlimit:4;stroke-dasharray:none;stroke-opacity:1"
           id="path42"
           inkscape:connector-curvature="0" /><path
           d="m 25.667,15.833 70.666,51.5"
           style="fill:none;stroke:#000000;stroke-width:1;stroke-linecap:butt;stroke-linejoin:miter;stroke-miterlimit:4;stroke-dasharray:none;stroke-opacity:1"
           id="path44"
           inkscape:connector-curvature="0" /><path
           d="M 52.667,98.333 79.5,15.666"
           style="fill:none;stroke:#000000;stroke-width:1;stroke-linecap:butt;stroke-linejoin:miter;stroke-miterlimit:4;stroke-dasharray:none;stroke-opacity:1"
           id="path46"
           inkscape:connector-curvature="0" /><path
           d="M 25.667,15.833 53.021,98.299"
           style="fill:none;stroke:#000000;stroke-width:1;stroke-linecap:butt;stroke-linejoin:miter;stroke-miterlimit:4;stroke-dasharray:none;stroke-opacity:1"
           id="path48"
           inkscape:connector-curvature="0" /><path
           d="M 96.001,66.833 9.601,66.768"
           style="fill:none;stroke:#000000;stroke-width:1;stroke-linecap:butt;stroke-linejoin:miter;stroke-miterlimit:4;stroke-dasharray:none;stroke-opacity:1"
           id="path50"
           inkscape:connector-curvature="0" /></g></g></g></svg>