<?xml version="1.0" encoding="UTF-8" standalone="no"?>
<!-- Created with Inkscape (http://www.inkscape.org/) -->

<svg
   xmlns:dc="http://purl.org/dc/elements/1.1/"
   xmlns:cc="http://creativecommons.org/ns#"
   xmlns:rdf="http://www.w3.org/1999/02/22-rdf-syntax-ns#"
   xmlns:svg="http://www.w3.org/2000/svg"
   xmlns="http://www.w3.org/2000/svg"
   xmlns:sodipodi="http://sodipodi.sourceforge.net/DTD/sodipodi-0.dtd"
   xmlns:inkscape="http://www.inkscape.org/namespaces/inkscape"
   version="1.1"
   id="svg2"
   xml:space="preserve"
   width="144"
   height="144"
   viewBox="0 0 144 144"
   sodipodi:docname="isgraph2.svg"
   inkscape:version="0.92.3 (2405546, 2018-03-11)"><metadata
     id="metadata8"><rdf:RDF><cc:Work
         rdf:about=""><dc:format>image/svg+xml</dc:format><dc:type
           rdf:resource="http://purl.org/dc/dcmitype/StillImage" /><dc:title></dc:title></cc:Work></rdf:RDF></metadata><defs
     id="defs6"><clipPath
       clipPathUnits="userSpaceOnUse"
       id="clipPath18"><path
         d="M 0,108 H 108 V 0 H 0 Z"
         id="path16"
         inkscape:connector-curvature="0" /></clipPath></defs><sodipodi:namedview
     pagecolor="#ffffff"
     bordercolor="#666666"
     borderopacity="1"
     objecttolerance="10"
     gridtolerance="10"
     guidetolerance="10"
     inkscape:pageopacity="0"
     inkscape:pageshadow="2"
     inkscape:window-width="2560"
     inkscape:window-height="1346"
     id="namedview4"
     showgrid="false"
     inkscape:zoom="1.6388889"
     inkscape:cx="72"
     inkscape:cy="72"
     inkscape:window-x="-11"
     inkscape:window-y="-11"
     inkscape:window-maximized="1"
     inkscape:current-layer="g10" /><g
     id="g10"
     inkscape:groupmode="layer"
     inkscape:label="isgraph2"
     transform="matrix(1.3333333,0,0,-1.3333333,0,144)"><g
       id="g12"><g
         id="g14"
         clip-path="url(#clipPath18)"><path
           d="m 16.5,87.5 c 0,-1.013 -0.821,-1.833 -1.833,-1.833 -1.013,0 -1.834,0.82 -1.834,1.833 0,1.012 0.821,1.833 1.834,1.833 1.012,0 1.833,-0.821 1.833,-1.833"
           style="fill:#000000;fill-opacity:1;fill-rule:nonzero;stroke:none"
           id="path20"
           inkscape:connector-curvature="0" /><path
           d="m 16.5,87.5 c 0,-1.013 -0.821,-1.833 -1.833,-1.833 -1.013,0 -1.834,0.82 -1.834,1.833 0,1.012 0.821,1.833 1.834,1.833 1.012,0 1.833,-0.821 1.833,-1.833 z"
           style="fill:none;stroke:#000000;stroke-width:1;stroke-linecap:butt;stroke-linejoin:miter;stroke-miterlimit:4;stroke-dasharray:none;stroke-opacity:1"
           id="path22"
           inkscape:connector-curvature="0" /><path
           d="m 95,21.499 c 0,-1.012 -0.82,-1.832 -1.834,-1.832 -1.012,0 -1.832,0.82 -1.832,1.832 0,1.014 0.82,1.834 1.832,1.834 1.014,0 1.834,-0.82 1.834,-1.834"
           style="fill:#000000;fill-opacity:1;fill-rule:nonzero;stroke:none"
           id="path24"
           inkscape:connector-curvature="0" /><path
           d="m 95,21.499 c 0,-1.012 -0.82,-1.832 -1.834,-1.832 -1.012,0 -1.832,0.82 -1.832,1.832 0,1.014 0.82,1.834 1.832,1.834 1.014,0 1.834,-0.82 1.834,-1.834 z"
           style="fill:none;stroke:#000000;stroke-width:1;stroke-linecap:butt;stroke-linejoin:miter;stroke-miterlimit:4;stroke-dasharray:none;stroke-opacity:1"
           id="path26"
           inkscape:connector-curvature="0" /><path
           d="m 55.833,21.501 c 0,-1.012 -0.82,-1.834 -1.834,-1.834 -1.012,0 -1.832,0.822 -1.832,1.834 0,1.012 0.82,1.832 1.832,1.832 1.014,0 1.834,-0.82 1.834,-1.832"
           style="fill:#000000;fill-opacity:1;fill-rule:nonzero;stroke:none"
           id="path28"
           inkscape:connector-curvature="0" /><path
           d="m 55.833,21.501 c 0,-1.012 -0.82,-1.834 -1.834,-1.834 -1.012,0 -1.832,0.822 -1.832,1.834 0,1.012 0.82,1.832 1.832,1.832 1.014,0 1.834,-0.82 1.834,-1.832 z"
           style="fill:none;stroke:#000000;stroke-width:1;stroke-linecap:butt;stroke-linejoin:miter;stroke-miterlimit:4;stroke-dasharray:none;stroke-opacity:1"
           id="path30"
           inkscape:connector-curvature="0" /><path
           d="m 16.5,21.5 c 0,-1.012 -0.821,-1.833 -1.833,-1.833 -1.013,0 -1.834,0.821 -1.834,1.833 0,1.013 0.821,1.833 1.834,1.833 1.012,0 1.833,-0.82 1.833,-1.833"
           style="fill:#000000;fill-opacity:1;fill-rule:nonzero;stroke:none"
           id="path32"
           inkscape:connector-curvature="0" /><path
           d="m 16.5,21.5 c 0,-1.012 -0.821,-1.833 -1.833,-1.833 -1.013,0 -1.834,0.821 -1.834,1.833 0,1.013 0.821,1.833 1.834,1.833 1.012,0 1.833,-0.82 1.833,-1.833 z"
           style="fill:none;stroke:#000000;stroke-width:1;stroke-linecap:butt;stroke-linejoin:miter;stroke-miterlimit:4;stroke-dasharray:none;stroke-opacity:1"
           id="path34"
           inkscape:connector-curvature="0" /><path
           d="m 95,87.5 c 0,-1.012 -0.82,-1.833 -1.834,-1.833 -1.012,0 -1.832,0.821 -1.832,1.833 0,1.012 0.82,1.833 1.832,1.833 C 94.18,89.333 95,88.512 95,87.5"
           style="fill:#000000;fill-opacity:1;fill-rule:nonzero;stroke:none"
           id="path36"
           inkscape:connector-curvature="0" /><path
           d="m 95,87.5 c 0,-1.012 -0.82,-1.833 -1.834,-1.833 -1.012,0 -1.832,0.821 -1.832,1.833 0,1.012 0.82,1.833 1.832,1.833 C 94.18,89.333 95,88.512 95,87.5 Z"
           style="fill:none;stroke:#000000;stroke-width:1;stroke-linecap:butt;stroke-linejoin:miter;stroke-miterlimit:4;stroke-dasharray:none;stroke-opacity:1"
           id="path38"
           inkscape:connector-curvature="0" /><path
           d="m 55.833,87.5 c 0,-1.012 -0.82,-1.833 -1.833,-1.833 -1.012,0 -1.833,0.821 -1.833,1.833 0,1.012 0.821,1.833 1.833,1.833 1.013,0 1.833,-0.821 1.833,-1.833"
           style="fill:#000000;fill-opacity:1;fill-rule:nonzero;stroke:none"
           id="path40"
           inkscape:connector-curvature="0" /><path
           d="m 55.833,87.5 c 0,-1.012 -0.82,-1.833 -1.833,-1.833 -1.012,0 -1.833,0.821 -1.833,1.833 0,1.012 0.821,1.833 1.833,1.833 1.013,0 1.833,-0.821 1.833,-1.833 z"
           style="fill:none;stroke:#000000;stroke-width:1;stroke-linecap:butt;stroke-linejoin:miter;stroke-miterlimit:4;stroke-dasharray:none;stroke-opacity:1"
           id="path42"
           inkscape:connector-curvature="0" /><path
           d="m 14.667,87.5 v -66"
           style="fill:none;stroke:#000000;stroke-width:1;stroke-linecap:butt;stroke-linejoin:miter;stroke-miterlimit:4;stroke-dasharray:none;stroke-opacity:1"
           id="path44"
           inkscape:connector-curvature="0" /><path
           d="M 54,87.5 53.833,21"
           style="fill:none;stroke:#000000;stroke-width:1;stroke-linecap:butt;stroke-linejoin:miter;stroke-miterlimit:4;stroke-dasharray:none;stroke-opacity:1"
           id="path46"
           inkscape:connector-curvature="0" /><path
           d="m 93.167,87.5 v -66"
           style="fill:none;stroke:#000000;stroke-width:1;stroke-linecap:butt;stroke-linejoin:miter;stroke-miterlimit:4;stroke-dasharray:none;stroke-opacity:1"
           id="path48"
           inkscape:connector-curvature="0" /><path
           d="M 14,87.833 54,21.5"
           style="fill:none;stroke:#000000;stroke-width:1;stroke-linecap:butt;stroke-linejoin:miter;stroke-miterlimit:4;stroke-dasharray:none;stroke-opacity:1"
           id="path50"
           inkscape:connector-curvature="0" /><path
           d="M 93.167,21.5 53.333,88"
           style="fill:none;stroke:#000000;stroke-width:1;stroke-linecap:butt;stroke-linejoin:miter;stroke-miterlimit:4;stroke-dasharray:none;stroke-opacity:1"
           id="path52"
           inkscape:connector-curvature="0" /><path
           d="M 93.167,87.5 54,21.5"
           style="fill:none;stroke:#000000;stroke-width:1;stroke-linecap:butt;stroke-linejoin:miter;stroke-miterlimit:4;stroke-dasharray:none;stroke-opacity:1"
           id="path54"
           inkscape:connector-curvature="0" /><path
           d="m 14,21.5 40,66"
           style="fill:none;stroke:#000000;stroke-width:1;stroke-linecap:butt;stroke-linejoin:miter;stroke-miterlimit:4;stroke-dasharray:none;stroke-opacity:1"
           id="path56"
           inkscape:connector-curvature="0" /><path
           d="M 14,87.833 93.167,21.5"
           style="fill:none;stroke:#000000;stroke-width:1;stroke-linecap:butt;stroke-linejoin:miter;stroke-miterlimit:4;stroke-dasharray:none;stroke-opacity:1"
           id="path58"
           inkscape:connector-curvature="0" /><path
           d="M 93.167,87.5 14,21.5"
           style="fill:none;stroke:#000000;stroke-width:1;stroke-linecap:butt;stroke-linejoin:miter;stroke-miterlimit:4;stroke-dasharray:none;stroke-opacity:1"
           id="path60"
           inkscape:connector-curvature="0" /><text
           transform="matrix(1,0,0,-1,11.6665,94.9995)"
           style="font-variant:normal;font-weight:normal;font-stretch:normal;font-size:12px;font-family:Myriad;-inkscape-font-specification:Myriad-Roman;writing-mode:lr-tb;fill:#000000;fill-opacity:1;fill-rule:nonzero;stroke:none"
           id="text64"><tspan
             x="0"
             y="0"
             id="tspan62">P</tspan></text>
<text
           transform="matrix(1,0,0,-1,16.6665,91.166)"
           style="font-variant:normal;font-weight:normal;font-stretch:normal;font-size:8px;font-family:Myriad;-inkscape-font-specification:Myriad-Roman;writing-mode:lr-tb;fill:#000000;fill-opacity:1;fill-rule:nonzero;stroke:none"
           id="text68"><tspan
             x="0"
             y="0"
             id="tspan66">1</tspan></text>
<text
           transform="matrix(1,0,0,-1,50.5,95.1665)"
           style="font-variant:normal;font-weight:normal;font-stretch:normal;font-size:12px;font-family:Myriad;-inkscape-font-specification:Myriad-Roman;writing-mode:lr-tb;fill:#000000;fill-opacity:1;fill-rule:nonzero;stroke:none"
           id="text72"><tspan
             x="0"
             y="0"
             id="tspan70">P</tspan></text>
<text
           transform="matrix(1,0,0,-1,55.5,91.333)"
           style="font-variant:normal;font-weight:normal;font-stretch:normal;font-size:8px;font-family:Myriad;-inkscape-font-specification:Myriad-Roman;writing-mode:lr-tb;fill:#000000;fill-opacity:1;fill-rule:nonzero;stroke:none"
           id="text76"><tspan
             x="0"
             y="0"
             id="tspan74">2</tspan></text>
<text
           transform="matrix(1,0,0,-1,89.4995,94.8335)"
           style="font-variant:normal;font-weight:normal;font-stretch:normal;font-size:12px;font-family:Myriad;-inkscape-font-specification:Myriad-Roman;writing-mode:lr-tb;fill:#000000;fill-opacity:1;fill-rule:nonzero;stroke:none"
           id="text80"><tspan
             x="0"
             y="0"
             id="tspan78">P</tspan></text>
<text
           transform="matrix(1,0,0,-1,94.4995,91)"
           style="font-variant:normal;font-weight:normal;font-stretch:normal;font-size:8px;font-family:Myriad;-inkscape-font-specification:Myriad-Roman;writing-mode:lr-tb;fill:#000000;fill-opacity:1;fill-rule:nonzero;stroke:none"
           id="text84"><tspan
             x="0"
             y="0"
             id="tspan82">3</tspan></text>
<text
           transform="matrix(1,0,0,-1,10.1665,9.5005)"
           style="font-variant:normal;font-weight:normal;font-stretch:normal;font-size:12px;font-family:Myriad;-inkscape-font-specification:Myriad-Roman;writing-mode:lr-tb;fill:#000000;fill-opacity:1;fill-rule:nonzero;stroke:none"
           id="text88"><tspan
             x="0"
             y="0"
             id="tspan86">P</tspan></text>
<text
           transform="matrix(1,0,0,-1,15.1665,5.667)"
           style="font-variant:normal;font-weight:normal;font-stretch:normal;font-size:8px;font-family:Myriad;-inkscape-font-specification:Myriad-Roman;writing-mode:lr-tb;fill:#000000;fill-opacity:1;fill-rule:nonzero;stroke:none"
           id="text92"><tspan
             x="0"
             y="0"
             id="tspan90">4</tspan></text>
<text
           transform="matrix(1,0,0,-1,49.1665,9.5005)"
           style="font-variant:normal;font-weight:normal;font-stretch:normal;font-size:12px;font-family:Myriad;-inkscape-font-specification:Myriad-Roman;writing-mode:lr-tb;fill:#000000;fill-opacity:1;fill-rule:nonzero;stroke:none"
           id="text96"><tspan
             x="0"
             y="0"
             id="tspan94">P</tspan></text>
<text
           transform="matrix(1,0,0,-1,54.1665,5.667)"
           style="font-variant:normal;font-weight:normal;font-stretch:normal;font-size:8px;font-family:Myriad;-inkscape-font-specification:Myriad-Roman;writing-mode:lr-tb;fill:#000000;fill-opacity:1;fill-rule:nonzero;stroke:none"
           id="text100"><tspan
             x="0"
             y="0"
             id="tspan98">5</tspan></text>
<text
           transform="matrix(1,0,0,-1,87.6665,9.167)"
           style="font-variant:normal;font-weight:normal;font-stretch:normal;font-size:12px;font-family:Myriad;-inkscape-font-specification:Myriad-Roman;writing-mode:lr-tb;fill:#000000;fill-opacity:1;fill-rule:nonzero;stroke:none"
           id="text104"><tspan
             x="0"
             y="0"
             id="tspan102">P</tspan></text>
<text
           transform="matrix(1,0,0,-1,92.6665,5.3335)"
           style="font-variant:normal;font-weight:normal;font-stretch:normal;font-size:8px;font-family:Myriad;-inkscape-font-specification:Myriad-Roman;writing-mode:lr-tb;fill:#000000;fill-opacity:1;fill-rule:nonzero;stroke:none"
           id="text108"><tspan
             x="0"
             y="0"
             id="tspan106">6</tspan></text>
</g></g></g></svg>