<?xml version="1.0" encoding="UTF-8" standalone="no"?>
<svg
   xmlns:dc="http://purl.org/dc/elements/1.1/"
   xmlns:cc="http://creativecommons.org/ns#"
   xmlns:rdf="http://www.w3.org/1999/02/22-rdf-syntax-ns#"
   xmlns:svg="http://www.w3.org/2000/svg"
   xmlns="http://www.w3.org/2000/svg"
   viewBox="0 0 144 144"
   height="144"
   width="144"
   xml:space="preserve"
   id="svg2"
   version="1.1"><metadata
     id="metadata8"><rdf:RDF><cc:Work
         rdf:about=""><dc:format>image/svg+xml</dc:format><dc:type
           rdf:resource="http://purl.org/dc/dcmitype/StillImage" /></cc:Work></rdf:RDF></metadata><defs
     id="defs6"><clipPath
       id="clipPath18"
       clipPathUnits="userSpaceOnUse"><path
         id="path16"
         d="M 0,108 H 108 V 0 H 0 Z" /></clipPath></defs><g
     transform="matrix(1.3333333,0,0,-1.3333333,0,144)"
     id="g10"><g
       id="g12"><g
         clip-path="url(#clipPath18)"
         id="g14"><path
           id="path20"
           style="fill:#000000;fill-opacity:1;fill-rule:nonzero;stroke:none"
           d="m 15.657,72.48 c 0,-1.003 -0.813,-1.814 -1.817,-1.814 -1.003,0 -1.816,0.811 -1.816,1.814 0,1.005 0.813,1.818 1.816,1.818 1.004,0 1.817,-0.813 1.817,-1.818" /><path
           id="path22"
           style="fill:none;stroke:#000000;stroke-width:1;stroke-linecap:butt;stroke-linejoin:miter;stroke-miterlimit:4;stroke-dasharray:none;stroke-opacity:1"
           d="m 15.657,72.48 c 0,-1.003 -0.813,-1.814 -1.817,-1.814 -1.003,0 -1.816,0.811 -1.816,1.814 0,1.005 0.813,1.818 1.816,1.818 1.004,0 1.817,-0.813 1.817,-1.818 z" /><path
           id="path24"
           style="fill:#000000;fill-opacity:1;fill-rule:nonzero;stroke:none"
           d="m 82.148,59.665 c 0,-1.003 -0.811,-1.814 -1.816,-1.814 -1.001,0 -1.814,0.811 -1.814,1.814 0,1.005 0.813,1.818 1.814,1.818 1.005,0 1.816,-0.813 1.816,-1.818" /><path
           id="path26"
           style="fill:none;stroke:#000000;stroke-width:1;stroke-linecap:butt;stroke-linejoin:miter;stroke-miterlimit:4;stroke-dasharray:none;stroke-opacity:1"
           d="m 82.148,59.665 c 0,-1.003 -0.811,-1.814 -1.816,-1.814 -1.001,0 -1.814,0.811 -1.814,1.814 0,1.005 0.813,1.818 1.814,1.818 1.005,0 1.816,-0.813 1.816,-1.818 z" /><path
           id="path28"
           style="fill:#000000;fill-opacity:1;fill-rule:nonzero;stroke:none"
           d="m 90.315,35.98 c 0,-1.002 -0.811,-1.814 -1.816,-1.814 -1.001,0 -1.814,0.812 -1.814,1.814 0,1.005 0.813,1.819 1.814,1.819 1.005,0 1.816,-0.814 1.816,-1.819" /><path
           id="path30"
           style="fill:none;stroke:#000000;stroke-width:1;stroke-linecap:butt;stroke-linejoin:miter;stroke-miterlimit:4;stroke-dasharray:none;stroke-opacity:1"
           d="m 90.315,35.98 c 0,-1.002 -0.811,-1.814 -1.816,-1.814 -1.001,0 -1.814,0.812 -1.814,1.814 0,1.005 0.813,1.819 1.814,1.819 1.005,0 1.816,-0.814 1.816,-1.819 z" /><path
           id="path32"
           style="fill:#000000;fill-opacity:1;fill-rule:nonzero;stroke:none"
           d="m 15.655,35.98 c 0,-1.002 -0.811,-1.814 -1.816,-1.814 -1.001,0 -1.815,0.812 -1.815,1.814 0,1.005 0.814,1.819 1.815,1.819 1.005,0 1.816,-0.814 1.816,-1.819" /><path
           id="path34"
           style="fill:none;stroke:#000000;stroke-width:1;stroke-linecap:butt;stroke-linejoin:miter;stroke-miterlimit:4;stroke-dasharray:none;stroke-opacity:1"
           d="m 15.655,35.98 c 0,-1.002 -0.811,-1.814 -1.816,-1.814 -1.001,0 -1.815,0.812 -1.815,1.814 0,1.005 0.814,1.819 1.815,1.819 1.005,0 1.816,-0.814 1.816,-1.819 z" /><path
           id="path36"
           style="fill:#000000;fill-opacity:1;fill-rule:nonzero;stroke:none"
           d="m 54.655,35.98 c 0,-1.002 -0.811,-1.814 -1.816,-1.814 -1.001,0 -1.815,0.812 -1.815,1.814 0,1.005 0.814,1.819 1.815,1.819 1.005,0 1.816,-0.814 1.816,-1.819" /><path
           id="path38"
           style="fill:none;stroke:#000000;stroke-width:1;stroke-linecap:butt;stroke-linejoin:miter;stroke-miterlimit:4;stroke-dasharray:none;stroke-opacity:1"
           d="m 54.655,35.98 c 0,-1.002 -0.811,-1.814 -1.816,-1.814 -1.001,0 -1.815,0.812 -1.815,1.814 0,1.005 0.814,1.819 1.815,1.819 1.005,0 1.816,-0.814 1.816,-1.819 z" /><path
           id="path40"
           style="fill:#000000;fill-opacity:1;fill-rule:nonzero;stroke:none"
           d="m 54.655,72.48 c 0,-1.003 -0.811,-1.814 -1.816,-1.814 -1.001,0 -1.815,0.811 -1.815,1.814 0,1.005 0.814,1.818 1.815,1.818 1.005,0 1.816,-0.813 1.816,-1.818" /><path
           id="path42"
           style="fill:none;stroke:#000000;stroke-width:1;stroke-linecap:butt;stroke-linejoin:miter;stroke-miterlimit:4;stroke-dasharray:none;stroke-opacity:1"
           d="m 54.655,72.48 c 0,-1.003 -0.811,-1.814 -1.816,-1.814 -1.001,0 -1.815,0.811 -1.815,1.814 0,1.005 0.814,1.818 1.815,1.818 1.005,0 1.816,-0.813 1.816,-1.818 z" /><path
           id="path44"
           style="fill:none;stroke:#000000;stroke-width:1;stroke-linecap:butt;stroke-linejoin:miter;stroke-miterlimit:4;stroke-dasharray:none;stroke-opacity:1"
           d="M 13.841,72.481 13.84,35.982" /><path
           id="path46"
           style="fill:none;stroke:#000000;stroke-width:1;stroke-linecap:butt;stroke-linejoin:miter;stroke-miterlimit:4;stroke-dasharray:none;stroke-opacity:1"
           d="M 52.84,72.481 13.5,36.167" /><path
           id="path48"
           style="fill:none;stroke:#000000;stroke-width:1;stroke-linecap:butt;stroke-linejoin:miter;stroke-miterlimit:4;stroke-dasharray:none;stroke-opacity:1"
           d="M 12.833,73 52.84,35.982" /><path
           id="path50"
           style="fill:none;stroke:#000000;stroke-width:1;stroke-linecap:butt;stroke-linejoin:miter;stroke-miterlimit:4;stroke-dasharray:none;stroke-opacity:1"
           d="M 80.333,59.667 52.5,36.333" /><path
           id="path52"
           style="fill:none;stroke:#000000;stroke-width:1;stroke-linecap:butt;stroke-linejoin:miter;stroke-miterlimit:4;stroke-dasharray:none;stroke-opacity:1"
           d="M 88.5,35.982 80.333,59.667" /><path
           id="path54"
           style="fill:none;stroke:#000000;stroke-width:1;stroke-linecap:butt;stroke-linejoin:miter;stroke-miterlimit:4;stroke-dasharray:none;stroke-opacity:1"
           d="m 52.84,35.982 c 0,0 38.833,-42 46.833,-19.168 8,22.834 -3.333,108.001 -46.833,55.667" /><path
           id="path56"
           style="fill:none;stroke:#000000;stroke-width:1;stroke-linecap:butt;stroke-linejoin:miter;stroke-miterlimit:4;stroke-dasharray:none;stroke-opacity:1"
           d="M 53.667,71.833 C 54.333,71.833 103,79.667 89,34.667" /></g></g></g></svg>