<?xml version="1.0" encoding="UTF-8" standalone="no"?>
<svg
   xmlns:dc="http://purl.org/dc/elements/1.1/"
   xmlns:cc="http://creativecommons.org/ns#"
   xmlns:rdf="http://www.w3.org/1999/02/22-rdf-syntax-ns#"
   xmlns:svg="http://www.w3.org/2000/svg"
   xmlns="http://www.w3.org/2000/svg"
   viewBox="0 0 144 144"
   height="144"
   width="144"
   xml:space="preserve"
   id="svg2"
   version="1.1"><metadata
     id="metadata8"><rdf:RDF><cc:Work
         rdf:about=""><dc:format>image/svg+xml</dc:format><dc:type
           rdf:resource="http://purl.org/dc/dcmitype/StillImage" /></cc:Work></rdf:RDF></metadata><defs
     id="defs6"><clipPath
       id="clipPath18"
       clipPathUnits="userSpaceOnUse"><path
         id="path16"
         d="M 0,108 H 108 V 0 H 0 Z" /></clipPath></defs><g
     transform="matrix(1.3333333,0,0,-1.3333333,0,144)"
     id="g10"><g
       id="g12"><g
         clip-path="url(#clipPath18)"
         id="g14"><path
           id="path20"
           style="fill:#000000;fill-opacity:1;fill-rule:nonzero;stroke:none"
           d="m 20.49,70.147 c 0,-1.003 -0.812,-1.814 -1.817,-1.814 -1.002,0 -1.815,0.811 -1.815,1.814 0,1.005 0.813,1.818 1.815,1.818 1.005,0 1.817,-0.813 1.817,-1.818" /><path
           id="path22"
           style="fill:none;stroke:#000000;stroke-width:1;stroke-linecap:butt;stroke-linejoin:miter;stroke-miterlimit:4;stroke-dasharray:none;stroke-opacity:1"
           d="m 20.49,70.147 c 0,-1.003 -0.812,-1.814 -1.817,-1.814 -1.002,0 -1.815,0.811 -1.815,1.814 0,1.005 0.813,1.818 1.815,1.818 1.005,0 1.817,-0.813 1.817,-1.818 z" /><path
           id="path24"
           style="fill:#000000;fill-opacity:1;fill-rule:nonzero;stroke:none"
           d="m 96.482,37.48 c 0,-1.002 -0.811,-1.814 -1.816,-1.814 -1.001,0 -1.814,0.812 -1.814,1.814 0,1.005 0.813,1.819 1.814,1.819 1.005,0 1.816,-0.814 1.816,-1.819" /><path
           id="path26"
           style="fill:none;stroke:#000000;stroke-width:1;stroke-linecap:butt;stroke-linejoin:miter;stroke-miterlimit:4;stroke-dasharray:none;stroke-opacity:1"
           d="m 96.482,37.48 c 0,-1.002 -0.811,-1.814 -1.816,-1.814 -1.001,0 -1.814,0.812 -1.814,1.814 0,1.005 0.813,1.819 1.814,1.819 1.005,0 1.816,-0.814 1.816,-1.819 z" /><path
           id="path28"
           style="fill:#000000;fill-opacity:1;fill-rule:nonzero;stroke:none"
           d="m 55.072,29.147 c 0,-1.002 -0.811,-1.814 -1.816,-1.814 -1.001,0 -1.815,0.812 -1.815,1.814 0,1.005 0.814,1.819 1.815,1.819 1.005,0 1.816,-0.814 1.816,-1.819" /><path
           id="path30"
           style="fill:none;stroke:#000000;stroke-width:1;stroke-linecap:butt;stroke-linejoin:miter;stroke-miterlimit:4;stroke-dasharray:none;stroke-opacity:1"
           d="m 55.072,29.147 c 0,-1.002 -0.811,-1.814 -1.816,-1.814 -1.001,0 -1.815,0.812 -1.815,1.814 0,1.005 0.814,1.819 1.815,1.819 1.005,0 1.816,-0.814 1.816,-1.819 z" /><path
           id="path32"
           style="fill:#000000;fill-opacity:1;fill-rule:nonzero;stroke:none"
           d="m 89.155,70.147 c 0,-1.003 -0.811,-1.814 -1.816,-1.814 -1.001,0 -1.815,0.811 -1.815,1.814 0,1.005 0.814,1.818 1.815,1.818 1.005,0 1.816,-0.813 1.816,-1.818" /><path
           id="path34"
           style="fill:none;stroke:#000000;stroke-width:1;stroke-linecap:butt;stroke-linejoin:miter;stroke-miterlimit:4;stroke-dasharray:none;stroke-opacity:1"
           d="m 89.155,70.147 c 0,-1.003 -0.811,-1.814 -1.816,-1.814 -1.001,0 -1.815,0.811 -1.815,1.814 0,1.005 0.814,1.818 1.815,1.818 1.005,0 1.816,-0.813 1.816,-1.818 z" /><path
           id="path36"
           style="fill:#000000;fill-opacity:1;fill-rule:nonzero;stroke:none"
           d="m 54.822,88.647 c 0,-1.003 -0.811,-1.814 -1.816,-1.814 -1.001,0 -1.815,0.811 -1.815,1.814 0,1.005 0.814,1.818 1.815,1.818 1.005,0 1.816,-0.813 1.816,-1.818" /><path
           id="path38"
           style="fill:none;stroke:#000000;stroke-width:1;stroke-linecap:butt;stroke-linejoin:miter;stroke-miterlimit:4;stroke-dasharray:none;stroke-opacity:1"
           d="m 54.822,88.647 c 0,-1.003 -0.811,-1.814 -1.816,-1.814 -1.001,0 -1.815,0.811 -1.815,1.814 0,1.005 0.814,1.818 1.815,1.818 1.005,0 1.816,-0.813 1.816,-1.818 z" /><path
           id="path40"
           style="fill:none;stroke:#000000;stroke-width:1;stroke-linecap:butt;stroke-linejoin:miter;stroke-miterlimit:4;stroke-dasharray:none;stroke-opacity:1"
           d="M 52.333,88.833 87.34,70.149" /><path
           id="path42"
           style="fill:none;stroke:#000000;stroke-width:1;stroke-linecap:butt;stroke-linejoin:miter;stroke-miterlimit:4;stroke-dasharray:none;stroke-opacity:1"
           d="m 18.167,70.167 34.84,18.481" /><path
           id="path44"
           style="fill:none;stroke:#000000;stroke-width:1;stroke-linecap:butt;stroke-linejoin:miter;stroke-miterlimit:4;stroke-dasharray:none;stroke-opacity:1"
           d="M 53.257,29.149 18.167,70.167" /><path
           id="path46"
           style="fill:none;stroke:#000000;stroke-width:1;stroke-linecap:butt;stroke-linejoin:miter;stroke-miterlimit:4;stroke-dasharray:none;stroke-opacity:1"
           d="M 87.34,70.149 53,29.5" /><path
           id="path48"
           style="fill:none;stroke:#000000;stroke-width:1;stroke-linecap:butt;stroke-linejoin:miter;stroke-miterlimit:4;stroke-dasharray:none;stroke-opacity:1"
           d="M 94.667,37.482 53,29.5" /><path
           id="path50"
           style="fill:none;stroke:#000000;stroke-width:1;stroke-linecap:butt;stroke-linejoin:miter;stroke-miterlimit:4;stroke-dasharray:none;stroke-opacity:1"
           d="M 87.34,70.149 94.833,37.833" /><path
           id="path52"
           style="fill:none;stroke:#000000;stroke-width:1;stroke-linecap:butt;stroke-linejoin:miter;stroke-miterlimit:4;stroke-dasharray:none;stroke-opacity:1"
           d="m 52.833,28.5 c 0,0 -47,-4.167 -48.333,30.167 C 3.167,93 50.166,91.167 52.667,90" /><path
           id="path54"
           style="fill:none;stroke:#000000;stroke-width:1;stroke-linecap:butt;stroke-linejoin:miter;stroke-miterlimit:4;stroke-dasharray:none;stroke-opacity:1"
           d="m 53.472,28.5 c 0,0 50.527,-17 51.861,17.333 C 106.666,80.166 56.14,91.167 53.64,90" /></g></g></g></svg>