<?xml version="1.0" encoding="UTF-8" standalone="no"?>
<svg
   xmlns:dc="http://purl.org/dc/elements/1.1/"
   xmlns:cc="http://creativecommons.org/ns#"
   xmlns:rdf="http://www.w3.org/1999/02/22-rdf-syntax-ns#"
   xmlns:svg="http://www.w3.org/2000/svg"
   xmlns="http://www.w3.org/2000/svg"
   viewBox="0 0 144 144"
   height="144"
   width="144"
   xml:space="preserve"
   id="svg2"
   version="1.1"><metadata
     id="metadata8"><rdf:RDF><cc:Work
         rdf:about=""><dc:format>image/svg+xml</dc:format><dc:type
           rdf:resource="http://purl.org/dc/dcmitype/StillImage" /></cc:Work></rdf:RDF></metadata><defs
     id="defs6"><clipPath
       id="clipPath18"
       clipPathUnits="userSpaceOnUse"><path
         id="path16"
         d="M 0,108 H 108 V 0 H 0 Z" /></clipPath></defs><g
     transform="matrix(1.3333333,0,0,-1.3333333,0,144)"
     id="g10"><g
       id="g12"><g
         clip-path="url(#clipPath18)"
         id="g14"><text
           id="text22"
           style="font-variant:normal;font-weight:normal;font-stretch:normal;font-size:12px;font-family:Myriad;-inkscape-font-specification:Myriad-Roman;writing-mode:lr-tb;fill:#000000;fill-opacity:1;fill-rule:nonzero;stroke:none"
           transform="matrix(1,0,0,-1,12.832,97.583)"><tspan
             id="tspan20"
             y="0"
             x="0 6.0120001 9.9119997">etc</tspan></text>
<path
           id="path24"
           style="fill:#000000;fill-opacity:1;fill-rule:nonzero;stroke:none"
           d="m 56.766,51.646 c 0,-1.002 -0.813,-1.814 -1.817,-1.814 -1.003,0 -1.816,0.812 -1.816,1.814 0,1.005 0.813,1.818 1.816,1.818 1.004,0 1.817,-0.813 1.817,-1.818" /><path
           id="path26"
           style="fill:none;stroke:#000000;stroke-width:1;stroke-linecap:butt;stroke-linejoin:miter;stroke-miterlimit:4;stroke-dasharray:none;stroke-opacity:1"
           d="m 56.766,51.646 c 0,-1.002 -0.813,-1.814 -1.817,-1.814 -1.003,0 -1.816,0.812 -1.816,1.814 0,1.005 0.813,1.818 1.816,1.818 1.004,0 1.817,-0.813 1.817,-1.818 z" /><path
           id="path28"
           style="fill:#000000;fill-opacity:1;fill-rule:nonzero;stroke:none"
           d="m 77.322,31.529 c 0,-1.001 -0.811,-1.816 -1.815,-1.816 -1.002,0 -1.816,0.815 -1.816,1.816 0,1.004 0.814,1.818 1.816,1.818 1.004,0 1.815,-0.814 1.815,-1.818" /><path
           id="path30"
           style="fill:none;stroke:#000000;stroke-width:1;stroke-linecap:butt;stroke-linejoin:miter;stroke-miterlimit:4;stroke-dasharray:none;stroke-opacity:1"
           d="m 77.322,31.529 c 0,-1.001 -0.811,-1.816 -1.815,-1.816 -1.002,0 -1.816,0.815 -1.816,1.816 0,1.004 0.814,1.818 1.816,1.818 1.004,0 1.815,-0.814 1.815,-1.818 z" /><path
           id="path32"
           style="fill:#000000;fill-opacity:1;fill-rule:nonzero;stroke:none"
           d="m 36.207,71.766 c 0,-1.003 -0.812,-1.815 -1.816,-1.815 -1.003,0 -1.815,0.812 -1.815,1.815 0,1.004 0.812,1.816 1.815,1.816 1.004,0 1.816,-0.812 1.816,-1.816" /><path
           id="path34"
           style="fill:none;stroke:#000000;stroke-width:1;stroke-linecap:butt;stroke-linejoin:miter;stroke-miterlimit:4;stroke-dasharray:none;stroke-opacity:1"
           d="m 36.207,71.766 c 0,-1.003 -0.812,-1.815 -1.816,-1.815 -1.003,0 -1.815,0.812 -1.815,1.815 0,1.004 0.812,1.816 1.815,1.816 1.004,0 1.816,-0.812 1.816,-1.816 z" /><path
           id="path36"
           style="fill:#000000;fill-opacity:1;fill-rule:nonzero;stroke:none"
           d="m 15.649,91.885 c 0,-1.003 -0.813,-1.817 -1.816,-1.817 -1.003,0 -1.816,0.814 -1.816,1.817 0,1.003 0.813,1.815 1.816,1.815 1.003,0 1.816,-0.812 1.816,-1.815" /><path
           id="path38"
           style="fill:none;stroke:#000000;stroke-width:1;stroke-linecap:butt;stroke-linejoin:miter;stroke-miterlimit:4;stroke-dasharray:none;stroke-opacity:1"
           d="m 15.649,91.885 c 0,-1.003 -0.813,-1.817 -1.816,-1.817 -1.003,0 -1.816,0.814 -1.816,1.817 0,1.003 0.813,1.815 1.816,1.815 1.003,0 1.816,-0.812 1.816,-1.815 z" /><text
           id="text42"
           style="font-variant:normal;font-weight:normal;font-stretch:normal;font-size:12px;font-family:Myriad;-inkscape-font-specification:Myriad-Roman;writing-mode:lr-tb;fill:#000000;fill-opacity:1;fill-rule:nonzero;stroke:none"
           transform="matrix(1,0,0,-1,91.1655,15.9165)"><tspan
             id="tspan40"
             y="0"
             x="0 6.0120001 9.9119997">etc</tspan></text>
<text
           id="text46"
           style="font-variant:normal;font-weight:normal;font-stretch:normal;font-size:12.00000572px;font-family:Myriad;-inkscape-font-specification:Myriad-Roman;writing-mode:lr-tb;fill:#000000;fill-opacity:1;fill-rule:nonzero;stroke:none"
           transform="matrix(0.71832468,-0.69570802,-0.69570802,-0.71832468,94.3657,12.4512)"><tspan
             id="tspan44"
             y="0"
             x="0">.</tspan></text>
<text
           id="text50"
           style="font-variant:normal;font-weight:normal;font-stretch:normal;font-size:12.00000572px;font-family:Myriad;-inkscape-font-specification:Myriad-Roman;writing-mode:lr-tb;fill:#000000;fill-opacity:1;fill-rule:nonzero;stroke:none"
           transform="matrix(0.71832468,-0.69570802,-0.69570802,-0.71832468,96.1509,10.7217)"><tspan
             id="tspan48"
             y="0"
             x="0">.</tspan></text>
<text
           id="text54"
           style="font-variant:normal;font-weight:normal;font-stretch:normal;font-size:12.00000763px;font-family:Myriad;-inkscape-font-specification:Myriad-Roman;writing-mode:lr-tb;fill:#000000;fill-opacity:1;fill-rule:nonzero;stroke:none"
           transform="matrix(0.71833288,-0.69569956,-0.69569956,-0.71833288,97.9248,9.0034)"><tspan
             id="tspan52"
             y="0"
             x="0">.</tspan></text>
<path
           id="path56"
           style="fill:#000000;fill-opacity:1;fill-rule:nonzero;stroke:none"
           d="m 56.766,31.529 c 0,-1.002 -0.813,-1.816 -1.817,-1.816 -1.003,0 -1.816,0.814 -1.816,1.816 0,1.004 0.813,1.818 1.816,1.818 1.004,0 1.817,-0.814 1.817,-1.818" /><path
           id="path58"
           style="fill:none;stroke:#000000;stroke-width:1;stroke-linecap:butt;stroke-linejoin:miter;stroke-miterlimit:4;stroke-dasharray:none;stroke-opacity:1"
           d="m 56.766,31.529 c 0,-1.002 -0.813,-1.816 -1.817,-1.816 -1.003,0 -1.816,0.814 -1.816,1.816 0,1.004 0.813,1.818 1.816,1.818 1.004,0 1.817,-0.814 1.817,-1.818 z" /><path
           id="path60"
           style="fill:#000000;fill-opacity:1;fill-rule:nonzero;stroke:none"
           d="m 77.322,11.55 c 0,-1.003 -0.811,-1.816 -1.815,-1.816 -1.002,0 -1.816,0.813 -1.816,1.816 0,1.003 0.814,1.816 1.816,1.816 1.004,0 1.815,-0.813 1.815,-1.816" /><path
           id="path62"
           style="fill:none;stroke:#000000;stroke-width:1;stroke-linecap:butt;stroke-linejoin:miter;stroke-miterlimit:4;stroke-dasharray:none;stroke-opacity:1"
           d="m 77.322,11.55 c 0,-1.003 -0.811,-1.816 -1.815,-1.816 -1.002,0 -1.816,0.813 -1.816,1.816 0,1.003 0.814,1.816 1.816,1.816 1.004,0 1.815,-0.813 1.815,-1.816 z" /><path
           id="path64"
           style="fill:#000000;fill-opacity:1;fill-rule:nonzero;stroke:none"
           d="m 36.207,51.647 c 0,-1.001 -0.812,-1.815 -1.816,-1.815 -1.003,0 -1.815,0.814 -1.815,1.815 0,1.004 0.812,1.817 1.815,1.817 1.004,0 1.816,-0.813 1.816,-1.817" /><path
           id="path66"
           style="fill:none;stroke:#000000;stroke-width:1;stroke-linecap:butt;stroke-linejoin:miter;stroke-miterlimit:4;stroke-dasharray:none;stroke-opacity:1"
           d="m 36.207,51.647 c 0,-1.001 -0.812,-1.815 -1.816,-1.815 -1.003,0 -1.815,0.814 -1.815,1.815 0,1.004 0.812,1.817 1.815,1.817 1.004,0 1.816,-0.813 1.816,-1.817 z" /><path
           id="path68"
           style="fill:#000000;fill-opacity:1;fill-rule:nonzero;stroke:none"
           d="m 15.649,71.905 c 0,-1.003 -0.813,-1.817 -1.816,-1.817 -1.003,0 -1.816,0.814 -1.816,1.817 0,1.003 0.813,1.816 1.816,1.816 1.003,0 1.816,-0.813 1.816,-1.816" /><path
           id="path70"
           style="fill:none;stroke:#000000;stroke-width:1;stroke-linecap:butt;stroke-linejoin:miter;stroke-miterlimit:4;stroke-dasharray:none;stroke-opacity:1"
           d="m 15.649,71.905 c 0,-1.003 -0.813,-1.817 -1.816,-1.817 -1.003,0 -1.816,0.814 -1.816,1.817 0,1.003 0.813,1.816 1.816,1.816 1.003,0 1.816,-0.813 1.816,-1.816 z" /><path
           id="path72"
           style="fill:#000000;fill-opacity:1;fill-rule:nonzero;stroke:none"
           d="m 77.322,51.646 c 0,-1.002 -0.811,-1.814 -1.816,-1.814 -1.001,0 -1.815,0.812 -1.815,1.814 0,1.005 0.814,1.818 1.815,1.818 1.005,0 1.816,-0.813 1.816,-1.818" /><path
           id="path74"
           style="fill:none;stroke:#000000;stroke-width:1;stroke-linecap:butt;stroke-linejoin:miter;stroke-miterlimit:4;stroke-dasharray:none;stroke-opacity:1"
           d="m 77.322,51.646 c 0,-1.002 -0.811,-1.814 -1.816,-1.814 -1.001,0 -1.815,0.812 -1.815,1.814 0,1.005 0.814,1.818 1.815,1.818 1.005,0 1.816,-0.813 1.816,-1.818 z" /><path
           id="path76"
           style="fill:#000000;fill-opacity:1;fill-rule:nonzero;stroke:none"
           d="m 98.791,31.529 c 0,-1.001 -0.812,-1.816 -1.816,-1.816 -1.003,0 -1.815,0.815 -1.815,1.816 0,1.004 0.812,1.818 1.815,1.818 1.004,0 1.816,-0.814 1.816,-1.818" /><path
           id="path78"
           style="fill:none;stroke:#000000;stroke-width:1;stroke-linecap:butt;stroke-linejoin:miter;stroke-miterlimit:4;stroke-dasharray:none;stroke-opacity:1"
           d="m 98.791,31.529 c 0,-1.001 -0.812,-1.816 -1.816,-1.816 -1.003,0 -1.815,0.815 -1.815,1.816 0,1.004 0.812,1.818 1.815,1.818 1.004,0 1.816,-0.814 1.816,-1.818 z" /><path
           id="path80"
           style="fill:#000000;fill-opacity:1;fill-rule:nonzero;stroke:none"
           d="m 56.766,71.766 c 0,-1.003 -0.813,-1.815 -1.816,-1.815 -1.004,0 -1.817,0.812 -1.817,1.815 0,1.004 0.813,1.816 1.817,1.816 1.003,0 1.816,-0.812 1.816,-1.816" /><path
           id="path82"
           style="fill:none;stroke:#000000;stroke-width:1;stroke-linecap:butt;stroke-linejoin:miter;stroke-miterlimit:4;stroke-dasharray:none;stroke-opacity:1"
           d="m 56.766,71.766 c 0,-1.003 -0.813,-1.815 -1.816,-1.815 -1.004,0 -1.817,0.812 -1.817,1.815 0,1.004 0.813,1.816 1.817,1.816 1.003,0 1.816,-0.812 1.816,-1.816 z" /><path
           id="path84"
           style="fill:#000000;fill-opacity:1;fill-rule:nonzero;stroke:none"
           d="m 36.207,91.885 c 0,-1.003 -0.812,-1.817 -1.816,-1.817 -1.003,0 -1.815,0.814 -1.815,1.817 0,1.003 0.812,1.815 1.815,1.815 1.004,0 1.816,-0.812 1.816,-1.815" /><path
           id="path86"
           style="fill:none;stroke:#000000;stroke-width:1;stroke-linecap:butt;stroke-linejoin:miter;stroke-miterlimit:4;stroke-dasharray:none;stroke-opacity:1"
           d="m 36.207,91.885 c 0,-1.003 -0.812,-1.817 -1.816,-1.817 -1.003,0 -1.815,0.814 -1.815,1.817 0,1.003 0.812,1.815 1.815,1.815 1.004,0 1.816,-0.812 1.816,-1.815 z" /><path
           id="path88"
           style="fill:none;stroke:#000000;stroke-width:1;stroke-linecap:butt;stroke-linejoin:miter;stroke-miterlimit:4;stroke-dasharray:none;stroke-opacity:1"
           d="M 12.924,92.049 34.061,91.884" /><path
           id="path90"
           style="fill:none;stroke:#000000;stroke-width:1;stroke-linecap:butt;stroke-linejoin:miter;stroke-miterlimit:4;stroke-dasharray:none;stroke-opacity:1"
           d="m 13.255,72.069 0.165,19.98" /><path
           id="path92"
           style="fill:none;stroke:#000000;stroke-width:1;stroke-linecap:butt;stroke-linejoin:miter;stroke-miterlimit:4;stroke-dasharray:none;stroke-opacity:1"
           d="M 34.391,71.766 V 92.709" /><path
           id="path94"
           style="fill:none;stroke:#000000;stroke-width:1;stroke-linecap:butt;stroke-linejoin:miter;stroke-miterlimit:4;stroke-dasharray:none;stroke-opacity:1"
           d="m 13.75,71.408 -0.495,0.661" /><path
           id="path96"
           style="fill:none;stroke:#000000;stroke-width:1;stroke-linecap:butt;stroke-linejoin:miter;stroke-miterlimit:4;stroke-dasharray:none;stroke-opacity:1"
           d="M 13.255,72.069 34.391,71.766" /><path
           id="path98"
           style="fill:none;stroke:#000000;stroke-width:1;stroke-linecap:butt;stroke-linejoin:miter;stroke-miterlimit:4;stroke-dasharray:none;stroke-opacity:1"
           d="M 34.391,92.709 13.75,71.408" /><path
           id="path100"
           style="fill:none;stroke:#000000;stroke-width:1;stroke-linecap:butt;stroke-linejoin:miter;stroke-miterlimit:4;stroke-dasharray:none;stroke-opacity:1"
           d="M 34.061,71.738 55.198,71.573" /><path
           id="path102"
           style="fill:none;stroke:#000000;stroke-width:1;stroke-linecap:butt;stroke-linejoin:miter;stroke-miterlimit:4;stroke-dasharray:none;stroke-opacity:1"
           d="m 34.391,51.758 0.165,19.98" /><path
           id="path104"
           style="fill:none;stroke:#000000;stroke-width:1;stroke-linecap:butt;stroke-linejoin:miter;stroke-miterlimit:4;stroke-dasharray:none;stroke-opacity:1"
           d="M 55.528,51.455 V 72.399" /><path
           id="path106"
           style="fill:none;stroke:#000000;stroke-width:1;stroke-linecap:butt;stroke-linejoin:miter;stroke-miterlimit:4;stroke-dasharray:none;stroke-opacity:1"
           d="M 34.391,51.758 55.528,51.455" /><path
           id="path108"
           style="fill:none;stroke:#000000;stroke-width:1;stroke-linecap:butt;stroke-linejoin:miter;stroke-miterlimit:4;stroke-dasharray:none;stroke-opacity:1"
           d="M 55.528,72.399 34.886,51.096" /><path
           id="path110"
           style="fill:none;stroke:#000000;stroke-width:1;stroke-linecap:butt;stroke-linejoin:miter;stroke-miterlimit:4;stroke-dasharray:none;stroke-opacity:1"
           d="M 54.207,51.428 75.343,51.264" /><path
           id="path112"
           style="fill:none;stroke:#000000;stroke-width:1;stroke-linecap:butt;stroke-linejoin:miter;stroke-miterlimit:4;stroke-dasharray:none;stroke-opacity:1"
           d="m 54.537,31.447 0.166,19.981" /><path
           id="path114"
           style="fill:none;stroke:#000000;stroke-width:1;stroke-linecap:butt;stroke-linejoin:miter;stroke-miterlimit:4;stroke-dasharray:none;stroke-opacity:1"
           d="M 75.675,31.145 V 52.088" /><path
           id="path116"
           style="fill:none;stroke:#000000;stroke-width:1;stroke-linecap:butt;stroke-linejoin:miter;stroke-miterlimit:4;stroke-dasharray:none;stroke-opacity:1"
           d="M 54.537,31.447 75.675,31.145" /><path
           id="path118"
           style="fill:none;stroke:#000000;stroke-width:1;stroke-linecap:butt;stroke-linejoin:miter;stroke-miterlimit:4;stroke-dasharray:none;stroke-opacity:1"
           d="M 75.675,52.088 55.032,30.786" /><path
           id="path120"
           style="fill:none;stroke:#000000;stroke-width:1;stroke-linecap:butt;stroke-linejoin:miter;stroke-miterlimit:4;stroke-dasharray:none;stroke-opacity:1"
           d="M 75.014,31.447 96.148,31.283" /><path
           id="path122"
           style="fill:none;stroke:#000000;stroke-width:1;stroke-linecap:butt;stroke-linejoin:miter;stroke-miterlimit:4;stroke-dasharray:none;stroke-opacity:1"
           d="m 75.343,11.468 0.165,19.979" /><path
           id="path124"
           style="fill:none;stroke:#000000;stroke-width:1;stroke-linecap:butt;stroke-linejoin:miter;stroke-miterlimit:4;stroke-dasharray:none;stroke-opacity:1"
           d="M 96.479,32.108 75.839,10.807" /><text
           id="text128"
           style="font-variant:normal;font-weight:normal;font-stretch:normal;font-size:12.00000572px;font-family:Myriad;-inkscape-font-specification:Myriad-Roman;writing-mode:lr-tb;fill:#000000;fill-opacity:1;fill-rule:nonzero;stroke:none"
           transform="matrix(0.71832468,-0.69570802,-0.69570802,-0.71832468,6.5322,100.2852)"><tspan
             id="tspan126"
             y="0"
             x="0">.</tspan></text>
<text
           id="text132"
           style="font-variant:normal;font-weight:normal;font-stretch:normal;font-size:12.00000572px;font-family:Myriad;-inkscape-font-specification:Myriad-Roman;writing-mode:lr-tb;fill:#000000;fill-opacity:1;fill-rule:nonzero;stroke:none"
           transform="matrix(0.71832468,-0.69570802,-0.69570802,-0.71832468,8.3174,98.5557)"><tspan
             id="tspan130"
             y="0"
             x="0">.</tspan></text>
<text
           id="text136"
           style="font-variant:normal;font-weight:normal;font-stretch:normal;font-size:12.00000763px;font-family:Myriad;-inkscape-font-specification:Myriad-Roman;writing-mode:lr-tb;fill:#000000;fill-opacity:1;fill-rule:nonzero;stroke:none"
           transform="matrix(0.71833288,-0.69569956,-0.69569956,-0.71833288,10.0913,96.8374)"><tspan
             id="tspan134"
             y="0"
             x="0">.</tspan></text>
</g></g></g></svg>