<?xml version="1.0" encoding="UTF-8" standalone="no"?>
<svg
   xmlns:dc="http://purl.org/dc/elements/1.1/"
   xmlns:cc="http://creativecommons.org/ns#"
   xmlns:rdf="http://www.w3.org/1999/02/22-rdf-syntax-ns#"
   xmlns:svg="http://www.w3.org/2000/svg"
   xmlns="http://www.w3.org/2000/svg"
   viewBox="0 0 144 144"
   height="144"
   width="144"
   xml:space="preserve"
   id="svg2"
   version="1.1"><metadata
     id="metadata8"><rdf:RDF><cc:Work
         rdf:about=""><dc:format>image/svg+xml</dc:format><dc:type
           rdf:resource="http://purl.org/dc/dcmitype/StillImage" /></cc:Work></rdf:RDF></metadata><defs
     id="defs6"><clipPath
       id="clipPath18"
       clipPathUnits="userSpaceOnUse"><path
         id="path16"
         d="M 0,108 H 108 V 0 H 0 Z" /></clipPath></defs><g
     transform="matrix(1.3333333,0,0,-1.3333333,0,144)"
     id="g10"><g
       id="g12"><g
         clip-path="url(#clipPath18)"
         id="g14"><path
           id="path20"
           style="fill:#000000;fill-opacity:1;fill-rule:nonzero;stroke:none"
           d="m 13.811,55.667 c 0,-1.003 -0.813,-1.815 -1.817,-1.815 -1.003,0 -1.816,0.812 -1.816,1.815 0,1.004 0.813,1.817 1.816,1.817 1.004,0 1.817,-0.813 1.817,-1.817" /><path
           id="path22"
           style="fill:none;stroke:#000000;stroke-width:1;stroke-linecap:butt;stroke-linejoin:miter;stroke-miterlimit:4;stroke-dasharray:none;stroke-opacity:1"
           d="m 13.811,55.667 c 0,-1.003 -0.813,-1.815 -1.817,-1.815 -1.003,0 -1.816,0.812 -1.816,1.815 0,1.004 0.813,1.817 1.816,1.817 1.004,0 1.817,-0.813 1.817,-1.817 z" /><path
           id="path24"
           style="fill:#000000;fill-opacity:1;fill-rule:nonzero;stroke:none"
           d="m 43.643,9.666 c 0,-1.003 -0.811,-1.814 -1.816,-1.814 -1.001,0 -1.815,0.811 -1.815,1.814 0,1.005 0.814,1.818 1.815,1.818 1.005,0 1.816,-0.813 1.816,-1.818" /><path
           id="path26"
           style="fill:none;stroke:#000000;stroke-width:1;stroke-linecap:butt;stroke-linejoin:miter;stroke-miterlimit:4;stroke-dasharray:none;stroke-opacity:1"
           d="m 43.643,9.666 c 0,-1.003 -0.811,-1.814 -1.816,-1.814 -1.001,0 -1.815,0.811 -1.815,1.814 0,1.005 0.814,1.818 1.815,1.818 1.005,0 1.816,-0.813 1.816,-1.818 z" /><path
           id="path28"
           style="fill:#000000;fill-opacity:1;fill-rule:nonzero;stroke:none"
           d="m 54.731,49.166 c 0,-1.002 -0.81,-1.814 -1.815,-1.814 -1.001,0 -1.814,0.812 -1.814,1.814 0,1.006 0.813,1.818 1.814,1.818 1.005,0 1.815,-0.812 1.815,-1.818" /><path
           id="path30"
           style="fill:none;stroke:#000000;stroke-width:1;stroke-linecap:butt;stroke-linejoin:miter;stroke-miterlimit:4;stroke-dasharray:none;stroke-opacity:1"
           d="m 54.731,49.166 c 0,-1.002 -0.81,-1.814 -1.815,-1.814 -1.001,0 -1.814,0.812 -1.814,1.814 0,1.006 0.813,1.818 1.814,1.818 1.005,0 1.815,-0.812 1.815,-1.818 z" /><path
           id="path32"
           style="fill:none;stroke:#000000;stroke-width:1;stroke-linecap:butt;stroke-linejoin:miter;stroke-miterlimit:4;stroke-dasharray:none;stroke-opacity:1"
           d="M 11.994,55.668 41.828,9.334" /><path
           id="path34"
           style="fill:none;stroke:#000000;stroke-width:1;stroke-linecap:butt;stroke-linejoin:miter;stroke-miterlimit:4;stroke-dasharray:none;stroke-opacity:1"
           d="m 82.994,73.501 -71.833,-18" /><path
           id="path36"
           style="fill:none;stroke:#000000;stroke-width:1;stroke-linecap:butt;stroke-linejoin:miter;stroke-miterlimit:4;stroke-dasharray:none;stroke-opacity:1"
           d="M 85.327,69.501 41.828,9.668" /><path
           id="path38"
           style="fill:none;stroke:#000000;stroke-width:1;stroke-linecap:butt;stroke-linejoin:miter;stroke-miterlimit:4;stroke-dasharray:none;stroke-opacity:1"
           d="M 81.327,70.001 52.917,49.168" /></g></g></g></svg>