<?xml version="1.0" encoding="UTF-8" standalone="no"?>
<svg
   xmlns:dc="http://purl.org/dc/elements/1.1/"
   xmlns:cc="http://creativecommons.org/ns#"
   xmlns:rdf="http://www.w3.org/1999/02/22-rdf-syntax-ns#"
   xmlns:svg="http://www.w3.org/2000/svg"
   xmlns="http://www.w3.org/2000/svg"
   viewBox="0 0 144 144"
   height="144"
   width="144"
   xml:space="preserve"
   id="svg2"
   version="1.1"><metadata
     id="metadata8"><rdf:RDF><cc:Work
         rdf:about=""><dc:format>image/svg+xml</dc:format><dc:type
           rdf:resource="http://purl.org/dc/dcmitype/StillImage" /></cc:Work></rdf:RDF></metadata><defs
     id="defs6"><clipPath
       id="clipPath18"
       clipPathUnits="userSpaceOnUse"><path
         id="path16"
         d="M 0,108 H 108 V 0 H 0 Z" /></clipPath></defs><g
     transform="matrix(1.3333333,0,0,-1.3333333,0,144)"
     id="g10"><g
       id="g12"><g
         clip-path="url(#clipPath18)"
         id="g14"><path
           id="path20"
           style="fill:#000000;fill-opacity:1;fill-rule:nonzero;stroke:none"
           d="m 19.144,81.333 c 0,-1.003 -0.812,-1.814 -1.817,-1.814 -1.002,0 -1.815,0.811 -1.815,1.814 0,1.005 0.813,1.818 1.815,1.818 1.005,0 1.817,-0.813 1.817,-1.818" /><path
           id="path22"
           style="fill:none;stroke:#000000;stroke-width:1;stroke-linecap:butt;stroke-linejoin:miter;stroke-miterlimit:4;stroke-dasharray:none;stroke-opacity:1"
           d="m 19.144,81.333 c 0,-1.003 -0.812,-1.814 -1.817,-1.814 -1.002,0 -1.815,0.811 -1.815,1.814 0,1.005 0.813,1.818 1.815,1.818 1.005,0 1.817,-0.813 1.817,-1.818 z" /><path
           id="path24"
           style="fill:#000000;fill-opacity:1;fill-rule:nonzero;stroke:none"
           d="m 93.321,24.999 c 0,-1.003 -0.811,-1.814 -1.816,-1.814 -1.001,0 -1.815,0.811 -1.815,1.814 0,1.005 0.814,1.818 1.815,1.818 1.005,0 1.816,-0.813 1.816,-1.818" /><path
           id="path26"
           style="fill:none;stroke:#000000;stroke-width:1;stroke-linecap:butt;stroke-linejoin:miter;stroke-miterlimit:4;stroke-dasharray:none;stroke-opacity:1"
           d="m 93.321,24.999 c 0,-1.003 -0.811,-1.814 -1.816,-1.814 -1.001,0 -1.815,0.811 -1.815,1.814 0,1.005 0.814,1.818 1.815,1.818 1.005,0 1.816,-0.813 1.816,-1.818 z" /><path
           id="path28"
           style="fill:#000000;fill-opacity:1;fill-rule:nonzero;stroke:none"
           d="m 56.231,24.999 c 0,-1.003 -0.811,-1.814 -1.816,-1.814 -1.001,0 -1.814,0.811 -1.814,1.814 0,1.005 0.813,1.818 1.814,1.818 1.005,0 1.816,-0.813 1.816,-1.818" /><path
           id="path30"
           style="fill:none;stroke:#000000;stroke-width:1;stroke-linecap:butt;stroke-linejoin:miter;stroke-miterlimit:4;stroke-dasharray:none;stroke-opacity:1"
           d="m 56.231,24.999 c 0,-1.003 -0.811,-1.814 -1.816,-1.814 -1.001,0 -1.814,0.811 -1.814,1.814 0,1.005 0.813,1.818 1.814,1.818 1.005,0 1.816,-0.813 1.816,-1.818 z" /><path
           id="path32"
           style="fill:#000000;fill-opacity:1;fill-rule:nonzero;stroke:none"
           d="m 93.321,81.333 c 0,-1.003 -0.811,-1.814 -1.816,-1.814 -1.001,0 -1.815,0.811 -1.815,1.814 0,1.005 0.814,1.818 1.815,1.818 1.005,0 1.816,-0.813 1.816,-1.818" /><path
           id="path34"
           style="fill:none;stroke:#000000;stroke-width:1;stroke-linecap:butt;stroke-linejoin:miter;stroke-miterlimit:4;stroke-dasharray:none;stroke-opacity:1"
           d="m 93.321,81.333 c 0,-1.003 -0.811,-1.814 -1.816,-1.814 -1.001,0 -1.815,0.811 -1.815,1.814 0,1.005 0.814,1.818 1.815,1.818 1.005,0 1.816,-0.813 1.816,-1.818 z" /><path
           id="path36"
           style="fill:#000000;fill-opacity:1;fill-rule:nonzero;stroke:none"
           d="m 56.231,81.333 c 0,-1.003 -0.81,-1.814 -1.815,-1.814 -1.001,0 -1.814,0.811 -1.814,1.814 0,1.005 0.813,1.818 1.814,1.818 1.005,0 1.815,-0.813 1.815,-1.818" /><path
           id="path38"
           style="fill:none;stroke:#000000;stroke-width:1;stroke-linecap:butt;stroke-linejoin:miter;stroke-miterlimit:4;stroke-dasharray:none;stroke-opacity:1"
           d="m 56.231,81.333 c 0,-1.003 -0.81,-1.814 -1.815,-1.814 -1.001,0 -1.814,0.811 -1.814,1.814 0,1.005 0.813,1.818 1.814,1.818 1.005,0 1.815,-0.813 1.815,-1.818 z" /><path
           id="path40"
           style="fill:#000000;fill-opacity:1;fill-rule:nonzero;stroke:none"
           d="m 19.143,24.998 c 0,-1.002 -0.812,-1.814 -1.817,-1.814 -1.001,0 -1.814,0.812 -1.814,1.814 0,1.006 0.813,1.818 1.814,1.818 1.005,0 1.817,-0.812 1.817,-1.818" /><path
           id="path42"
           style="fill:none;stroke:#000000;stroke-width:1;stroke-linecap:butt;stroke-linejoin:miter;stroke-miterlimit:4;stroke-dasharray:none;stroke-opacity:1"
           d="m 19.143,24.998 c 0,-1.002 -0.812,-1.814 -1.817,-1.814 -1.001,0 -1.814,0.812 -1.814,1.814 0,1.006 0.813,1.818 1.814,1.818 1.005,0 1.817,-0.812 1.817,-1.818 z" /><path
           id="path44"
           style="fill:none;stroke:#000000;stroke-width:1;stroke-linecap:butt;stroke-linejoin:miter;stroke-miterlimit:4;stroke-dasharray:none;stroke-opacity:1"
           d="m 16.661,81.501 -0.167,-56" /><path
           id="path46"
           style="fill:none;stroke:#000000;stroke-width:1;stroke-linecap:butt;stroke-linejoin:miter;stroke-miterlimit:4;stroke-dasharray:none;stroke-opacity:1"
           d="m 54.416,25.001 -37.755,56.5" /><path
           id="path48"
           style="fill:none;stroke:#000000;stroke-width:1;stroke-linecap:butt;stroke-linejoin:miter;stroke-miterlimit:4;stroke-dasharray:none;stroke-opacity:1"
           d="M 54.417,81.335 17.327,25" /><path
           id="path50"
           style="fill:none;stroke:#000000;stroke-width:1;stroke-linecap:butt;stroke-linejoin:miter;stroke-miterlimit:4;stroke-dasharray:none;stroke-opacity:1"
           d="M 91.506,25.001 54.417,81.335" /><path
           id="path52"
           style="fill:none;stroke:#000000;stroke-width:1;stroke-linecap:butt;stroke-linejoin:miter;stroke-miterlimit:4;stroke-dasharray:none;stroke-opacity:1"
           d="M 91.506,81.335 53.994,24.501" /><path
           id="path54"
           style="fill:none;stroke:#000000;stroke-width:1;stroke-linecap:butt;stroke-linejoin:miter;stroke-miterlimit:4;stroke-dasharray:none;stroke-opacity:1"
           d="M 91.506,25.001 V 81.335" /><path
           id="path56"
           style="fill:none;stroke:#000000;stroke-width:1;stroke-linecap:butt;stroke-linejoin:miter;stroke-miterlimit:4;stroke-dasharray:none;stroke-opacity:1"
           d="M 10.994,87.667 C 30.661,108 85.16,110.501 99.327,89.501 113.494,68.501 94.493,27.5 91.827,24.334 89.161,21.168 21.328,9.001 12.328,17.501 c -9,8.5 -10.277,60.921 -1.334,70.166 z" /></g></g></g></svg>