<?xml version="1.0" encoding="UTF-8" standalone="no"?>
<svg
   xmlns:dc="http://purl.org/dc/elements/1.1/"
   xmlns:cc="http://creativecommons.org/ns#"
   xmlns:rdf="http://www.w3.org/1999/02/22-rdf-syntax-ns#"
   xmlns:svg="http://www.w3.org/2000/svg"
   xmlns="http://www.w3.org/2000/svg"
   viewBox="0 0 144 144"
   height="144"
   width="144"
   xml:space="preserve"
   id="svg2"
   version="1.1"><metadata
     id="metadata8"><rdf:RDF><cc:Work
         rdf:about=""><dc:format>image/svg+xml</dc:format><dc:type
           rdf:resource="http://purl.org/dc/dcmitype/StillImage" /></cc:Work></rdf:RDF></metadata><defs
     id="defs6"><clipPath
       id="clipPath18"
       clipPathUnits="userSpaceOnUse"><path
         id="path16"
         d="M 0,108 H 108 V 0 H 0 Z" /></clipPath></defs><g
     transform="matrix(1.3333333,0,0,-1.3333333,0,144)"
     id="g10"><g
       id="g12"><g
         clip-path="url(#clipPath18)"
         id="g14"><path
           id="path20"
           style="fill:#000000;fill-opacity:1;fill-rule:nonzero;stroke:none"
           d="m 19.833,26.832 c 0,-1.012 -0.82,-1.833 -1.833,-1.833 -1.012,0 -1.833,0.821 -1.833,1.833 0,1.013 0.821,1.834 1.833,1.834 1.013,0 1.833,-0.821 1.833,-1.834" /><path
           id="path22"
           style="fill:none;stroke:#000000;stroke-width:1;stroke-linecap:butt;stroke-linejoin:miter;stroke-miterlimit:4;stroke-dasharray:none;stroke-opacity:1"
           d="m 19.833,26.832 c 0,-1.012 -0.82,-1.833 -1.833,-1.833 -1.012,0 -1.833,0.821 -1.833,1.833 0,1.013 0.821,1.834 1.833,1.834 1.013,0 1.833,-0.821 1.833,-1.834 z" /><path
           id="path24"
           style="fill:#000000;fill-opacity:1;fill-rule:nonzero;stroke:none"
           d="m 69.833,77.529 c 0,-1.011 -0.82,-1.834 -1.834,-1.834 -1.012,0 -1.832,0.823 -1.832,1.834 0,1.012 0.82,1.832 1.832,1.832 1.014,0 1.834,-0.82 1.834,-1.832" /><path
           id="path26"
           style="fill:none;stroke:#000000;stroke-width:1;stroke-linecap:butt;stroke-linejoin:miter;stroke-miterlimit:4;stroke-dasharray:none;stroke-opacity:1"
           d="m 69.833,77.529 c 0,-1.011 -0.82,-1.834 -1.834,-1.834 -1.012,0 -1.832,0.823 -1.832,1.834 0,1.012 0.82,1.832 1.832,1.832 1.014,0 1.834,-0.82 1.834,-1.832 z" /><path
           id="path28"
           style="fill:#000000;fill-opacity:1;fill-rule:nonzero;stroke:none"
           d="m 19.834,77.527 c 0,-1.011 -0.821,-1.832 -1.834,-1.832 -1.012,0 -1.833,0.821 -1.833,1.832 0,1.014 0.821,1.834 1.833,1.834 1.013,0 1.834,-0.82 1.834,-1.834" /><path
           id="path30"
           style="fill:none;stroke:#000000;stroke-width:1;stroke-linecap:butt;stroke-linejoin:miter;stroke-miterlimit:4;stroke-dasharray:none;stroke-opacity:1"
           d="m 19.834,77.527 c 0,-1.011 -0.821,-1.832 -1.834,-1.832 -1.012,0 -1.833,0.821 -1.833,1.832 0,1.014 0.821,1.834 1.833,1.834 1.013,0 1.834,-0.82 1.834,-1.834 z" /><path
           id="path32"
           style="fill:#000000;fill-opacity:1;fill-rule:nonzero;stroke:none"
           d="m 94.832,77.528 c 0,-1.011 -0.82,-1.833 -1.833,-1.833 -1.013,0 -1.833,0.822 -1.833,1.833 0,1.013 0.82,1.834 1.833,1.834 1.013,0 1.833,-0.821 1.833,-1.834" /><path
           id="path34"
           style="fill:none;stroke:#000000;stroke-width:1;stroke-linecap:butt;stroke-linejoin:miter;stroke-miterlimit:4;stroke-dasharray:none;stroke-opacity:1"
           d="m 94.832,77.528 c 0,-1.011 -0.82,-1.833 -1.833,-1.833 -1.013,0 -1.833,0.822 -1.833,1.833 0,1.013 0.82,1.834 1.833,1.834 1.013,0 1.833,-0.821 1.833,-1.834 z" /><path
           id="path36"
           style="fill:#000000;fill-opacity:1;fill-rule:nonzero;stroke:none"
           d="m 44.833,77.528 c 0,-1.011 -0.82,-1.833 -1.833,-1.833 -1.012,0 -1.833,0.822 -1.833,1.833 0,1.013 0.821,1.834 1.833,1.834 1.013,0 1.833,-0.821 1.833,-1.834" /><path
           id="path38"
           style="fill:none;stroke:#000000;stroke-width:1;stroke-linecap:butt;stroke-linejoin:miter;stroke-miterlimit:4;stroke-dasharray:none;stroke-opacity:1"
           d="m 44.833,77.528 c 0,-1.011 -0.82,-1.833 -1.833,-1.833 -1.012,0 -1.833,0.822 -1.833,1.833 0,1.013 0.821,1.834 1.833,1.834 1.013,0 1.833,-0.821 1.833,-1.834 z" /><path
           id="path40"
           style="fill:none;stroke:#000000;stroke-width:1;stroke-linecap:butt;stroke-linejoin:miter;stroke-miterlimit:4;stroke-dasharray:none;stroke-opacity:1"
           d="M 18,26.833 V 77.667" /><path
           id="path42"
           style="fill:none;stroke:#000000;stroke-width:1;stroke-linecap:butt;stroke-linejoin:miter;stroke-miterlimit:4;stroke-dasharray:none;stroke-opacity:1"
           d="M 92.999,77.529 17.667,77.667" /></g></g></g></svg>