<?xml version="1.0" encoding="UTF-8" standalone="no"?>
<!-- Created with Inkscape (http://www.inkscape.org/) -->

<svg
   xmlns:dc="http://purl.org/dc/elements/1.1/"
   xmlns:cc="http://creativecommons.org/ns#"
   xmlns:rdf="http://www.w3.org/1999/02/22-rdf-syntax-ns#"
   xmlns:svg="http://www.w3.org/2000/svg"
   xmlns="http://www.w3.org/2000/svg"
   xmlns:sodipodi="http://sodipodi.sourceforge.net/DTD/sodipodi-0.dtd"
   xmlns:inkscape="http://www.inkscape.org/namespaces/inkscape"
   version="1.1"
   id="svg2"
   xml:space="preserve"
   width="384"
   height="96"
   viewBox="0 0 384 96"
   sodipodi:docname="LogicCircuits.svg"
   inkscape:version="0.92.3 (2405546, 2018-03-11)"><metadata
     id="metadata8"><rdf:RDF><cc:Work
         rdf:about=""><dc:format>image/svg+xml</dc:format><dc:type
           rdf:resource="http://purl.org/dc/dcmitype/StillImage" /><dc:title></dc:title></cc:Work></rdf:RDF></metadata><defs
     id="defs6"><clipPath
       clipPathUnits="userSpaceOnUse"
       id="clipPath26"><path
         d="M 0,72 H 288 V 0 H 0 Z"
         id="path24"
         inkscape:connector-curvature="0" /></clipPath><clipPath
       clipPathUnits="userSpaceOnUse"
       id="clipPath170"><path
         d="M 0,72 H 288 V 0 H 0 Z"
         id="path168"
         inkscape:connector-curvature="0" /></clipPath><clipPath
       clipPathUnits="userSpaceOnUse"
       id="clipPath192"><path
         d="M 0,72 H 288 V 0 H 0 Z"
         id="path190"
         inkscape:connector-curvature="0" /></clipPath></defs><sodipodi:namedview
     pagecolor="#ffffff"
     bordercolor="#666666"
     borderopacity="1"
     objecttolerance="10"
     gridtolerance="10"
     guidetolerance="10"
     inkscape:pageopacity="0"
     inkscape:pageshadow="2"
     inkscape:window-width="2560"
     inkscape:window-height="1346"
     id="namedview4"
     showgrid="false"
     inkscape:zoom="2.9462783"
     inkscape:cx="192"
     inkscape:cy="48"
     inkscape:window-x="-11"
     inkscape:window-y="-11"
     inkscape:window-maximized="1"
     inkscape:current-layer="g10" /><g
     id="g10"
     inkscape:groupmode="layer"
     inkscape:label="LogicCircuits"
     transform="matrix(1.3333333,0,0,-1.3333333,0,96)"><g
       id="g12"
       transform="translate(29.5,18.8662)"><path
         d="M 0,0 V 22.14 L 19.172,11.069 Z"
         style="fill:#ffffff;fill-opacity:1;fill-rule:nonzero;stroke:none"
         id="path14"
         inkscape:connector-curvature="0" /></g><g
       id="g16"
       transform="translate(29.5,18.8662)"><path
         d="M 0,0 V 22.14 L 19.172,11.069 Z"
         style="fill:none;stroke:#000000;stroke-width:1;stroke-linecap:butt;stroke-linejoin:miter;stroke-miterlimit:10;stroke-dasharray:none;stroke-opacity:1"
         id="path18"
         inkscape:connector-curvature="0" /></g><g
       id="g20"><g
         id="g22"
         clip-path="url(#clipPath26)"><g
           id="g28"
           transform="translate(52.2485,29.9355)"><path
             d="m 0,0 c 0,-1.059 -0.858,-1.917 -1.917,-1.917 -1.059,0 -1.917,0.858 -1.917,1.917 0,1.059 0.858,1.917 1.917,1.917 C -0.858,1.917 0,1.059 0,0"
             style="fill:#ffffff;fill-opacity:1;fill-rule:nonzero;stroke:none"
             id="path30"
             inkscape:connector-curvature="0" /></g><g
           id="g32"
           transform="translate(52.2485,29.9355)"><path
             d="m 0,0 c 0,-1.059 -0.858,-1.917 -1.917,-1.917 -1.059,0 -1.917,0.858 -1.917,1.917 0,1.059 0.858,1.917 1.917,1.917 C -0.858,1.917 0,1.059 0,0 Z"
             style="fill:none;stroke:#000000;stroke-width:1;stroke-linecap:butt;stroke-linejoin:miter;stroke-miterlimit:10;stroke-dasharray:none;stroke-opacity:1"
             id="path34"
             inkscape:connector-curvature="0" /></g><g
           id="g36"
           transform="translate(229.6006,28.5)"><path
             d="m 0,0 c 0,0 -0.207,-11.85 -4.63,-13 h 23.67 c 0,0 9.012,7.95 9.425,13 C 28.052,5.05 19.04,13 19.04,13 H -4.63 C -0.207,11 0,0 0,0"
             style="fill:#ffffff;fill-opacity:1;fill-rule:nonzero;stroke:none"
             id="path38"
             inkscape:connector-curvature="0" /></g><g
           id="g40"
           transform="translate(229.6006,28.5)"><path
             d="m 0,0 c 0,0 -0.207,-11.85 -4.63,-13 h 23.67 c 0,0 9.012,7.95 9.425,13 C 28.052,5.05 19.04,13 19.04,13 H -4.63 C -0.207,11 0,0 0,0 Z"
             style="fill:none;stroke:#000000;stroke-width:1;stroke-linecap:butt;stroke-linejoin:miter;stroke-miterlimit:10;stroke-dasharray:none;stroke-opacity:1"
             id="path42"
             inkscape:connector-curvature="0" /></g><g
           id="g44"
           transform="translate(119.5,43.5)"><path
             d="m 0,0 h 23.26 c 0,0 21.813,-12 -0.079,-27 H 0 Z"
             style="fill:#ffffff;fill-opacity:1;fill-rule:nonzero;stroke:none"
             id="path46"
             inkscape:connector-curvature="0" /></g><g
           id="g48"
           transform="translate(119.5,43.5)"><path
             d="m 0,0 h 23.26 c 0,0 21.813,-12 -0.079,-27 H 0 Z"
             style="fill:none;stroke:#000000;stroke-width:1;stroke-linecap:butt;stroke-linejoin:miter;stroke-miterlimit:10;stroke-dasharray:none;stroke-opacity:1"
             id="path50"
             inkscape:connector-curvature="0" /></g><g
           id="g52"
           transform="translate(1,29.5)"><path
             d="M 0,0 H 22"
             style="fill:none;stroke:#000000;stroke-width:1;stroke-linecap:butt;stroke-linejoin:miter;stroke-miterlimit:10;stroke-dasharray:none;stroke-opacity:1"
             id="path54"
             inkscape:connector-curvature="0" /></g><g
           id="g56"
           transform="translate(23.5,27.0898)"><path
             d="M 0,0 V 5.466 L 4.734,2.732 Z"
             style="fill:#000000;fill-opacity:1;fill-rule:nonzero;stroke:none"
             id="path58"
             inkscape:connector-curvature="0" /></g><g
           id="g60"
           transform="translate(23.5,27.0898)"><path
             d="M 0,0 V 5.466 L 4.734,2.732 Z"
             style="fill:none;stroke:#000000;stroke-width:1;stroke-linecap:butt;stroke-linejoin:miter;stroke-miterlimit:10;stroke-dasharray:none;stroke-opacity:1"
             id="path62"
             inkscape:connector-curvature="0" /></g><g
           id="g64"
           transform="translate(52,29.5)"><path
             d="M 0,0 H 20"
             style="fill:none;stroke:#000000;stroke-width:1;stroke-linecap:butt;stroke-linejoin:miter;stroke-miterlimit:10;stroke-dasharray:none;stroke-opacity:1"
             id="path66"
             inkscape:connector-curvature="0" /></g><g
           id="g68"
           transform="translate(72.5,27.0898)"><path
             d="M 0,0 V 5.466 L 4.734,2.732 Z"
             style="fill:#000000;fill-opacity:1;fill-rule:nonzero;stroke:none"
             id="path70"
             inkscape:connector-curvature="0" /></g><g
           id="g72"
           transform="translate(72.5,27.0898)"><path
             d="M 0,0 V 5.466 L 4.734,2.732 Z"
             style="fill:none;stroke:#000000;stroke-width:1;stroke-linecap:butt;stroke-linejoin:miter;stroke-miterlimit:10;stroke-dasharray:none;stroke-opacity:1"
             id="path74"
             inkscape:connector-curvature="0" /></g><g
           id="g76"
           transform="translate(258,28.5)"><path
             d="M 0,0 H 20"
             style="fill:none;stroke:#000000;stroke-width:1;stroke-linecap:butt;stroke-linejoin:miter;stroke-miterlimit:10;stroke-dasharray:none;stroke-opacity:1"
             id="path78"
             inkscape:connector-curvature="0" /></g><g
           id="g80"
           transform="translate(278.5,26.1191)"><path
             d="M 0,0 V 5.465 L 4.734,2.732 Z"
             style="fill:#000000;fill-opacity:1;fill-rule:nonzero;stroke:none"
             id="path82"
             inkscape:connector-curvature="0" /></g><g
           id="g84"
           transform="translate(278.5,26.1191)"><path
             d="M 0,0 V 5.465 L 4.734,2.732 Z"
             style="fill:none;stroke:#000000;stroke-width:1;stroke-linecap:butt;stroke-linejoin:miter;stroke-miterlimit:10;stroke-dasharray:none;stroke-opacity:1"
             id="path86"
             inkscape:connector-curvature="0" /></g><g
           id="g88"
           transform="translate(93,40.5)"><path
             d="M 0,0 H 20"
             style="fill:none;stroke:#000000;stroke-width:1;stroke-linecap:butt;stroke-linejoin:miter;stroke-miterlimit:10;stroke-dasharray:none;stroke-opacity:1"
             id="path90"
             inkscape:connector-curvature="0" /></g><g
           id="g92"
           transform="translate(113.5,38.0898)"><path
             d="M 0,0 V 5.466 L 4.734,2.732 Z"
             style="fill:#000000;fill-opacity:1;fill-rule:nonzero;stroke:none"
             id="path94"
             inkscape:connector-curvature="0" /></g><g
           id="g96"
           transform="translate(113.5,38.0898)"><path
             d="M 0,0 V 5.466 L 4.734,2.732 Z"
             style="fill:none;stroke:#000000;stroke-width:1;stroke-linecap:butt;stroke-linejoin:miter;stroke-miterlimit:10;stroke-dasharray:none;stroke-opacity:1"
             id="path98"
             inkscape:connector-curvature="0" /></g><g
           id="g100"
           transform="translate(93,18.5)"><path
             d="M 0,0 H 20"
             style="fill:none;stroke:#000000;stroke-width:1;stroke-linecap:butt;stroke-linejoin:miter;stroke-miterlimit:10;stroke-dasharray:none;stroke-opacity:1"
             id="path102"
             inkscape:connector-curvature="0" /></g><g
           id="g104"
           transform="translate(113.5,16.0898)"><path
             d="M 0,0 V 5.466 L 4.734,2.732 Z"
             style="fill:#000000;fill-opacity:1;fill-rule:nonzero;stroke:none"
             id="path106"
             inkscape:connector-curvature="0" /></g><g
           id="g108"
           transform="translate(113.5,16.0898)"><path
             d="M 0,0 V 5.466 L 4.734,2.732 Z"
             style="fill:none;stroke:#000000;stroke-width:1;stroke-linecap:butt;stroke-linejoin:miter;stroke-miterlimit:10;stroke-dasharray:none;stroke-opacity:1"
             id="path110"
             inkscape:connector-curvature="0" /></g><g
           id="g112"
           transform="translate(152,29.5)"><path
             d="M 0,0 H 20"
             style="fill:none;stroke:#000000;stroke-width:1;stroke-linecap:butt;stroke-linejoin:miter;stroke-miterlimit:10;stroke-dasharray:none;stroke-opacity:1"
             id="path114"
             inkscape:connector-curvature="0" /></g><g
           id="g116"
           transform="translate(172.5,27.0898)"><path
             d="M 0,0 V 5.466 L 4.734,2.732 Z"
             style="fill:#000000;fill-opacity:1;fill-rule:nonzero;stroke:none"
             id="path118"
             inkscape:connector-curvature="0" /></g><g
           id="g120"
           transform="translate(172.5,27.0898)"><path
             d="M 0,0 V 5.466 L 4.734,2.732 Z"
             style="fill:none;stroke:#000000;stroke-width:1;stroke-linecap:butt;stroke-linejoin:miter;stroke-miterlimit:10;stroke-dasharray:none;stroke-opacity:1"
             id="path122"
             inkscape:connector-curvature="0" /></g><g
           id="g124"
           transform="translate(202,37.5)"><path
             d="M 0,0 H 20"
             style="fill:none;stroke:#000000;stroke-width:1;stroke-linecap:butt;stroke-linejoin:miter;stroke-miterlimit:10;stroke-dasharray:none;stroke-opacity:1"
             id="path126"
             inkscape:connector-curvature="0" /></g><g
           id="g128"
           transform="translate(222.5,35.0898)"><path
             d="M 0,0 V 5.466 L 4.734,2.732 Z"
             style="fill:#000000;fill-opacity:1;fill-rule:nonzero;stroke:none"
             id="path130"
             inkscape:connector-curvature="0" /></g><g
           id="g132"
           transform="translate(222.5,35.0898)"><path
             d="M 0,0 V 5.466 L 4.734,2.732 Z"
             style="fill:none;stroke:#000000;stroke-width:1;stroke-linecap:butt;stroke-linejoin:miter;stroke-miterlimit:10;stroke-dasharray:none;stroke-opacity:1"
             id="path134"
             inkscape:connector-curvature="0" /></g><g
           id="g136"
           transform="translate(202,19.5)"><path
             d="M 0,0 H 20"
             style="fill:none;stroke:#000000;stroke-width:1;stroke-linecap:butt;stroke-linejoin:miter;stroke-miterlimit:10;stroke-dasharray:none;stroke-opacity:1"
             id="path138"
             inkscape:connector-curvature="0" /></g><g
           id="g140"
           transform="translate(222.5,17.0898)"><path
             d="M 0,0 V 5.466 L 4.734,2.732 Z"
             style="fill:#000000;fill-opacity:1;fill-rule:nonzero;stroke:none"
             id="path142"
             inkscape:connector-curvature="0" /></g><g
           id="g144"
           transform="translate(222.5,17.0898)"><path
             d="M 0,0 V 5.466 L 4.734,2.732 Z"
             style="fill:none;stroke:#000000;stroke-width:1;stroke-linecap:butt;stroke-linejoin:miter;stroke-miterlimit:10;stroke-dasharray:none;stroke-opacity:1"
             id="path146"
             inkscape:connector-curvature="0" /></g></g></g><text
       transform="matrix(1,0,0,-1,23.5,53.5)"
       style="font-variant:normal;font-weight:normal;font-stretch:normal;font-size:10px;font-family:'Myriad Pro';-inkscape-font-specification:MyriadPro-Regular;writing-mode:lr-tb;fill:#000000;fill-opacity:1;fill-rule:nonzero;stroke:none"
       id="text162"><tspan
         x="0 2.3399999 7.7600002 12.47 17.48 20.99 24.24 29.25 90 94.82 100.37 106.01 108.13 113.72 118.5 121.749 197.5 202.99001 206.25999 208.38 213.97 218.75 221.99899"
         y="0"
         sodipodi:role="line"
         id="tspan148">inverterand gateor gate</tspan><tspan
         x="-13.75"
         y="21.92"
         id="tspan150">A</tspan><tspan
         x="77.75"
         y="10"
         id="tspan152">A</tspan><tspan
         x="77.75"
         y="31.940001"
         id="tspan154">B</tspan><tspan
         x="185.5"
         y="14"
         id="tspan156">A</tspan><tspan
         x="185.5"
         y="31.940001"
         id="tspan158">B</tspan><tspan
         x="36.75"
         y="21.91"
         id="tspan160">A</tspan></text>
<g
       id="g164"><g
         id="g166"
         clip-path="url(#clipPath170)"><g
           id="g172"
           transform="translate(56,34.5)"><path
             d="M 0,0 H 3.5 V -1.5"
             style="fill:none;stroke:#000000;stroke-width:1;stroke-linecap:butt;stroke-linejoin:miter;stroke-miterlimit:10;stroke-dasharray:none;stroke-opacity:1"
             id="path174"
             inkscape:connector-curvature="0" /></g><g
           id="g176"
           transform="translate(160.625,32)"><path
             d="M 0,0 2.625,5.505 5.25,0"
             style="fill:none;stroke:#000000;stroke-width:1;stroke-linecap:butt;stroke-linejoin:miter;stroke-miterlimit:10;stroke-dasharray:none;stroke-opacity:1"
             id="path178"
             inkscape:connector-curvature="0" /></g></g></g><text
       transform="matrix(1,0,0,-1,154.5,31.8525)"
       style="font-variant:normal;font-weight:normal;font-stretch:normal;font-size:10px;font-family:'Myriad Pro';-inkscape-font-specification:MyriadPro-Regular;writing-mode:lr-tb;fill:#000000;fill-opacity:1;fill-rule:nonzero;stroke:none"
       id="text184"><tspan
         x="0"
         y="0"
         id="tspan180">A</tspan><tspan
         x="11.12"
         y="0.27000001"
         id="tspan182">B</tspan></text>
<g
       id="g186"><g
         id="g188"
         clip-path="url(#clipPath192)"><g
           id="g194"
           transform="translate(264.625,38.0605)"><path
             d="M 0,0 2.625,-5.505 5.25,0"
             style="fill:none;stroke:#000000;stroke-width:1;stroke-linecap:butt;stroke-linejoin:miter;stroke-miterlimit:10;stroke-dasharray:none;stroke-opacity:1"
             id="path196"
             inkscape:connector-curvature="0" /></g></g></g><text
       transform="matrix(1,0,0,-1,259.5,31.584)"
       style="font-variant:normal;font-weight:normal;font-stretch:normal;font-size:10px;font-family:'Myriad Pro';-inkscape-font-specification:MyriadPro-Regular;writing-mode:lr-tb;fill:#000000;fill-opacity:1;fill-rule:nonzero;stroke:none"
       id="text200"><tspan
         x="0 10.38"
         y="0"
         sodipodi:role="line"
         id="tspan198">AB</tspan></text>
</g></svg>