<?xml version="1.0" encoding="UTF-8" standalone="no"?>
<svg
   xmlns:dc="http://purl.org/dc/elements/1.1/"
   xmlns:cc="http://creativecommons.org/ns#"
   xmlns:rdf="http://www.w3.org/1999/02/22-rdf-syntax-ns#"
   xmlns:svg="http://www.w3.org/2000/svg"
   xmlns="http://www.w3.org/2000/svg"
   viewBox="0 0 144 144"
   height="144"
   width="144"
   xml:space="preserve"
   id="svg2"
   version="1.1"><metadata
     id="metadata8"><rdf:RDF><cc:Work
         rdf:about=""><dc:format>image/svg+xml</dc:format><dc:type
           rdf:resource="http://purl.org/dc/dcmitype/StillImage" /></cc:Work></rdf:RDF></metadata><defs
     id="defs6"><clipPath
       id="clipPath18"
       clipPathUnits="userSpaceOnUse"><path
         id="path16"
         d="M 0,108 H 108 V 0 H 0 Z" /></clipPath></defs><g
     transform="matrix(1.3333333,0,0,-1.3333333,0,144)"
     id="g10"><g
       id="g12"><g
         clip-path="url(#clipPath18)"
         id="g14"><path
           id="path20"
           style="fill:#000000;fill-opacity:1;fill-rule:nonzero;stroke:none"
           d="M 12.5,9 C 12.5,7.988 11.679,7.167 10.666,7.167 9.654,7.167 8.833,7.988 8.833,9 c 0,1.013 0.821,1.834 1.833,1.834 1.013,0 1.834,-0.821 1.834,-1.834" /><path
           id="path22"
           style="fill:none;stroke:#000000;stroke-width:1;stroke-linecap:butt;stroke-linejoin:miter;stroke-miterlimit:4;stroke-dasharray:none;stroke-opacity:1"
           d="M 12.5,9 C 12.5,7.988 11.679,7.167 10.666,7.167 9.654,7.167 8.833,7.988 8.833,9 c 0,1.013 0.821,1.834 1.833,1.834 1.013,0 1.834,-0.821 1.834,-1.834 z" /><path
           id="path24"
           style="fill:#000000;fill-opacity:1;fill-rule:nonzero;stroke:none"
           d="m 23.11,20.029 c 0,-1.011 -0.82,-1.834 -1.834,-1.834 -1.011,0 -1.832,0.823 -1.832,1.834 0,1.012 0.821,1.832 1.832,1.832 1.014,0 1.834,-0.82 1.834,-1.832" /><path
           id="path26"
           style="fill:none;stroke:#000000;stroke-width:1;stroke-linecap:butt;stroke-linejoin:miter;stroke-miterlimit:4;stroke-dasharray:none;stroke-opacity:1"
           d="m 23.11,20.029 c 0,-1.011 -0.82,-1.834 -1.834,-1.834 -1.011,0 -1.832,0.823 -1.832,1.834 0,1.012 0.821,1.832 1.832,1.832 1.014,0 1.834,-0.82 1.834,-1.832 z" /><path
           id="path28"
           style="fill:#000000;fill-opacity:1;fill-rule:nonzero;stroke:none"
           d="m 44.333,42.084 c 0,-1.012 -0.82,-1.833 -1.833,-1.833 -1.013,0 -1.833,0.821 -1.833,1.833 0,1.013 0.82,1.833 1.833,1.833 1.013,0 1.833,-0.82 1.833,-1.833" /><path
           id="path30"
           style="fill:none;stroke:#000000;stroke-width:1;stroke-linecap:butt;stroke-linejoin:miter;stroke-miterlimit:4;stroke-dasharray:none;stroke-opacity:1"
           d="m 44.333,42.084 c 0,-1.012 -0.82,-1.833 -1.833,-1.833 -1.013,0 -1.833,0.821 -1.833,1.833 0,1.013 0.82,1.833 1.833,1.833 1.013,0 1.833,-0.82 1.833,-1.833 z" /><path
           id="path32"
           style="fill:#000000;fill-opacity:1;fill-rule:nonzero;stroke:none"
           d="m 65.556,64.139 c 0,-1.012 -0.821,-1.833 -1.834,-1.833 -1.012,0 -1.832,0.821 -1.832,1.833 0,1.012 0.82,1.833 1.832,1.833 1.013,0 1.834,-0.821 1.834,-1.833" /><path
           id="path34"
           style="fill:none;stroke:#000000;stroke-width:1;stroke-linecap:butt;stroke-linejoin:miter;stroke-miterlimit:4;stroke-dasharray:none;stroke-opacity:1"
           d="m 65.556,64.139 c 0,-1.012 -0.821,-1.833 -1.834,-1.833 -1.012,0 -1.832,0.821 -1.832,1.833 0,1.012 0.82,1.833 1.832,1.833 1.013,0 1.834,-0.821 1.834,-1.833 z" /><path
           id="path36"
           style="fill:#000000;fill-opacity:1;fill-rule:nonzero;stroke:none"
           d="m 76.167,75.167 c 0,-1.012 -0.82,-1.834 -1.834,-1.834 -1.012,0 -1.832,0.822 -1.832,1.834 0,1.012 0.82,1.833 1.832,1.833 1.014,0 1.834,-0.821 1.834,-1.833" /><path
           id="path38"
           style="fill:none;stroke:#000000;stroke-width:1;stroke-linecap:butt;stroke-linejoin:miter;stroke-miterlimit:4;stroke-dasharray:none;stroke-opacity:1"
           d="m 76.167,75.167 c 0,-1.012 -0.82,-1.834 -1.834,-1.834 -1.012,0 -1.832,0.822 -1.832,1.834 0,1.012 0.82,1.833 1.832,1.833 1.014,0 1.834,-0.821 1.834,-1.833 z" /><path
           id="path40"
           style="fill:#000000;fill-opacity:1;fill-rule:nonzero;stroke:none"
           d="m 54.945,53.111 c 0,-1.012 -0.821,-1.833 -1.834,-1.833 -1.012,0 -1.833,0.821 -1.833,1.833 0,1.013 0.821,1.833 1.833,1.833 1.013,0 1.834,-0.82 1.834,-1.833" /><path
           id="path42"
           style="fill:none;stroke:#000000;stroke-width:1;stroke-linecap:butt;stroke-linejoin:miter;stroke-miterlimit:4;stroke-dasharray:none;stroke-opacity:1"
           d="m 54.945,53.111 c 0,-1.012 -0.821,-1.833 -1.834,-1.833 -1.012,0 -1.833,0.821 -1.833,1.833 0,1.013 0.821,1.833 1.833,1.833 1.013,0 1.834,-0.82 1.834,-1.833 z" /><path
           id="path44"
           style="fill:#000000;fill-opacity:1;fill-rule:nonzero;stroke:none"
           d="m 33.722,31.055 c 0,-1.012 -0.821,-1.832 -1.833,-1.832 -1.013,0 -1.833,0.82 -1.833,1.832 0,1.013 0.82,1.834 1.833,1.834 1.012,0 1.833,-0.821 1.833,-1.834" /><path
           id="path46"
           style="fill:none;stroke:#000000;stroke-width:1;stroke-linecap:butt;stroke-linejoin:miter;stroke-miterlimit:4;stroke-dasharray:none;stroke-opacity:1"
           d="m 33.722,31.055 c 0,-1.012 -0.821,-1.832 -1.833,-1.832 -1.013,0 -1.833,0.82 -1.833,1.832 0,1.013 0.82,1.834 1.833,1.834 1.012,0 1.833,-0.821 1.833,-1.834 z" /><path
           id="path48"
           style="fill:none;stroke:#000000;stroke-width:1;stroke-linecap:butt;stroke-linejoin:miter;stroke-miterlimit:4;stroke-dasharray:none;stroke-opacity:1"
           d="m 10.667,9 70.5,73.167" /><text
           id="text52"
           style="font-variant:normal;font-weight:normal;font-stretch:normal;font-size:11.99995518px;font-family:Myriad;-inkscape-font-specification:Myriad-Roman;writing-mode:lr-tb;fill:#000000;fill-opacity:1;fill-rule:nonzero;stroke:none"
           transform="matrix(0.70714428,0.70706928,0.70706928,-0.70714428,85.2041,86.3721)"><tspan
             id="tspan50"
             y="0"
             x="0">.</tspan></text>
<text
           id="text56"
           style="font-variant:normal;font-weight:normal;font-stretch:normal;font-size:12.0000267px;font-family:Myriad;-inkscape-font-specification:Myriad-Roman;writing-mode:lr-tb;fill:#000000;fill-opacity:1;fill-rule:nonzero;stroke:none"
           transform="matrix(0.70710678,0.70710678,0.70710678,-0.70710678,86.9639,88.1304)"><tspan
             id="tspan54"
             y="0"
             x="0">.</tspan></text>
<text
           id="text60"
           style="font-variant:normal;font-weight:normal;font-stretch:normal;font-size:11.99995518px;font-family:Myriad;-inkscape-font-specification:Myriad-Roman;writing-mode:lr-tb;fill:#000000;fill-opacity:1;fill-rule:nonzero;stroke:none"
           transform="matrix(0.70706928,0.70714428,0.70714428,-0.70706928,88.7236,89.8896)"><tspan
             id="tspan58"
             y="0"
             x="0">.</tspan></text>
<text
           id="text64"
           style="font-variant:normal;font-weight:normal;font-stretch:normal;font-size:12px;font-family:Myriad;-inkscape-font-specification:Myriad-Roman;writing-mode:lr-tb;fill:#000000;fill-opacity:1;fill-rule:nonzero;stroke:none"
           transform="matrix(1,0,0,-1,86.833,78.75)"><tspan
             id="tspan62"
             y="0"
             x="0 6.0120001 9.9119997">etc</tspan></text>
</g></g></g></svg>