<?xml version="1.0" encoding="UTF-8" standalone="no"?>
<svg
   xmlns:dc="http://purl.org/dc/elements/1.1/"
   xmlns:cc="http://creativecommons.org/ns#"
   xmlns:rdf="http://www.w3.org/1999/02/22-rdf-syntax-ns#"
   xmlns:svg="http://www.w3.org/2000/svg"
   xmlns="http://www.w3.org/2000/svg"
   viewBox="0 0 144 144"
   height="144"
   width="144"
   xml:space="preserve"
   id="svg2"
   version="1.1"><metadata
     id="metadata8"><rdf:RDF><cc:Work
         rdf:about=""><dc:format>image/svg+xml</dc:format><dc:type
           rdf:resource="http://purl.org/dc/dcmitype/StillImage" /></cc:Work></rdf:RDF></metadata><defs
     id="defs6"><clipPath
       id="clipPath18"
       clipPathUnits="userSpaceOnUse"><path
         id="path16"
         d="M 0,108 H 108 V 0 H 0 Z" /></clipPath></defs><g
     transform="matrix(1.3333333,0,0,-1.3333333,0,144)"
     id="g10"><g
       id="g12"><g
         clip-path="url(#clipPath18)"
         id="g14"><text
           id="text22"
           style="font-variant:normal;font-weight:normal;font-stretch:normal;font-size:12px;font-family:Myriad;-inkscape-font-specification:Myriad-Roman;writing-mode:lr-tb;fill:#000000;fill-opacity:1;fill-rule:nonzero;stroke:none"
           transform="matrix(1,0,0,-1,74.4155,12.0825)"><tspan
             id="tspan20"
             y="0"
             x="0">r</tspan></text>
<path
           id="path24"
           style="fill:#000000;fill-opacity:1;fill-rule:nonzero;stroke:none"
           d="m 16.5,87.5 c 0,-1.013 -0.821,-1.833 -1.833,-1.833 -1.013,0 -1.834,0.82 -1.834,1.833 0,1.012 0.821,1.833 1.834,1.833 1.012,0 1.833,-0.821 1.833,-1.833" /><path
           id="path26"
           style="fill:none;stroke:#000000;stroke-width:1;stroke-linecap:butt;stroke-linejoin:miter;stroke-miterlimit:4;stroke-dasharray:none;stroke-opacity:1"
           d="m 16.5,87.5 c 0,-1.013 -0.821,-1.833 -1.833,-1.833 -1.013,0 -1.834,0.82 -1.834,1.833 0,1.012 0.821,1.833 1.834,1.833 1.012,0 1.833,-0.821 1.833,-1.833 z" /><path
           id="path28"
           style="fill:#000000;fill-opacity:1;fill-rule:nonzero;stroke:none"
           d="m 79.084,22.333 c 0,-1.012 -0.82,-1.833 -1.834,-1.833 -1.012,0 -1.832,0.821 -1.832,1.833 0,1.013 0.82,1.834 1.832,1.834 1.014,0 1.834,-0.821 1.834,-1.834" /><path
           id="path30"
           style="fill:none;stroke:#000000;stroke-width:1;stroke-linecap:butt;stroke-linejoin:miter;stroke-miterlimit:4;stroke-dasharray:none;stroke-opacity:1"
           d="m 79.084,22.333 c 0,-1.012 -0.82,-1.833 -1.834,-1.833 -1.012,0 -1.832,0.821 -1.832,1.833 0,1.013 0.82,1.834 1.832,1.834 1.014,0 1.834,-0.821 1.834,-1.834 z" /><path
           id="path32"
           style="fill:#000000;fill-opacity:1;fill-rule:nonzero;stroke:none"
           d="m 16.5,22.332 c 0,-1.012 -0.821,-1.832 -1.833,-1.832 -1.013,0 -1.834,0.82 -1.834,1.832 0,1.014 0.821,1.834 1.834,1.834 1.012,0 1.833,-0.82 1.833,-1.834" /><path
           id="path34"
           style="fill:none;stroke:#000000;stroke-width:1;stroke-linecap:butt;stroke-linejoin:miter;stroke-miterlimit:4;stroke-dasharray:none;stroke-opacity:1"
           d="m 16.5,22.332 c 0,-1.012 -0.821,-1.832 -1.833,-1.832 -1.013,0 -1.834,0.82 -1.834,1.832 0,1.014 0.821,1.834 1.834,1.834 1.012,0 1.833,-0.82 1.833,-1.834 z" /><text
           id="text38"
           style="font-variant:normal;font-weight:normal;font-stretch:normal;font-size:12px;font-family:Myriad;-inkscape-font-specification:Myriad-Roman;writing-mode:lr-tb;fill:#000000;fill-opacity:1;fill-rule:nonzero;stroke:none"
           transform="matrix(1,0,0,-1,11.6665,93.4995)"><tspan
             id="tspan36"
             y="0"
             x="0">p</tspan></text>
<text
           id="text42"
           style="font-variant:normal;font-weight:normal;font-stretch:normal;font-size:12px;font-family:Myriad;-inkscape-font-specification:Myriad-Roman;writing-mode:lr-tb;fill:#000000;fill-opacity:1;fill-rule:nonzero;stroke:none"
           transform="matrix(1,0,0,-1,74.4175,92.4995)"><tspan
             id="tspan40"
             y="0"
             x="0">q</tspan></text>
<text
           id="text46"
           style="font-variant:normal;font-weight:normal;font-stretch:normal;font-size:12px;font-family:Myriad;-inkscape-font-specification:Myriad-Roman;writing-mode:lr-tb;fill:#000000;fill-opacity:1;fill-rule:nonzero;stroke:none"
           transform="matrix(1,0,0,-1,13.3335,11.9165)"><tspan
             id="tspan44"
             y="0"
             x="0">s</tspan></text>
<path
           id="path48"
           style="fill:#000000;fill-opacity:1;fill-rule:nonzero;stroke:none"
           d="m 79.708,87.5 c 0,-1.012 -0.82,-1.833 -1.833,-1.833 -1.013,0 -1.833,0.821 -1.833,1.833 0,1.013 0.82,1.833 1.833,1.833 1.013,0 1.833,-0.82 1.833,-1.833" /><path
           id="path50"
           style="fill:none;stroke:#000000;stroke-width:1;stroke-linecap:butt;stroke-linejoin:miter;stroke-miterlimit:4;stroke-dasharray:none;stroke-opacity:1"
           d="m 79.708,87.5 c 0,-1.012 -0.82,-1.833 -1.833,-1.833 -1.013,0 -1.833,0.821 -1.833,1.833 0,1.013 0.82,1.833 1.833,1.833 1.013,0 1.833,-0.82 1.833,-1.833 z" /><path
           id="path52"
           style="fill:none;stroke:#000000;stroke-width:1;stroke-linecap:butt;stroke-linejoin:miter;stroke-miterlimit:4;stroke-dasharray:none;stroke-opacity:1"
           d="M 14.333,22.833 14.5,87.5" /><path
           id="path54"
           style="fill:none;stroke:#000000;stroke-width:1;stroke-linecap:butt;stroke-linejoin:miter;stroke-miterlimit:4;stroke-dasharray:none;stroke-opacity:1"
           d="M 77.25,87.75 V 22.418" /><path
           id="path56"
           style="fill:none;stroke:#000000;stroke-width:1;stroke-linecap:butt;stroke-linejoin:miter;stroke-miterlimit:4;stroke-dasharray:none;stroke-opacity:1"
           d="M 14.333,22.9 77.25,22.434" /><path
           id="path58"
           style="fill:none;stroke:#000000;stroke-width:1;stroke-linecap:butt;stroke-linejoin:miter;stroke-miterlimit:4;stroke-dasharray:none;stroke-opacity:1"
           d="M 102.25,63.125 C 102.25,49.663 91.337,38.75 77.875,38.75 64.413,38.75 53.5,49.663 53.5,63.125 53.5,76.587 64.413,87.5 77.875,87.5 91.337,87.5 102.25,76.587 102.25,63.125 Z" /><path
           id="path60"
           style="fill:none;stroke:#000000;stroke-width:1;stroke-linecap:butt;stroke-linejoin:miter;stroke-miterlimit:4;stroke-dasharray:none;stroke-opacity:1"
           d="m 14.5,87.5 62.75,0.25" /></g></g></g></svg>