<?xml version="1.0" encoding="UTF-8" standalone="no"?>
<svg
   xmlns:dc="http://purl.org/dc/elements/1.1/"
   xmlns:cc="http://creativecommons.org/ns#"
   xmlns:rdf="http://www.w3.org/1999/02/22-rdf-syntax-ns#"
   xmlns:svg="http://www.w3.org/2000/svg"
   xmlns="http://www.w3.org/2000/svg"
   viewBox="0 0 144 144"
   height="144"
   width="144"
   xml:space="preserve"
   id="svg2"
   version="1.1"><metadata
     id="metadata8"><rdf:RDF><cc:Work
         rdf:about=""><dc:format>image/svg+xml</dc:format><dc:type
           rdf:resource="http://purl.org/dc/dcmitype/StillImage" /></cc:Work></rdf:RDF></metadata><defs
     id="defs6"><clipPath
       id="clipPath18"
       clipPathUnits="userSpaceOnUse"><path
         id="path16"
         d="M 0,108 H 108 V 0 H 0 Z" /></clipPath></defs><g
     transform="matrix(1.3333333,0,0,-1.3333333,0,144)"
     id="g10"><g
       id="g12"><g
         clip-path="url(#clipPath18)"
         id="g14"><path
           id="path20"
           style="fill:#000000;fill-opacity:1;fill-rule:nonzero;stroke:none"
           d="m 20.833,60.167 c 0,-1.013 -0.82,-1.834 -1.833,-1.834 -1.012,0 -1.833,0.821 -1.833,1.834 0,1.012 0.821,1.833 1.833,1.833 1.013,0 1.833,-0.821 1.833,-1.833" /><path
           id="path22"
           style="fill:none;stroke:#000000;stroke-width:1;stroke-linecap:butt;stroke-linejoin:miter;stroke-miterlimit:4;stroke-dasharray:none;stroke-opacity:1"
           d="m 20.833,60.167 c 0,-1.013 -0.82,-1.834 -1.833,-1.834 -1.012,0 -1.833,0.821 -1.833,1.834 0,1.012 0.821,1.833 1.833,1.833 1.013,0 1.833,-0.821 1.833,-1.833 z" /><path
           id="path24"
           style="fill:#000000;fill-opacity:1;fill-rule:nonzero;stroke:none"
           d="m 33.333,24.001 c 0,-1.012 -0.82,-1.834 -1.833,-1.834 -1.012,0 -1.833,0.822 -1.833,1.834 0,1.012 0.821,1.832 1.833,1.832 1.013,0 1.833,-0.82 1.833,-1.832" /><path
           id="path26"
           style="fill:none;stroke:#000000;stroke-width:1;stroke-linecap:butt;stroke-linejoin:miter;stroke-miterlimit:4;stroke-dasharray:none;stroke-opacity:1"
           d="m 33.333,24.001 c 0,-1.012 -0.82,-1.834 -1.833,-1.834 -1.012,0 -1.833,0.822 -1.833,1.834 0,1.012 0.821,1.832 1.833,1.832 1.013,0 1.833,-0.82 1.833,-1.832 z" /><path
           id="path28"
           style="fill:#000000;fill-opacity:1;fill-rule:nonzero;stroke:none"
           d="m 71,24.167 c 0,-1.012 -0.82,-1.833 -1.833,-1.833 -1.013,0 -1.833,0.821 -1.833,1.833 0,1.013 0.82,1.833 1.833,1.833 C 70.18,26 71,25.18 71,24.167" /><path
           id="path30"
           style="fill:none;stroke:#000000;stroke-width:1;stroke-linecap:butt;stroke-linejoin:miter;stroke-miterlimit:4;stroke-dasharray:none;stroke-opacity:1"
           d="m 71,24.167 c 0,-1.012 -0.82,-1.833 -1.833,-1.833 -1.013,0 -1.833,0.821 -1.833,1.833 0,1.013 0.82,1.833 1.833,1.833 C 70.18,26 71,25.18 71,24.167 Z" /><path
           id="path32"
           style="fill:#000000;fill-opacity:1;fill-rule:nonzero;stroke:none"
           d="M 82.5,60.833 C 82.5,59.821 81.68,59 80.666,59 c -1.012,0 -1.832,0.821 -1.832,1.833 0,1.013 0.82,1.834 1.832,1.834 1.014,0 1.834,-0.821 1.834,-1.834" /><path
           id="path34"
           style="fill:none;stroke:#000000;stroke-width:1;stroke-linecap:butt;stroke-linejoin:miter;stroke-miterlimit:4;stroke-dasharray:none;stroke-opacity:1"
           d="M 82.5,60.833 C 82.5,59.821 81.68,59 80.666,59 c -1.012,0 -1.832,0.821 -1.832,1.833 0,1.013 0.82,1.834 1.832,1.834 1.014,0 1.834,-0.821 1.834,-1.834 z" /><path
           id="path36"
           style="fill:#000000;fill-opacity:1;fill-rule:nonzero;stroke:none"
           d="m 51.667,83.667 c 0,-1.012 -0.82,-1.834 -1.833,-1.834 -1.012,0 -1.833,0.822 -1.833,1.834 0,1.012 0.821,1.833 1.833,1.833 1.013,0 1.833,-0.821 1.833,-1.833" /><path
           id="path38"
           style="fill:none;stroke:#000000;stroke-width:1;stroke-linecap:butt;stroke-linejoin:miter;stroke-miterlimit:4;stroke-dasharray:none;stroke-opacity:1"
           d="m 51.667,83.667 c 0,-1.012 -0.82,-1.834 -1.833,-1.834 -1.012,0 -1.833,0.822 -1.833,1.834 0,1.012 0.821,1.833 1.833,1.833 1.013,0 1.833,-0.821 1.833,-1.833 z" /><text
           id="text42"
           style="font-variant:normal;font-weight:normal;font-stretch:normal;font-size:12px;font-family:Myriad;-inkscape-font-specification:Myriad-Roman;writing-mode:lr-tb;fill:#000000;fill-opacity:1;fill-rule:nonzero;stroke:none"
           transform="matrix(1,0,0,-1,7.167,61.6665)"><tspan
             id="tspan40"
             y="0"
             x="0">P</tspan></text>
<text
           id="text46"
           style="font-variant:normal;font-weight:normal;font-stretch:normal;font-size:8px;font-family:Myriad;-inkscape-font-specification:Myriad-Roman;writing-mode:lr-tb;fill:#000000;fill-opacity:1;fill-rule:nonzero;stroke:none"
           transform="matrix(1,0,0,-1,12.167,57.833)"><tspan
             id="tspan44"
             y="0"
             x="0">1</tspan></text>
<text
           id="text50"
           style="font-variant:normal;font-weight:normal;font-stretch:normal;font-size:12px;font-family:Myriad;-inkscape-font-specification:Myriad-Roman;writing-mode:lr-tb;fill:#000000;fill-opacity:1;fill-rule:nonzero;stroke:none"
           transform="matrix(1,0,0,-1,46.334,91.3335)"><tspan
             id="tspan48"
             y="0"
             x="0">P</tspan></text>
<text
           id="text54"
           style="font-variant:normal;font-weight:normal;font-stretch:normal;font-size:8px;font-family:Myriad;-inkscape-font-specification:Myriad-Roman;writing-mode:lr-tb;fill:#000000;fill-opacity:1;fill-rule:nonzero;stroke:none"
           transform="matrix(1,0,0,-1,51.334,87.5)"><tspan
             id="tspan52"
             y="0"
             x="0">2</tspan></text>
<text
           id="text58"
           style="font-variant:normal;font-weight:normal;font-stretch:normal;font-size:12px;font-family:Myriad;-inkscape-font-specification:Myriad-Roman;writing-mode:lr-tb;fill:#000000;fill-opacity:1;fill-rule:nonzero;stroke:none"
           transform="matrix(1,0,0,-1,84.1675,61.0005)"><tspan
             id="tspan56"
             y="0"
             x="0">P</tspan></text>
<text
           id="text62"
           style="font-variant:normal;font-weight:normal;font-stretch:normal;font-size:8px;font-family:Myriad;-inkscape-font-specification:Myriad-Roman;writing-mode:lr-tb;fill:#000000;fill-opacity:1;fill-rule:nonzero;stroke:none"
           transform="matrix(1,0,0,-1,89.1675,57.167)"><tspan
             id="tspan60"
             y="0"
             x="0">3</tspan></text>
<text
           id="text66"
           style="font-variant:normal;font-weight:normal;font-stretch:normal;font-size:12px;font-family:Myriad;-inkscape-font-specification:Myriad-Roman;writing-mode:lr-tb;fill:#000000;fill-opacity:1;fill-rule:nonzero;stroke:none"
           transform="matrix(1,0,0,-1,71.834,16.1675)"><tspan
             id="tspan64"
             y="0"
             x="0">P</tspan></text>
<text
           id="text70"
           style="font-variant:normal;font-weight:normal;font-stretch:normal;font-size:8px;font-family:Myriad;-inkscape-font-specification:Myriad-Roman;writing-mode:lr-tb;fill:#000000;fill-opacity:1;fill-rule:nonzero;stroke:none"
           transform="matrix(1,0,0,-1,76.834,12.334)"><tspan
             id="tspan68"
             y="0"
             x="0">4</tspan></text>
<text
           id="text74"
           style="font-variant:normal;font-weight:normal;font-stretch:normal;font-size:12px;font-family:Myriad;-inkscape-font-specification:Myriad-Roman;writing-mode:lr-tb;fill:#000000;fill-opacity:1;fill-rule:nonzero;stroke:none"
           transform="matrix(1,0,0,-1,22.167,16.1675)"><tspan
             id="tspan72"
             y="0"
             x="0">P</tspan></text>
<text
           id="text78"
           style="font-variant:normal;font-weight:normal;font-stretch:normal;font-size:8px;font-family:Myriad;-inkscape-font-specification:Myriad-Roman;writing-mode:lr-tb;fill:#000000;fill-opacity:1;fill-rule:nonzero;stroke:none"
           transform="matrix(1,0,0,-1,27.167,12.334)"><tspan
             id="tspan76"
             y="0"
             x="0">5</tspan></text>
<path
           id="path80"
           style="fill:none;stroke:#000000;stroke-width:1;stroke-linecap:butt;stroke-linejoin:miter;stroke-miterlimit:4;stroke-dasharray:none;stroke-opacity:1"
           d="M 69.598,24.446 31.024,24.063 18.723,60.623 49.707,83.653 81.139,61.293 Z" /><path
           id="path82"
           style="fill:none;stroke:#000000;stroke-width:1;stroke-linecap:butt;stroke-linejoin:miter;stroke-miterlimit:4;stroke-dasharray:none;stroke-opacity:1"
           d="m 18.167,60.5 62.5,0.333" /><path
           id="path84"
           style="fill:none;stroke:#000000;stroke-width:1;stroke-linecap:butt;stroke-linejoin:miter;stroke-miterlimit:4;stroke-dasharray:none;stroke-opacity:1"
           d="m 31.024,24.063 18.81,59.604" /><path
           id="path86"
           style="fill:none;stroke:#000000;stroke-width:1;stroke-linecap:butt;stroke-linejoin:miter;stroke-miterlimit:4;stroke-dasharray:none;stroke-opacity:1"
           d="m 18.167,60.5 c 0,0 5.167,36.5 30.167,41.833 25,5.334 46.5,-10.333 51,-27.333 4.5,-17 -8.062,-62.337 -21,-67.833 -18.833,-8 -40.667,-4.5 -47.167,16" /><path
           id="path88"
           style="fill:none;stroke:#000000;stroke-width:1;stroke-linecap:butt;stroke-linejoin:miter;stroke-miterlimit:4;stroke-dasharray:none;stroke-opacity:1"
           d="m 69.167,24.167 -51,36.333" /><path
           id="path90"
           style="fill:none;stroke:#000000;stroke-width:1;stroke-linecap:butt;stroke-linejoin:miter;stroke-miterlimit:4;stroke-dasharray:none;stroke-opacity:1"
           d="M 31.5,24 80.667,60.833" /></g></g></g></svg>