<?xml version="1.0" encoding="UTF-8" standalone="no"?>
<svg
   xmlns:dc="http://purl.org/dc/elements/1.1/"
   xmlns:cc="http://creativecommons.org/ns#"
   xmlns:rdf="http://www.w3.org/1999/02/22-rdf-syntax-ns#"
   xmlns:svg="http://www.w3.org/2000/svg"
   xmlns="http://www.w3.org/2000/svg"
   viewBox="0 0 144 144"
   height="144"
   width="144"
   xml:space="preserve"
   id="svg2"
   version="1.1"><metadata
     id="metadata8"><rdf:RDF><cc:Work
         rdf:about=""><dc:format>image/svg+xml</dc:format><dc:type
           rdf:resource="http://purl.org/dc/dcmitype/StillImage" /></cc:Work></rdf:RDF></metadata><defs
     id="defs6"><clipPath
       id="clipPath18"
       clipPathUnits="userSpaceOnUse"><path
         id="path16"
         d="M 0,108 H 108 V 0 H 0 Z" /></clipPath></defs><g
     transform="matrix(1.3333333,0,0,-1.3333333,0,144)"
     id="g10"><g
       id="g12"><g
         clip-path="url(#clipPath18)"
         id="g14"><path
           id="path20"
           style="fill:#000000;fill-opacity:1;fill-rule:nonzero;stroke:none"
           d="m 16.5,87.5 c 0,-1.013 -0.821,-1.833 -1.833,-1.833 -1.013,0 -1.834,0.82 -1.834,1.833 0,1.012 0.821,1.833 1.834,1.833 1.012,0 1.833,-0.821 1.833,-1.833" /><path
           id="path22"
           style="fill:none;stroke:#000000;stroke-width:1;stroke-linecap:butt;stroke-linejoin:miter;stroke-miterlimit:4;stroke-dasharray:none;stroke-opacity:1"
           d="m 16.5,87.5 c 0,-1.013 -0.821,-1.833 -1.833,-1.833 -1.013,0 -1.834,0.82 -1.834,1.833 0,1.012 0.821,1.833 1.834,1.833 1.012,0 1.833,-0.821 1.833,-1.833 z" /><path
           id="path24"
           style="fill:#000000;fill-opacity:1;fill-rule:nonzero;stroke:none"
           d="m 89.667,65.166 c 0,-1.012 -0.82,-1.833 -1.834,-1.833 -1.012,0 -1.832,0.821 -1.832,1.833 0,1.013 0.82,1.834 1.832,1.834 1.014,0 1.834,-0.821 1.834,-1.834" /><path
           id="path26"
           style="fill:none;stroke:#000000;stroke-width:1;stroke-linecap:butt;stroke-linejoin:miter;stroke-miterlimit:4;stroke-dasharray:none;stroke-opacity:1"
           d="m 89.667,65.166 c 0,-1.012 -0.82,-1.833 -1.834,-1.833 -1.012,0 -1.832,0.821 -1.832,1.833 0,1.013 0.82,1.834 1.832,1.834 1.014,0 1.834,-0.821 1.834,-1.834 z" /><path
           id="path28"
           style="fill:#000000;fill-opacity:1;fill-rule:nonzero;stroke:none"
           d="m 53.333,30.166 c 0,-1.012 -0.82,-1.832 -1.833,-1.832 -1.012,0 -1.833,0.82 -1.833,1.832 0,1.014 0.821,1.834 1.833,1.834 1.013,0 1.833,-0.82 1.833,-1.834" /><path
           id="path30"
           style="fill:none;stroke:#000000;stroke-width:1;stroke-linecap:butt;stroke-linejoin:miter;stroke-miterlimit:4;stroke-dasharray:none;stroke-opacity:1"
           d="m 53.333,30.166 c 0,-1.012 -0.82,-1.832 -1.833,-1.832 -1.012,0 -1.833,0.82 -1.833,1.832 0,1.014 0.821,1.834 1.833,1.834 1.013,0 1.833,-0.82 1.833,-1.834 z" /><text
           id="text34"
           style="font-variant:normal;font-weight:normal;font-stretch:normal;font-size:12px;font-family:Myriad;-inkscape-font-specification:Myriad-Roman;writing-mode:lr-tb;fill:#000000;fill-opacity:1;fill-rule:nonzero;stroke:none"
           transform="matrix(1,0,0,-1,11.6665,94.9995)"><tspan
             id="tspan32"
             y="0"
             x="0">P</tspan></text>
<text
           id="text38"
           style="font-variant:normal;font-weight:normal;font-stretch:normal;font-size:8px;font-family:Myriad;-inkscape-font-specification:Myriad-Roman;writing-mode:lr-tb;fill:#000000;fill-opacity:1;fill-rule:nonzero;stroke:none"
           transform="matrix(1,0,0,-1,16.6665,91.166)"><tspan
             id="tspan36"
             y="0"
             x="0">1</tspan></text>
<text
           id="text42"
           style="font-variant:normal;font-weight:normal;font-stretch:normal;font-size:12px;font-family:Myriad;-inkscape-font-specification:Myriad-Roman;writing-mode:lr-tb;fill:#000000;fill-opacity:1;fill-rule:nonzero;stroke:none"
           transform="matrix(1,0,0,-1,48,15.8335)"><tspan
             id="tspan40"
             y="0"
             x="0">P</tspan></text>
<text
           id="text46"
           style="font-variant:normal;font-weight:normal;font-stretch:normal;font-size:8px;font-family:Myriad;-inkscape-font-specification:Myriad-Roman;writing-mode:lr-tb;fill:#000000;fill-opacity:1;fill-rule:nonzero;stroke:none"
           transform="matrix(1,0,0,-1,53,12)"><tspan
             id="tspan44"
             y="0"
             x="0">2</tspan></text>
<text
           id="text50"
           style="font-variant:normal;font-weight:normal;font-stretch:normal;font-size:12px;font-family:Myriad;-inkscape-font-specification:Myriad-Roman;writing-mode:lr-tb;fill:#000000;fill-opacity:1;fill-rule:nonzero;stroke:none"
           transform="matrix(1,0,0,-1,84.1665,72.4995)"><tspan
             id="tspan48"
             y="0"
             x="0">P</tspan></text>
<text
           id="text54"
           style="font-variant:normal;font-weight:normal;font-stretch:normal;font-size:8px;font-family:Myriad;-inkscape-font-specification:Myriad-Roman;writing-mode:lr-tb;fill:#000000;fill-opacity:1;fill-rule:nonzero;stroke:none"
           transform="matrix(1,0,0,-1,89.1665,68.666)"><tspan
             id="tspan52"
             y="0"
             x="0">3</tspan></text>
<path
           id="path56"
           style="fill:none;stroke:#000000;stroke-width:1;stroke-linecap:butt;stroke-linejoin:miter;stroke-miterlimit:4;stroke-dasharray:none;stroke-opacity:1"
           d="M 14.167,87.667 51.5,30.167" /><path
           id="path58"
           style="fill:none;stroke:#000000;stroke-width:1;stroke-linecap:butt;stroke-linejoin:miter;stroke-miterlimit:4;stroke-dasharray:none;stroke-opacity:1"
           d="M 87.333,65 51.5,30.167" /><path
           id="path60"
           style="fill:none;stroke:#000000;stroke-width:1;stroke-linecap:butt;stroke-linejoin:miter;stroke-miterlimit:4;stroke-dasharray:none;stroke-opacity:1"
           d="M 57.5,79.667 87.333,65" /></g></g></g></svg>