<?xml version="1.0" encoding="UTF-8" standalone="no"?>
<!-- Created with Inkscape (http://www.inkscape.org/) -->

<svg
   xmlns:dc="http://purl.org/dc/elements/1.1/"
   xmlns:cc="http://creativecommons.org/ns#"
   xmlns:rdf="http://www.w3.org/1999/02/22-rdf-syntax-ns#"
   xmlns:svg="http://www.w3.org/2000/svg"
   xmlns="http://www.w3.org/2000/svg"
   xmlns:sodipodi="http://sodipodi.sourceforge.net/DTD/sodipodi-0.dtd"
   xmlns:inkscape="http://www.inkscape.org/namespaces/inkscape"
   version="1.1"
   id="svg2"
   xml:space="preserve"
   width="288"
   height="192"
   viewBox="0 0 288 192"
   sodipodi:docname="TypicalVenn.pdf"
   inkscape:version="0.92.3 (2405546, 2018-03-11)"><metadata
     id="metadata8"><rdf:RDF><cc:Work
         rdf:about=""><dc:format>image/svg+xml</dc:format><dc:type
           rdf:resource="http://purl.org/dc/dcmitype/StillImage" /><dc:title></dc:title></cc:Work></rdf:RDF></metadata><defs
     id="defs6"><clipPath
       clipPathUnits="userSpaceOnUse"
       id="clipPath20"><path
         d="M 0,144 H 216 V 0 H 0 Z"
         id="path18"
         inkscape:connector-curvature="0" /></clipPath><clipPath
       clipPathUnits="userSpaceOnUse"
       id="clipPath28"><path
         d="M 22.9229,122.499 H 126.673 V 18.75 H 22.9229 Z"
         id="path26"
         inkscape:connector-curvature="0" /></clipPath><clipPath
       clipPathUnits="userSpaceOnUse"
       id="clipPath48"><path
         d="M 89.3276,122.499 H 193.078 V 18.75 H 89.3276 Z"
         id="path46"
         inkscape:connector-curvature="0" /></clipPath></defs><sodipodi:namedview
     pagecolor="#ffffff"
     bordercolor="#666666"
     borderopacity="1"
     objecttolerance="10"
     gridtolerance="10"
     guidetolerance="10"
     inkscape:pageopacity="0"
     inkscape:pageshadow="2"
     inkscape:window-width="2560"
     inkscape:window-height="1346"
     id="namedview4"
     showgrid="false"
     inkscape:zoom="4.9166667"
     inkscape:cx="144"
     inkscape:cy="96"
     inkscape:window-x="-11"
     inkscape:window-y="-11"
     inkscape:window-maximized="1"
     inkscape:current-layer="g10" /><g
     id="g10"
     inkscape:groupmode="layer"
     inkscape:label="TypicalVenn"
     transform="matrix(1.3333333,0,0,-1.3333333,0,192)"><path
       d="M 208.8,7.2 H 7.2 v 129.6 h 201.6 z"
       style="fill:none;stroke:#231f20;stroke-width:1;stroke-linecap:butt;stroke-linejoin:miter;stroke-miterlimit:10;stroke-dasharray:none;stroke-opacity:1"
       id="path12"
       inkscape:connector-curvature="0" /><g
       id="g14"><g
         id="g16"
         clip-path="url(#clipPath20)"><g
           id="g22"><g
             id="g24" /><g
             id="g40"><g
               clip-path="url(#clipPath28)"
               id="g38"
               style="opacity:0.69999701"><g
                 transform="translate(126.1729,70.625)"
                 id="g32"><path
                   d="m 0,0 c 0,-28.375 -23.001,-51.375 -51.375,-51.375 -28.374,0 -51.375,23 -51.375,51.375 0,28.373 23.001,51.374 51.375,51.374 C -23.001,51.374 0,28.373 0,0"
                   style="fill:#ed1c24;fill-opacity:1;fill-rule:nonzero;stroke:none"
                   id="path30"
                   inkscape:connector-curvature="0" /></g><g
                 transform="translate(126.1729,70.625)"
                 id="g36"><path
                   d="m 0,0 c 0,-28.375 -23.001,-51.375 -51.375,-51.375 -28.374,0 -51.375,23 -51.375,51.375 0,28.373 23.001,51.374 51.375,51.374 C -23.001,51.374 0,28.373 0,0 Z"
                   style="fill:none;stroke:#231f20;stroke-width:1;stroke-linecap:butt;stroke-linejoin:miter;stroke-miterlimit:10;stroke-dasharray:none;stroke-opacity:1"
                   id="path34"
                   inkscape:connector-curvature="0" /></g></g></g></g><g
           id="g42"><g
             id="g44" /><g
             id="g60"><g
               clip-path="url(#clipPath48)"
               id="g58"
               style="opacity:0.69999701"><g
                 transform="translate(192.5781,70.625)"
                 id="g52"><path
                   d="m 0,0 c 0,-28.375 -23.002,-51.375 -51.375,-51.375 -28.374,0 -51.375,23 -51.375,51.375 0,28.372 23.001,51.374 51.375,51.374 C -23.002,51.374 0,28.372 0,0"
                   style="fill:#2e3192;fill-opacity:1;fill-rule:nonzero;stroke:none"
                   id="path50"
                   inkscape:connector-curvature="0" /></g><g
                 transform="translate(192.5781,70.625)"
                 id="g56"><path
                   d="m 0,0 c 0,-28.375 -23.002,-51.375 -51.375,-51.375 -28.374,0 -51.375,23 -51.375,51.375 0,28.372 23.001,51.374 51.375,51.374 C -23.002,51.374 0,28.372 0,0 Z"
                   style="fill:none;stroke:#231f20;stroke-width:1;stroke-linecap:butt;stroke-linejoin:miter;stroke-miterlimit:10;stroke-dasharray:none;stroke-opacity:1"
                   id="path54"
                   inkscape:connector-curvature="0" /></g></g></g></g></g></g><text
       transform="matrix(1,0,0,-1,46.5,102)"
       style="font-variant:normal;font-weight:normal;font-stretch:normal;font-size:12px;font-family:'Myriad Pro';-inkscape-font-specification:MyriadPro-Regular;writing-mode:lr-tb;fill:#231f20;fill-opacity:1;fill-rule:nonzero;stroke:none"
       id="text64"><tspan
         x="0 112.752"
         y="0"
         sodipodi:role="line"
         id="tspan62">AB</tspan></text>
</g></svg>