<?xml version="1.0" encoding="UTF-8" standalone="no"?>
<!-- Created with Inkscape (http://www.inkscape.org/) -->

<svg
   xmlns:dc="http://purl.org/dc/elements/1.1/"
   xmlns:cc="http://creativecommons.org/ns#"
   xmlns:rdf="http://www.w3.org/1999/02/22-rdf-syntax-ns#"
   xmlns:svg="http://www.w3.org/2000/svg"
   xmlns="http://www.w3.org/2000/svg"
   xmlns:sodipodi="http://sodipodi.sourceforge.net/DTD/sodipodi-0.dtd"
   xmlns:inkscape="http://www.inkscape.org/namespaces/inkscape"
   version="1.1"
   id="svg2"
   xml:space="preserve"
   width="288"
   height="192"
   viewBox="0 0 288 192"
   sodipodi:docname="Venn2.pdf"
   inkscape:version="0.92.3 (2405546, 2018-03-11)"><metadata
     id="metadata8"><rdf:RDF><cc:Work
         rdf:about=""><dc:format>image/svg+xml</dc:format><dc:type
           rdf:resource="http://purl.org/dc/dcmitype/StillImage" /><dc:title></dc:title></cc:Work></rdf:RDF></metadata><defs
     id="defs6"><clipPath
       clipPathUnits="userSpaceOnUse"
       id="clipPath18"><path
         d="M 0,144 H 216 V 0 H 0 Z"
         id="path16"
         inkscape:connector-curvature="0" /></clipPath><clipPath
       clipPathUnits="userSpaceOnUse"
       id="clipPath26"><path
         d="M 23.5884,128.601 H 139.038 V 13.1504 H 23.5884 Z"
         id="path24"
         inkscape:connector-curvature="0" /></clipPath><clipPath
       clipPathUnits="userSpaceOnUse"
       id="clipPath46"><path
         d="M 81.5884,128.601 H 197.038 V 13.1504 H 81.5884 Z"
         id="path44"
         inkscape:connector-curvature="0" /></clipPath></defs><sodipodi:namedview
     pagecolor="#ffffff"
     bordercolor="#666666"
     borderopacity="1"
     objecttolerance="10"
     gridtolerance="10"
     guidetolerance="10"
     inkscape:pageopacity="0"
     inkscape:pageshadow="2"
     inkscape:window-width="2560"
     inkscape:window-height="1346"
     id="namedview4"
     showgrid="false"
     inkscape:zoom="1.2291667"
     inkscape:cx="144"
     inkscape:cy="96"
     inkscape:window-x="-11"
     inkscape:window-y="-11"
     inkscape:window-maximized="1"
     inkscape:current-layer="g10" /><g
     id="g10"
     inkscape:groupmode="layer"
     inkscape:label="Venn2"
     transform="matrix(1.3333333,0,0,-1.3333333,0,192)"><g
       id="g12"><g
         id="g14"
         clip-path="url(#clipPath18)"><g
           id="g20"><g
             id="g22" /><g
             id="g38"><g
               clip-path="url(#clipPath26)"
               id="g36"
               style="opacity:0.5"><g
                 transform="translate(138.9131,70.876)"
                 id="g30"><path
                   d="m 0,0 c 0,-31.812 -25.788,-57.601 -57.6,-57.601 -31.811,0 -57.6,25.789 -57.6,57.601 0,31.812 25.789,57.6 57.6,57.6 C -25.788,57.6 0,31.812 0,0"
                   style="fill:#ff0000;fill-opacity:1;fill-rule:nonzero;stroke:none"
                   id="path28"
                   inkscape:connector-curvature="0" /></g><g
                 transform="translate(138.9131,70.876)"
                 id="g34"><path
                   d="m 0,0 c 0,-31.812 -25.788,-57.601 -57.6,-57.601 -31.811,0 -57.6,25.789 -57.6,57.601 0,31.812 25.789,57.6 57.6,57.6 C -25.788,57.6 0,31.812 0,0 Z"
                   style="fill:none;stroke:#000000;stroke-width:0.25;stroke-linecap:butt;stroke-linejoin:miter;stroke-miterlimit:10;stroke-dasharray:none;stroke-opacity:1"
                   id="path32"
                   inkscape:connector-curvature="0" /></g></g></g></g><g
           id="g40"><g
             id="g42" /><g
             id="g58"><g
               clip-path="url(#clipPath46)"
               id="g56"
               style="opacity:0.5"><g
                 transform="translate(196.9131,70.876)"
                 id="g50"><path
                   d="m 0,0 c 0,-31.812 -25.788,-57.601 -57.6,-57.601 -31.811,0 -57.6,25.789 -57.6,57.601 0,31.812 25.789,57.6 57.6,57.6 C -25.788,57.6 0,31.812 0,0"
                   style="fill:#0000ff;fill-opacity:1;fill-rule:nonzero;stroke:none"
                   id="path48"
                   inkscape:connector-curvature="0" /></g><g
                 transform="translate(196.9131,70.876)"
                 id="g54"><path
                   d="m 0,0 c 0,-31.812 -25.788,-57.601 -57.6,-57.601 -31.811,0 -57.6,25.789 -57.6,57.601 0,31.812 25.789,57.6 57.6,57.6 C -25.788,57.6 0,31.812 0,0 Z"
                   style="fill:none;stroke:#000000;stroke-width:0.25;stroke-linecap:butt;stroke-linejoin:miter;stroke-miterlimit:10;stroke-dasharray:none;stroke-opacity:1"
                   id="path52"
                   inkscape:connector-curvature="0" /></g></g></g></g></g></g><text
       transform="matrix(1,0,0,-1,52.3887,68.1011)"
       style="font-variant:normal;font-weight:normal;font-stretch:normal;font-size:12px;font-family:cmmi10;-inkscape-font-specification:Cmmi10;writing-mode:lr-tb;fill:#000000;fill-opacity:1;fill-rule:nonzero;stroke:none"
       id="text62"><tspan
         x="0 111.228"
         y="0"
         sodipodi:role="line"
         id="tspan60">AB</tspan></text>
</g></svg>