<?xml version="1.0" encoding="UTF-8" standalone="no"?>
<!-- Created with Inkscape (http://www.inkscape.org/) -->

<svg
   xmlns:dc="http://purl.org/dc/elements/1.1/"
   xmlns:cc="http://creativecommons.org/ns#"
   xmlns:rdf="http://www.w3.org/1999/02/22-rdf-syntax-ns#"
   xmlns:svg="http://www.w3.org/2000/svg"
   xmlns="http://www.w3.org/2000/svg"
   xmlns:sodipodi="http://sodipodi.sourceforge.net/DTD/sodipodi-0.dtd"
   xmlns:inkscape="http://www.inkscape.org/namespaces/inkscape"
   version="1.1"
   id="svg1440"
   xml:space="preserve"
   width="480"
   height="326.66666"
   viewBox="0 0 480 326.66666"
   sodipodi:docname="VennSQL_A.pdf"
   inkscape:version="0.92.3 (2405546, 2018-03-11)"><metadata
     id="metadata1446"><rdf:RDF><cc:Work
         rdf:about=""><dc:format>image/svg+xml</dc:format><dc:type
           rdf:resource="http://purl.org/dc/dcmitype/StillImage" /><dc:title></dc:title></cc:Work></rdf:RDF></metadata><defs
     id="defs1444"><clipPath
       clipPathUnits="userSpaceOnUse"
       id="clipPath1456"><path
         d="M 0,245 H 360 V 0 H 0 Z"
         id="path1454"
         inkscape:connector-curvature="0" /></clipPath></defs><sodipodi:namedview
     pagecolor="#ffffff"
     bordercolor="#666666"
     borderopacity="1"
     objecttolerance="10"
     gridtolerance="10"
     guidetolerance="10"
     inkscape:pageopacity="0"
     inkscape:pageshadow="2"
     inkscape:window-width="2560"
     inkscape:window-height="1346"
     id="namedview1442"
     showgrid="false"
     inkscape:zoom="0.722449"
     inkscape:cx="240"
     inkscape:cy="163.33333"
     inkscape:window-x="-11"
     inkscape:window-y="-11"
     inkscape:window-maximized="1"
     inkscape:current-layer="g1448" /><g
     id="g1448"
     inkscape:groupmode="layer"
     inkscape:label="VennSQL_A"
     transform="matrix(1.3333333,0,0,-1.3333333,0,326.66667)"><g
       id="g1450"><g
         id="g1452"
         clip-path="url(#clipPath1456)"><g
           id="g1458"
           transform="translate(237.6016,122.8872)"><path
             d="m 0,0 c 0,30.554 -12.137,59.855 -33.742,81.461 -21.606,21.601 -50.906,33.742 -81.462,33.742 -30.549,0 -59.851,-12.141 -81.457,-33.742 C -218.266,59.855 -230.402,30.554 -230.402,0 c 0,-30.551 12.136,-59.852 33.741,-81.458 21.606,-21.605 50.908,-33.741 81.457,-33.741 30.556,0 59.856,12.136 81.462,33.741 C -12.137,-59.852 0,-30.551 0,0"
             style="fill:#009c00;fill-opacity:1;fill-rule:nonzero;stroke:none"
             id="path1460"
             inkscape:connector-curvature="0" /></g><g
           id="g1462"
           transform="translate(237.6016,122.8872)"><path
             d="m 0,0 c 0,30.554 -12.137,59.855 -33.742,81.461 -21.606,21.601 -50.906,33.742 -81.462,33.742 -30.549,0 -59.851,-12.141 -81.457,-33.742 C -218.266,59.855 -230.402,30.554 -230.402,0 c 0,-30.551 12.136,-59.852 33.741,-81.458 21.606,-21.605 50.908,-33.741 81.457,-33.741 30.556,0 59.856,12.136 81.462,33.741 C -12.137,-59.852 0,-30.551 0,0 Z"
             style="fill:none;stroke:#000000;stroke-width:0.5;stroke-linecap:square;stroke-linejoin:miter;stroke-miterlimit:3.25;stroke-dasharray:none;stroke-opacity:1"
             id="path1464"
             inkscape:connector-curvature="0" /></g><g
           id="g1466"
           transform="translate(352.8008,122.8872)"><path
             d="m 0,0 c 0,30.554 -12.137,59.855 -33.742,81.461 -21.606,21.601 -50.906,33.742 -81.457,33.742 -30.555,0 -59.856,-12.141 -81.461,-33.742 C -218.266,59.855 -230.403,30.554 -230.403,0 c 0,-30.551 12.137,-59.852 33.743,-81.458 21.605,-21.605 50.906,-33.741 81.461,-33.741 30.551,0 59.851,12.136 81.457,33.741 C -12.137,-59.852 0,-30.551 0,0 Z"
             style="fill:none;stroke:#000000;stroke-width:0.5;stroke-linecap:square;stroke-linejoin:miter;stroke-miterlimit:3.25;stroke-dasharray:none;stroke-opacity:1"
             id="path1468"
             inkscape:connector-curvature="0" /></g></g></g><text
       transform="matrix(1,0,0,-1,85.5962,115.3877)"
       style="font-variant:normal;font-weight:normal;font-stretch:normal;font-size:24px;font-family:Arial;-inkscape-font-specification:ArialMT;writing-mode:lr-tb;fill:#000000;fill-opacity:1;fill-rule:nonzero;stroke:none"
       id="text1472"><tspan
         x="0 172.776"
         y="0"
         sodipodi:role="line"
         id="tspan1470">AB</tspan></text>
</g></svg>