<?xml version="1.0" encoding="UTF-8" standalone="no"?>
<!-- Created with Inkscape (http://www.inkscape.org/) -->

<svg
   xmlns:dc="http://purl.org/dc/elements/1.1/"
   xmlns:cc="http://creativecommons.org/ns#"
   xmlns:rdf="http://www.w3.org/1999/02/22-rdf-syntax-ns#"
   xmlns:svg="http://www.w3.org/2000/svg"
   xmlns="http://www.w3.org/2000/svg"
   xmlns:sodipodi="http://sodipodi.sourceforge.net/DTD/sodipodi-0.dtd"
   xmlns:inkscape="http://www.inkscape.org/namespaces/inkscape"
   version="1.1"
   id="svg874"
   xml:space="preserve"
   width="480"
   height="326.66666"
   viewBox="0 0 480 326.66666"
   sodipodi:docname="VennSQL.pdf"
   inkscape:version="0.92.3 (2405546, 2018-03-11)"><metadata
     id="metadata880"><rdf:RDF><cc:Work
         rdf:about=""><dc:format>image/svg+xml</dc:format><dc:type
           rdf:resource="http://purl.org/dc/dcmitype/StillImage" /><dc:title></dc:title></cc:Work></rdf:RDF></metadata><defs
     id="defs878" /><sodipodi:namedview
     pagecolor="#ffffff"
     bordercolor="#666666"
     borderopacity="1"
     objecttolerance="10"
     gridtolerance="10"
     guidetolerance="10"
     inkscape:pageopacity="0"
     inkscape:pageshadow="2"
     inkscape:window-width="2560"
     inkscape:window-height="1346"
     id="namedview876"
     showgrid="false"
     inkscape:zoom="0.722449"
     inkscape:cx="240"
     inkscape:cy="163.33333"
     inkscape:window-x="-11"
     inkscape:window-y="-11"
     inkscape:window-maximized="1"
     inkscape:current-layer="g882" /><g
     id="g882"
     inkscape:groupmode="layer"
     inkscape:label="VennSQL"
     transform="matrix(1.3333333,0,0,-1.3333333,0,326.66667)"><g
       id="g884"><path
         d="m 237.602,122.887 c 0,30.554 -12.137,59.855 -33.743,81.461 -21.605,21.601 -50.906,33.742 -81.461,33.742 -30.55,0 -59.851,-12.141 -81.457,-33.742 C 19.336,182.742 7.199,153.441 7.199,122.887 7.199,92.336 19.336,63.035 40.941,41.43 62.547,19.824 91.848,7.688 122.398,7.688 c 30.555,0 59.856,12.136 81.461,33.742 21.606,21.605 33.743,50.906 33.743,81.457 z"
         style="fill:none;stroke:#000000;stroke-width:0.5;stroke-linecap:square;stroke-linejoin:miter;stroke-miterlimit:3.25;stroke-dasharray:none;stroke-opacity:1"
         id="path886"
         inkscape:connector-curvature="0" /><path
         d="m 352.801,122.887 c 0,30.554 -12.137,59.855 -33.742,81.461 -21.606,21.601 -50.907,33.742 -81.457,33.742 -30.555,0 -59.856,-12.141 -81.461,-33.742 -21.606,-21.606 -33.743,-50.907 -33.743,-81.461 0,-30.551 12.137,-59.852 33.743,-81.457 21.605,-21.606 50.906,-33.742 81.461,-33.742 30.55,0 59.851,12.136 81.457,33.742 21.605,21.605 33.742,50.906 33.742,81.457 z"
         style="fill:none;stroke:#000000;stroke-width:0.5;stroke-linecap:square;stroke-linejoin:miter;stroke-miterlimit:3.25;stroke-dasharray:none;stroke-opacity:1"
         id="path888"
         inkscape:connector-curvature="0" /><text
         transform="matrix(1,0,0,-1,85.596094,115.388)"
         style="font-variant:normal;font-weight:normal;font-size:24px;font-family:Arial;-inkscape-font-specification:ArialMT;writing-mode:lr-tb;fill:#000000;fill-opacity:1;fill-rule:nonzero;stroke:none"
         id="text892"><tspan
           x="0 172.776"
           y="0"
           sodipodi:role="line"
           id="tspan890">AB</tspan></text>
</g></g></svg>