<?xml version="1.0" encoding="UTF-8" standalone="no"?>
<svg
   xmlns:dc="http://purl.org/dc/elements/1.1/"
   xmlns:cc="http://creativecommons.org/ns#"
   xmlns:rdf="http://www.w3.org/1999/02/22-rdf-syntax-ns#"
   xmlns:svg="http://www.w3.org/2000/svg"
   xmlns="http://www.w3.org/2000/svg"
   xmlns:sodipodi="http://sodipodi.sourceforge.net/DTD/sodipodi-0.dtd"
   xmlns:inkscape="http://www.inkscape.org/namespaces/inkscape"
   version="1.1"
   width="400"
   height="200"
   id="svg125"
   sodipodi:docname="wtp.svg"
   inkscape:version="1.0.2 (e86c870879, 2021-01-15, custom)">
  <metadata
     id="metadata129">
    <rdf:RDF>
      <cc:Work
         rdf:about="">
        <dc:format>image/svg+xml</dc:format>
        <dc:type
           rdf:resource="http://purl.org/dc/dcmitype/StillImage" />
        <dc:title></dc:title>
      </cc:Work>
    </rdf:RDF>
  </metadata>
  <sodipodi:namedview
     pagecolor="#ffffff"
     bordercolor="#666666"
     borderopacity="1"
     objecttolerance="10"
     gridtolerance="10"
     guidetolerance="10"
     inkscape:pageopacity="0"
     inkscape:pageshadow="2"
     inkscape:window-width="1920"
     inkscape:window-height="1017"
     id="namedview127"
     showgrid="false"
     inkscape:zoom="2.1984127"
     inkscape:cx="187.60295"
     inkscape:cy="155.5501"
     inkscape:window-x="1672"
     inkscape:window-y="-8"
     inkscape:window-maximized="1"
     inkscape:current-layer="svg125"
     inkscape:snap-object-midpoints="true" />
  <defs
     id="defs5">
    <clipPath
       id="UluxTtwJPXJg">
      <path
         fill="none"
         stroke="none"
         d="M 0,0 H 1008 V 676 H 0 Z"
         id="path2" />
    </clipPath>
  </defs>
  <path
     fill="none"
     stroke="#000000"
     paint-order="fill stroke markers"
     d="m 280.61976,118.19803 h -82"
     stroke-opacity="0.698039"
     stroke-linecap="round"
     stroke-linejoin="round"
     stroke-miterlimit="10"
     stroke-width="2.5"
     id="path15-0" />
  <path
     fill="none"
     stroke="#000000"
     paint-order="fill stroke markers"
     d="M 32.619757,75.468789 V 161.46879"
     stroke-opacity="0.698039"
     stroke-linecap="round"
     stroke-linejoin="round"
     stroke-miterlimit="10"
     stroke-width="2.5"
     id="path9"
     sodipodi:nodetypes="cc" />
  <path
     fill="none"
     stroke="#000000"
     paint-order="fill stroke markers"
     d="M 32.619757,161.46879 116.61976,118.19803"
     stroke-opacity="0.698039"
     stroke-linecap="round"
     stroke-linejoin="round"
     stroke-miterlimit="10"
     stroke-width="2.5"
     id="path11"
     sodipodi:nodetypes="cc" />
  <path
     fill="none"
     stroke="#000000"
     paint-order="fill stroke markers"
     d="M 116.61976,118.46879 32.619757,75.468789"
     stroke-opacity="0.698039"
     stroke-linecap="round"
     stroke-linejoin="round"
     stroke-miterlimit="10"
     stroke-width="2.5"
     id="path13"
     sodipodi:nodetypes="cc" />
  <path
     fill="none"
     stroke="#000000"
     paint-order="fill stroke markers"
     d="m 116.61976,118.19803 h 82"
     stroke-opacity="0.698039"
     stroke-linecap="round"
     stroke-linejoin="round"
     stroke-miterlimit="10"
     stroke-width="2.5"
     id="path15" />
  <path
     fill="#4d4dff"
     stroke="none"
     paint-order="stroke fill markers"
     d="m 37.619757,75.468789 c 0,2.76142 -2.238576,5 -5,5 -2.761424,0 -5,-2.23858 -5,-5 0,-2.76142 2.238576,-5 5,-5 2.761424,0 5,2.23858 5,5 z"
     fill-opacity="1"
     id="path31" />
  <text
     fill="#4d4dff"
     stroke="none"
     font-family="geogebra-sans-serif, sans-serif"
     font-size="16px"
     font-style="normal"
     font-weight="normal"
     text-decoration="normal"
     x="26.612539"
     y="68.198036"
     text-anchor="start"
     dominant-baseline="alphabetic"
     fill-opacity="1"
     id="text35">A</text>
  <path
     fill="#4d4dff"
     stroke="none"
     paint-order="stroke fill markers"
     d="m 37.619757,161.46879 c 0,2.76142 -2.238576,5 -5,5 -2.761424,0 -5,-2.23858 -5,-5 0,-2.76142 2.238576,-5 5,-5 2.761424,0 5,2.23858 5,5 z"
     fill-opacity="1"
     id="path41" />
  <text
     fill="#4d4dff"
     stroke="none"
     font-family="geogebra-sans-serif, sans-serif"
     font-size="16px"
     font-style="normal"
     font-weight="normal"
     text-decoration="normal"
     x="27.522285"
     y="182.40019"
     text-anchor="start"
     dominant-baseline="alphabetic"
     fill-opacity="1"
     id="text45">B</text>
  <path
     fill="#4d4dff"
     stroke="none"
     paint-order="stroke fill markers"
     d="m 121.61976,118.46879 c 0,2.76142 -2.23858,5 -5,5 -2.76142,0 -5,-2.23858 -5,-5 0,-2.76142 2.23858,-5 5,-5 2.76142,0 5,2.23858 5,5 z"
     fill-opacity="1"
     id="path51" />
  <text
     fill="#4d4dff"
     stroke="none"
     font-family="geogebra-sans-serif, sans-serif"
     font-size="16px"
     font-style="normal"
     font-weight="normal"
     text-decoration="normal"
     x="120.61976"
     y="112.74677"
     text-anchor="start"
     dominant-baseline="alphabetic"
     fill-opacity="1"
     id="text55">C</text>
  <text
     fill="#4d4dff"
     stroke="none"
     font-family="geogebra-sans-serif, sans-serif"
     font-size="16px"
     font-style="normal"
     font-weight="normal"
     text-decoration="normal"
     x="209.89775"
     y="113.65652"
     text-anchor="start"
     dominant-baseline="alphabetic"
     fill-opacity="1"
     id="text65">D</text>
  <text
     fill="#4d4dff"
     stroke="none"
     font-family="geogebra-sans-serif, sans-serif"
     font-size="16px"
     font-style="normal"
     font-weight="normal"
     text-decoration="normal"
     x="278.43204"
     y="112.01753"
     text-anchor="start"
     dominant-baseline="alphabetic"
     fill-opacity="1"
     id="text75">E</text>
  <text
     fill="#4d4dff"
     stroke="none"
     font-family="geogebra-sans-serif, sans-serif"
     font-size="16px"
     font-style="normal"
     font-weight="normal"
     text-decoration="normal"
     x="364.26596"
     y="65.656517"
     text-anchor="start"
     dominant-baseline="alphabetic"
     fill-opacity="1"
     id="text85">F</text>
  <text
     fill="#4d4dff"
     stroke="none"
     font-family="geogebra-sans-serif, sans-serif"
     font-size="16px"
     font-style="normal"
     font-weight="normal"
     text-decoration="normal"
     x="356.98798"
     y="181.85146"
     text-anchor="start"
     dominant-baseline="alphabetic"
     fill-opacity="1"
     id="text95">G</text>
  <text
     fill="#4d4dff"
     stroke="none"
     font-family="geogebra-sans-serif, sans-serif"
     font-size="16px"
     font-style="normal"
     font-weight="normal"
     text-decoration="normal"
     x="236.25154"
     y="25.837019"
     text-anchor="start"
     dominant-baseline="alphabetic"
     fill-opacity="1"
     id="text105">H</text>
  <text
     fill="#4d4dff"
     stroke="none"
     font-family="geogebra-sans-serif, sans-serif"
     font-size="16px"
     font-style="normal"
     font-weight="normal"
     text-decoration="normal"
     x="154.06381"
     y="25.656515"
     text-anchor="start"
     dominant-baseline="alphabetic"
     fill-opacity="1"
     id="text115">I</text>
  <path
     fill="none"
     stroke="#000000"
     paint-order="fill stroke markers"
     d="m 364.61976,75.46879 v 86"
     stroke-opacity="0.698039"
     stroke-linecap="round"
     stroke-linejoin="round"
     stroke-miterlimit="10"
     stroke-width="2.5"
     id="path9-5"
     sodipodi:nodetypes="cc" />
  <path
     fill="none"
     stroke="#000000"
     paint-order="fill stroke markers"
     d="m 364.61976,161.46879 -84,-43.27076"
     stroke-opacity="0.698039"
     stroke-linecap="round"
     stroke-linejoin="round"
     stroke-miterlimit="10"
     stroke-width="2.5"
     id="path11-0"
     sodipodi:nodetypes="cc" />
  <path
     fill="none"
     stroke="#000000"
     paint-order="fill stroke markers"
     d="m 280.61976,118.46879 84,-43"
     stroke-opacity="0.698039"
     stroke-linecap="round"
     stroke-linejoin="round"
     stroke-miterlimit="10"
     stroke-width="2.5"
     id="path13-0"
     sodipodi:nodetypes="cc" />
  <path
     fill="#4d4dff"
     stroke="none"
     paint-order="stroke fill markers"
     d="m 359.61976,75.46879 c 0,2.76142 2.23858,5 5,5 2.76143,0 5,-2.23858 5,-5 0,-2.76142 -2.23857,-5 -5,-5 -2.76142,0 -5,2.23858 -5,5 z"
     fill-opacity="1"
     id="path31-8" />
  <path
     fill="#4d4dff"
     stroke="none"
     paint-order="stroke fill markers"
     d="m 359.61976,161.46879 c 0,2.76142 2.23858,5 5,5 2.76143,0 5,-2.23858 5,-5 0,-2.76142 -2.23857,-5 -5,-5 -2.76142,0 -5,2.23858 -5,5 z"
     fill-opacity="1"
     id="path41-7" />
  <path
     fill="#4d4dff"
     stroke="none"
     paint-order="stroke fill markers"
     d="m 275.61976,118.46879 c 0,2.76142 2.23858,5 5,5 2.76142,0 5,-2.23858 5,-5 0,-2.76142 -2.23858,-5 -5,-5 -2.76142,0 -5,2.23858 -5,5 z"
     fill-opacity="1"
     id="path51-6" />
  <path
     fill="none"
     stroke="#000000"
     paint-order="fill stroke markers"
     d="m 241.349,34.19803 h -86"
     stroke-opacity="0.698039"
     stroke-linecap="round"
     stroke-linejoin="round"
     stroke-miterlimit="10"
     stroke-width="2.5"
     id="path9-8"
     sodipodi:nodetypes="cc" />
  <path
     fill="none"
     stroke="#000000"
     paint-order="fill stroke markers"
     d="m 155.349,34.19803 43.27076,84"
     stroke-opacity="0.698039"
     stroke-linecap="round"
     stroke-linejoin="round"
     stroke-miterlimit="10"
     stroke-width="2.5"
     id="path11-8"
     sodipodi:nodetypes="cc" />
  <path
     fill="none"
     stroke="#000000"
     paint-order="fill stroke markers"
     d="m 198.349,118.19803 43,-84"
     stroke-opacity="0.698039"
     stroke-linecap="round"
     stroke-linejoin="round"
     stroke-miterlimit="10"
     stroke-width="2.5"
     id="path13-2"
     sodipodi:nodetypes="cc" />
  <path
     fill="#4d4dff"
     stroke="none"
     paint-order="stroke fill markers"
     d="m 241.349,39.19803 c -2.76142,0 -5,-2.23858 -5,-5 0,-2.76143 2.23858,-5 5,-5 2.76142,0 5,2.23857 5,5 0,2.76142 -2.23858,5 -5,5 z"
     fill-opacity="1"
     id="path31-1" />
  <path
     fill="#4d4dff"
     stroke="none"
     paint-order="stroke fill markers"
     d="m 155.349,39.19803 c -2.76142,0 -5,-2.23858 -5,-5 0,-2.76143 2.23858,-5 5,-5 2.76142,0 5,2.23857 5,5 0,2.76142 -2.23858,5 -5,5 z"
     fill-opacity="1"
     id="path41-3" />
  <path
     fill="#4d4dff"
     stroke="none"
     paint-order="stroke fill markers"
     d="m 198.349,123.19803 c -2.76142,0 -5,-2.23858 -5,-5 0,-2.76142 2.23858,-5 5,-5 2.76142,0 5,2.23858 5,5 0,2.76142 -2.23858,5 -5,5 z"
     fill-opacity="1"
     id="path51-3" />
</svg>
